%TF.GenerationSoftware,KiCad,Pcbnew,8.0.0*%
%TF.CreationDate,2024-03-25T10:57:50+01:00*%
%TF.ProjectId,MicAmp,4d696341-6d70-42e6-9b69-6361645f7063,v2*%
%TF.SameCoordinates,Original*%
%TF.FileFunction,Copper,L2,Inr*%
%TF.FilePolarity,Positive*%
%FSLAX46Y46*%
G04 Gerber Fmt 4.6, Leading zero omitted, Abs format (unit mm)*
G04 Created by KiCad (PCBNEW 8.0.0) date 2024-03-25 10:57:50*
%MOMM*%
%LPD*%
G01*
G04 APERTURE LIST*
G04 Aperture macros list*
%AMRoundRect*
0 Rectangle with rounded corners*
0 $1 Rounding radius*
0 $2 $3 $4 $5 $6 $7 $8 $9 X,Y pos of 4 corners*
0 Add a 4 corners polygon primitive as box body*
4,1,4,$2,$3,$4,$5,$6,$7,$8,$9,$2,$3,0*
0 Add four circle primitives for the rounded corners*
1,1,$1+$1,$2,$3*
1,1,$1+$1,$4,$5*
1,1,$1+$1,$6,$7*
1,1,$1+$1,$8,$9*
0 Add four rect primitives between the rounded corners*
20,1,$1+$1,$2,$3,$4,$5,0*
20,1,$1+$1,$4,$5,$6,$7,0*
20,1,$1+$1,$6,$7,$8,$9,0*
20,1,$1+$1,$8,$9,$2,$3,0*%
G04 Aperture macros list end*
%TA.AperFunction,ComponentPad*%
%ADD10RoundRect,0.250000X-0.750000X0.600000X-0.750000X-0.600000X0.750000X-0.600000X0.750000X0.600000X0*%
%TD*%
%TA.AperFunction,ComponentPad*%
%ADD11O,2.000000X1.700000*%
%TD*%
%TA.AperFunction,ComponentPad*%
%ADD12RoundRect,0.250000X-0.600000X-0.750000X0.600000X-0.750000X0.600000X0.750000X-0.600000X0.750000X0*%
%TD*%
%TA.AperFunction,ComponentPad*%
%ADD13O,1.700000X2.000000*%
%TD*%
%TA.AperFunction,ComponentPad*%
%ADD14C,2.900000*%
%TD*%
%TA.AperFunction,ComponentPad*%
%ADD15RoundRect,0.250000X-0.600000X-0.725000X0.600000X-0.725000X0.600000X0.725000X-0.600000X0.725000X0*%
%TD*%
%TA.AperFunction,ComponentPad*%
%ADD16O,1.700000X1.950000*%
%TD*%
%TA.AperFunction,ViaPad*%
%ADD17C,0.500000*%
%TD*%
%ADD18C,0.300000*%
%ADD19C,0.350000*%
G04 APERTURE END LIST*
D10*
%TO.N,GND*%
%TO.C,Mic_In*%
X99231900Y-118060200D03*
D11*
%TO.N,Net-(Mic_In1-Pin_2)*%
X99231900Y-120560200D03*
%TD*%
D12*
%TO.N,GND*%
%TO.C,Out_Audio*%
X142126500Y-128646400D03*
D13*
%TO.N,/Out_Audio*%
X144626500Y-128646400D03*
%TD*%
D14*
%TO.N,GND*%
%TO.C,H1*%
X99135500Y-105805600D03*
%TD*%
%TO.N,GND*%
%TO.C,H3*%
X98864800Y-128804100D03*
%TD*%
D15*
%TO.N,GND*%
%TO.C,Supp_MicAmp1*%
X105636700Y-128646400D03*
D16*
%TO.N,/5V_In*%
X108136700Y-128646400D03*
%TO.N,/-5V_In*%
X110636700Y-128646400D03*
%TD*%
D15*
%TO.N,Net-(U7A--)*%
%TO.C,Volume_Audio*%
X117766800Y-128646400D03*
D16*
%TO.N,/Out_Audio*%
X120266800Y-128646400D03*
X122766800Y-128646400D03*
%TD*%
D14*
%TO.N,GND*%
%TO.C,H4*%
X151623700Y-128804100D03*
%TD*%
%TO.N,GND*%
%TO.C,H2*%
X151623700Y-105540300D03*
%TD*%
D17*
%TO.N,-5V*%
X112839000Y-115749000D03*
X112861000Y-116372000D03*
%TO.N,Net-(C8-Pad2)*%
X117578500Y-116327300D03*
%TO.N,+5V*%
X147713000Y-121022000D03*
X115690000Y-110507000D03*
X102218000Y-124824000D03*
X116704000Y-121103000D03*
X105840000Y-116050000D03*
X129597000Y-118693000D03*
X140651000Y-110443000D03*
X105818000Y-116673000D03*
X120445000Y-118727000D03*
%TO.N,GND*%
X129625000Y-120011000D03*
X106701000Y-103953000D03*
X123251000Y-110718000D03*
X119414000Y-121276000D03*
X115351000Y-122126000D03*
X113571000Y-104704000D03*
X108974000Y-130693000D03*
X109962000Y-130693000D03*
X134239000Y-120667000D03*
X116616000Y-117248000D03*
X108116000Y-130672000D03*
X138970000Y-104783000D03*
X131941000Y-104210000D03*
X125093000Y-120667000D03*
X148787000Y-117380000D03*
X142710000Y-118541000D03*
X103693000Y-121761000D03*
X120509000Y-120009000D03*
X108116000Y-119399000D03*
X147714000Y-117323000D03*
%TO.N,Net-(C9-Pad2)*%
X111284400Y-106028100D03*
%TO.N,Net-(C10-Pad2)*%
X138065300Y-105019600D03*
%TO.N,Net-(C13-Pad1)*%
X106999800Y-121196400D03*
X106999800Y-119951000D03*
%TO.N,Net-(U6-CLK)*%
X135492000Y-116089000D03*
%TO.N,Net-(R14-Pad2)*%
X141251300Y-116521500D03*
%TO.N,Net-(R15-Pad2)*%
X141314600Y-121856700D03*
%TO.N,Net-(D1-K)*%
X109969500Y-105884400D03*
X113440500Y-107892100D03*
%TO.N,Net-(D1-A)*%
X106396700Y-109296900D03*
%TO.N,Net-(D3-K)*%
X130858000Y-105679500D03*
%TO.N,Net-(D3-A)*%
X133246600Y-110444500D03*
%TO.N,Net-(U6-IN)*%
X127113900Y-114986500D03*
%TO.N,Net-(U2B--)*%
X119273700Y-105593200D03*
X119273700Y-106716700D03*
%TO.N,Net-(U4-CLK)*%
X127218000Y-116319000D03*
%TO.N,Net-(R16-Pad2)*%
X145010100Y-121675000D03*
%TO.N,Net-(C14-Pad2)*%
X112005800Y-122754600D03*
X111742800Y-119120200D03*
%TO.N,Net-(U4-IN)*%
X119914300Y-117043900D03*
%TO.N,Net-(U4-OUT)*%
X120795500Y-120658600D03*
%TO.N,Net-(Mic_Out1-Pad3)*%
X147862000Y-119272600D03*
%TD*%
%TA.AperFunction,Conductor*%
%TO.N,GND*%
G36*
X154883039Y-102599685D02*
G01*
X154928794Y-102652489D01*
X154940000Y-102704000D01*
X154940000Y-131956000D01*
X154920315Y-132023039D01*
X154867511Y-132068794D01*
X154816000Y-132080000D01*
X96064000Y-132080000D01*
X95996961Y-132060315D01*
X95951206Y-132007511D01*
X95940000Y-131956000D01*
X95940000Y-128804101D01*
X96909819Y-128804101D01*
X96929718Y-129082323D01*
X96929719Y-129082330D01*
X96989007Y-129354874D01*
X97086489Y-129616234D01*
X97220161Y-129861038D01*
X97320402Y-129994943D01*
X97821120Y-129494225D01*
X97911354Y-129618420D01*
X98050480Y-129757546D01*
X98174673Y-129847778D01*
X97673955Y-130348496D01*
X97807861Y-130448737D01*
X97807861Y-130448738D01*
X98052665Y-130582410D01*
X98314025Y-130679892D01*
X98586569Y-130739180D01*
X98586576Y-130739181D01*
X98864799Y-130759081D01*
X98864801Y-130759081D01*
X99143023Y-130739181D01*
X99143030Y-130739180D01*
X99415574Y-130679892D01*
X99676934Y-130582410D01*
X99921742Y-130448735D01*
X100055642Y-130348496D01*
X100055643Y-130348496D01*
X99554926Y-129847778D01*
X99679120Y-129757546D01*
X99818246Y-129618420D01*
X99908479Y-129494226D01*
X100409196Y-129994943D01*
X100409196Y-129994942D01*
X100509435Y-129861042D01*
X100643110Y-129616234D01*
X100740592Y-129354874D01*
X100799880Y-129082330D01*
X100799881Y-129082323D01*
X100819781Y-128804101D01*
X100819781Y-128804098D01*
X100799881Y-128525876D01*
X100799880Y-128525869D01*
X100771716Y-128396400D01*
X104286700Y-128396400D01*
X105232554Y-128396400D01*
X105194070Y-128463057D01*
X105161700Y-128583865D01*
X105161700Y-128708935D01*
X105194070Y-128829743D01*
X105232554Y-128896400D01*
X104286701Y-128896400D01*
X104286701Y-129421386D01*
X104297194Y-129524097D01*
X104352341Y-129690519D01*
X104352343Y-129690524D01*
X104444384Y-129839745D01*
X104568354Y-129963715D01*
X104717575Y-130055756D01*
X104717580Y-130055758D01*
X104884002Y-130110905D01*
X104884009Y-130110906D01*
X104986719Y-130121399D01*
X105386699Y-130121399D01*
X105386700Y-130121398D01*
X105386700Y-129050545D01*
X105453357Y-129089030D01*
X105574165Y-129121400D01*
X105699235Y-129121400D01*
X105820043Y-129089030D01*
X105886700Y-129050545D01*
X105886700Y-130121399D01*
X106286672Y-130121399D01*
X106286686Y-130121398D01*
X106389397Y-130110905D01*
X106555819Y-130055758D01*
X106555824Y-130055756D01*
X106705045Y-129963715D01*
X106829017Y-129839743D01*
X106924515Y-129684916D01*
X106976463Y-129638191D01*
X107045425Y-129626968D01*
X107109508Y-129654812D01*
X107117735Y-129662331D01*
X107256913Y-129801509D01*
X107428879Y-129926448D01*
X107428881Y-129926449D01*
X107428884Y-129926451D01*
X107618288Y-130022957D01*
X107820457Y-130088646D01*
X108030413Y-130121900D01*
X108030414Y-130121900D01*
X108242986Y-130121900D01*
X108242987Y-130121900D01*
X108452943Y-130088646D01*
X108655112Y-130022957D01*
X108844516Y-129926451D01*
X108929448Y-129864745D01*
X109016486Y-129801509D01*
X109016488Y-129801506D01*
X109016492Y-129801504D01*
X109166804Y-129651192D01*
X109286383Y-129486604D01*
X109341711Y-129443940D01*
X109411324Y-129437961D01*
X109473120Y-129470566D01*
X109487013Y-129486599D01*
X109581198Y-129616234D01*
X109606596Y-129651192D01*
X109756913Y-129801509D01*
X109928879Y-129926448D01*
X109928881Y-129926449D01*
X109928884Y-129926451D01*
X110118288Y-130022957D01*
X110320457Y-130088646D01*
X110530413Y-130121900D01*
X110530414Y-130121900D01*
X110742986Y-130121900D01*
X110742987Y-130121900D01*
X110952943Y-130088646D01*
X111155112Y-130022957D01*
X111344516Y-129926451D01*
X111429448Y-129864745D01*
X111516486Y-129801509D01*
X111516488Y-129801506D01*
X111516492Y-129801504D01*
X111666804Y-129651192D01*
X111666806Y-129651188D01*
X111666809Y-129651186D01*
X111791748Y-129479220D01*
X111791747Y-129479220D01*
X111791751Y-129479216D01*
X111821209Y-129421401D01*
X116416300Y-129421401D01*
X116416301Y-129421418D01*
X116426800Y-129524196D01*
X116426801Y-129524199D01*
X116481985Y-129690731D01*
X116481987Y-129690736D01*
X116516869Y-129747288D01*
X116574088Y-129840056D01*
X116698144Y-129964112D01*
X116847466Y-130056214D01*
X117014003Y-130111399D01*
X117116791Y-130121900D01*
X118416808Y-130121899D01*
X118519597Y-130111399D01*
X118686134Y-130056214D01*
X118835456Y-129964112D01*
X118959512Y-129840056D01*
X119051614Y-129690734D01*
X119051614Y-129690731D01*
X119054978Y-129685279D01*
X119106926Y-129638554D01*
X119175888Y-129627331D01*
X119239970Y-129655174D01*
X119248198Y-129662694D01*
X119387013Y-129801509D01*
X119558979Y-129926448D01*
X119558981Y-129926449D01*
X119558984Y-129926451D01*
X119748388Y-130022957D01*
X119950557Y-130088646D01*
X120160513Y-130121900D01*
X120160514Y-130121900D01*
X120373086Y-130121900D01*
X120373087Y-130121900D01*
X120583043Y-130088646D01*
X120785212Y-130022957D01*
X120974616Y-129926451D01*
X121059548Y-129864745D01*
X121146586Y-129801509D01*
X121146588Y-129801506D01*
X121146592Y-129801504D01*
X121296904Y-129651192D01*
X121416483Y-129486604D01*
X121471811Y-129443940D01*
X121541424Y-129437961D01*
X121603220Y-129470566D01*
X121617113Y-129486599D01*
X121711298Y-129616234D01*
X121736696Y-129651192D01*
X121887013Y-129801509D01*
X122058979Y-129926448D01*
X122058981Y-129926449D01*
X122058984Y-129926451D01*
X122248388Y-130022957D01*
X122450557Y-130088646D01*
X122660513Y-130121900D01*
X122660514Y-130121900D01*
X122873086Y-130121900D01*
X122873087Y-130121900D01*
X123083043Y-130088646D01*
X123285212Y-130022957D01*
X123474616Y-129926451D01*
X123559548Y-129864745D01*
X123646586Y-129801509D01*
X123646588Y-129801506D01*
X123646592Y-129801504D01*
X123796904Y-129651192D01*
X123796906Y-129651188D01*
X123796909Y-129651186D01*
X123921848Y-129479220D01*
X123921847Y-129479220D01*
X123921851Y-129479216D01*
X124018357Y-129289812D01*
X124084046Y-129087643D01*
X124117300Y-128877687D01*
X124117300Y-128415113D01*
X124114336Y-128396400D01*
X140776500Y-128396400D01*
X141693488Y-128396400D01*
X141660575Y-128453407D01*
X141626500Y-128580574D01*
X141626500Y-128712226D01*
X141660575Y-128839393D01*
X141693488Y-128896400D01*
X140776501Y-128896400D01*
X140776501Y-129446386D01*
X140786994Y-129549097D01*
X140842141Y-129715519D01*
X140842143Y-129715524D01*
X140934184Y-129864745D01*
X141058154Y-129988715D01*
X141207375Y-130080756D01*
X141207380Y-130080758D01*
X141373802Y-130135905D01*
X141373809Y-130135906D01*
X141476519Y-130146399D01*
X141876499Y-130146399D01*
X141876500Y-130146398D01*
X141876500Y-129079412D01*
X141933507Y-129112325D01*
X142060674Y-129146400D01*
X142192326Y-129146400D01*
X142319493Y-129112325D01*
X142376500Y-129079412D01*
X142376500Y-130146399D01*
X142776472Y-130146399D01*
X142776486Y-130146398D01*
X142879197Y-130135905D01*
X143045619Y-130080758D01*
X143045624Y-130080756D01*
X143194845Y-129988715D01*
X143318817Y-129864743D01*
X143414315Y-129709916D01*
X143466263Y-129663191D01*
X143535225Y-129651968D01*
X143599308Y-129679812D01*
X143607535Y-129687331D01*
X143746713Y-129826509D01*
X143918679Y-129951448D01*
X143918681Y-129951449D01*
X143918684Y-129951451D01*
X144108088Y-130047957D01*
X144310257Y-130113646D01*
X144520213Y-130146900D01*
X144520214Y-130146900D01*
X144732786Y-130146900D01*
X144732787Y-130146900D01*
X144942743Y-130113646D01*
X145144912Y-130047957D01*
X145334316Y-129951451D01*
X145442026Y-129873196D01*
X145506286Y-129826509D01*
X145506288Y-129826506D01*
X145506292Y-129826504D01*
X145656604Y-129676192D01*
X145656606Y-129676188D01*
X145656609Y-129676186D01*
X145781548Y-129504220D01*
X145781547Y-129504220D01*
X145781551Y-129504216D01*
X145878057Y-129314812D01*
X145943746Y-129112643D01*
X145977000Y-128902687D01*
X145977000Y-128804101D01*
X149668719Y-128804101D01*
X149688618Y-129082323D01*
X149688619Y-129082330D01*
X149747907Y-129354874D01*
X149845389Y-129616234D01*
X149979061Y-129861038D01*
X150079302Y-129994943D01*
X150580020Y-129494225D01*
X150670254Y-129618420D01*
X150809380Y-129757546D01*
X150933573Y-129847778D01*
X150432855Y-130348496D01*
X150566761Y-130448737D01*
X150566761Y-130448738D01*
X150811565Y-130582410D01*
X151072925Y-130679892D01*
X151345469Y-130739180D01*
X151345476Y-130739181D01*
X151623699Y-130759081D01*
X151623701Y-130759081D01*
X151901923Y-130739181D01*
X151901930Y-130739180D01*
X152174474Y-130679892D01*
X152435834Y-130582410D01*
X152680642Y-130448735D01*
X152814542Y-130348496D01*
X152814543Y-130348496D01*
X152313826Y-129847778D01*
X152438020Y-129757546D01*
X152577146Y-129618420D01*
X152667379Y-129494226D01*
X153168096Y-129994943D01*
X153168096Y-129994942D01*
X153268335Y-129861042D01*
X153402010Y-129616234D01*
X153499492Y-129354874D01*
X153558780Y-129082330D01*
X153558781Y-129082323D01*
X153578681Y-128804101D01*
X153578681Y-128804098D01*
X153558781Y-128525876D01*
X153558780Y-128525869D01*
X153499492Y-128253325D01*
X153402010Y-127991965D01*
X153268338Y-127747161D01*
X153168096Y-127613255D01*
X152667378Y-128113973D01*
X152577146Y-127989780D01*
X152438020Y-127850654D01*
X152313825Y-127760420D01*
X152814543Y-127259702D01*
X152680638Y-127159462D01*
X152680638Y-127159461D01*
X152435834Y-127025789D01*
X152174474Y-126928307D01*
X151901930Y-126869019D01*
X151901923Y-126869018D01*
X151623701Y-126849119D01*
X151623699Y-126849119D01*
X151345476Y-126869018D01*
X151345469Y-126869019D01*
X151072925Y-126928307D01*
X150811565Y-127025789D01*
X150566761Y-127159461D01*
X150566754Y-127159466D01*
X150432856Y-127259701D01*
X150432855Y-127259702D01*
X150933574Y-127760420D01*
X150809380Y-127850654D01*
X150670254Y-127989780D01*
X150580020Y-128113973D01*
X150079302Y-127613255D01*
X150079301Y-127613256D01*
X149979066Y-127747154D01*
X149979061Y-127747161D01*
X149845389Y-127991965D01*
X149747907Y-128253325D01*
X149688619Y-128525869D01*
X149688618Y-128525876D01*
X149668719Y-128804098D01*
X149668719Y-128804101D01*
X145977000Y-128804101D01*
X145977000Y-128390113D01*
X145943746Y-128180157D01*
X145878057Y-127977988D01*
X145781551Y-127788584D01*
X145781549Y-127788581D01*
X145781548Y-127788579D01*
X145656609Y-127616613D01*
X145506286Y-127466290D01*
X145334320Y-127341351D01*
X145144914Y-127244844D01*
X145144913Y-127244843D01*
X145144912Y-127244843D01*
X144942743Y-127179154D01*
X144942741Y-127179153D01*
X144942740Y-127179153D01*
X144781457Y-127153608D01*
X144732787Y-127145900D01*
X144520213Y-127145900D01*
X144471542Y-127153608D01*
X144310260Y-127179153D01*
X144108085Y-127244844D01*
X143918679Y-127341351D01*
X143746715Y-127466289D01*
X143607535Y-127605469D01*
X143546212Y-127638953D01*
X143476520Y-127633969D01*
X143420587Y-127592097D01*
X143414315Y-127582884D01*
X143318815Y-127428054D01*
X143194845Y-127304084D01*
X143045624Y-127212043D01*
X143045619Y-127212041D01*
X142879197Y-127156894D01*
X142879190Y-127156893D01*
X142776486Y-127146400D01*
X142376500Y-127146400D01*
X142376500Y-128213388D01*
X142319493Y-128180475D01*
X142192326Y-128146400D01*
X142060674Y-128146400D01*
X141933507Y-128180475D01*
X141876500Y-128213388D01*
X141876500Y-127146400D01*
X141476528Y-127146400D01*
X141476512Y-127146401D01*
X141373802Y-127156894D01*
X141207380Y-127212041D01*
X141207375Y-127212043D01*
X141058154Y-127304084D01*
X140934184Y-127428054D01*
X140842143Y-127577275D01*
X140842141Y-127577280D01*
X140786994Y-127743702D01*
X140786993Y-127743709D01*
X140776500Y-127846413D01*
X140776500Y-128396400D01*
X124114336Y-128396400D01*
X124084046Y-128205157D01*
X124018357Y-128002988D01*
X123921851Y-127813584D01*
X123921849Y-127813581D01*
X123921848Y-127813579D01*
X123796909Y-127641613D01*
X123646586Y-127491290D01*
X123474620Y-127366351D01*
X123285214Y-127269844D01*
X123285213Y-127269843D01*
X123285212Y-127269843D01*
X123083043Y-127204154D01*
X123083041Y-127204153D01*
X123083040Y-127204153D01*
X122921757Y-127178608D01*
X122873087Y-127170900D01*
X122660513Y-127170900D01*
X122611842Y-127178608D01*
X122450560Y-127204153D01*
X122248385Y-127269844D01*
X122058979Y-127366351D01*
X121887013Y-127491290D01*
X121736694Y-127641609D01*
X121736690Y-127641614D01*
X121617118Y-127806193D01*
X121561789Y-127848859D01*
X121492175Y-127854838D01*
X121430380Y-127822233D01*
X121416482Y-127806193D01*
X121296909Y-127641614D01*
X121296905Y-127641609D01*
X121146586Y-127491290D01*
X120974620Y-127366351D01*
X120785214Y-127269844D01*
X120785213Y-127269843D01*
X120785212Y-127269843D01*
X120583043Y-127204154D01*
X120583041Y-127204153D01*
X120583040Y-127204153D01*
X120421757Y-127178608D01*
X120373087Y-127170900D01*
X120160513Y-127170900D01*
X120111842Y-127178608D01*
X119950560Y-127204153D01*
X119748385Y-127269844D01*
X119558979Y-127366351D01*
X119387015Y-127491289D01*
X119248198Y-127630106D01*
X119186875Y-127663590D01*
X119117183Y-127658606D01*
X119061250Y-127616734D01*
X119054978Y-127607520D01*
X119039782Y-127582884D01*
X118959512Y-127452744D01*
X118835456Y-127328688D01*
X118723610Y-127259701D01*
X118686136Y-127236587D01*
X118686131Y-127236585D01*
X118684662Y-127236098D01*
X118519597Y-127181401D01*
X118519595Y-127181400D01*
X118416810Y-127170900D01*
X117116798Y-127170900D01*
X117116781Y-127170901D01*
X117014003Y-127181400D01*
X117014000Y-127181401D01*
X116847468Y-127236585D01*
X116847463Y-127236587D01*
X116698142Y-127328689D01*
X116574089Y-127452742D01*
X116481987Y-127602063D01*
X116481985Y-127602068D01*
X116477125Y-127616734D01*
X116426801Y-127768603D01*
X116426801Y-127768604D01*
X116426800Y-127768604D01*
X116416300Y-127871383D01*
X116416300Y-129421401D01*
X111821209Y-129421401D01*
X111888257Y-129289812D01*
X111953946Y-129087643D01*
X111987200Y-128877687D01*
X111987200Y-128415113D01*
X111953946Y-128205157D01*
X111888257Y-128002988D01*
X111791751Y-127813584D01*
X111791749Y-127813581D01*
X111791748Y-127813579D01*
X111666809Y-127641613D01*
X111516486Y-127491290D01*
X111344520Y-127366351D01*
X111155114Y-127269844D01*
X111155113Y-127269843D01*
X111155112Y-127269843D01*
X110952943Y-127204154D01*
X110952941Y-127204153D01*
X110952940Y-127204153D01*
X110791657Y-127178608D01*
X110742987Y-127170900D01*
X110530413Y-127170900D01*
X110481742Y-127178608D01*
X110320460Y-127204153D01*
X110118285Y-127269844D01*
X109928879Y-127366351D01*
X109756913Y-127491290D01*
X109606594Y-127641609D01*
X109606590Y-127641614D01*
X109487018Y-127806193D01*
X109431689Y-127848859D01*
X109362075Y-127854838D01*
X109300280Y-127822233D01*
X109286382Y-127806193D01*
X109166809Y-127641614D01*
X109166805Y-127641609D01*
X109016486Y-127491290D01*
X108844520Y-127366351D01*
X108655114Y-127269844D01*
X108655113Y-127269843D01*
X108655112Y-127269843D01*
X108452943Y-127204154D01*
X108452941Y-127204153D01*
X108452940Y-127204153D01*
X108291657Y-127178608D01*
X108242987Y-127170900D01*
X108030413Y-127170900D01*
X107981742Y-127178608D01*
X107820460Y-127204153D01*
X107618285Y-127269844D01*
X107428879Y-127366351D01*
X107256915Y-127491289D01*
X107117735Y-127630469D01*
X107056412Y-127663953D01*
X106986720Y-127658969D01*
X106930787Y-127617097D01*
X106924515Y-127607884D01*
X106829015Y-127453054D01*
X106705045Y-127329084D01*
X106555824Y-127237043D01*
X106555819Y-127237041D01*
X106389397Y-127181894D01*
X106389390Y-127181893D01*
X106286686Y-127171400D01*
X105886700Y-127171400D01*
X105886700Y-128242254D01*
X105820043Y-128203770D01*
X105699235Y-128171400D01*
X105574165Y-128171400D01*
X105453357Y-128203770D01*
X105386700Y-128242254D01*
X105386700Y-127171400D01*
X104986728Y-127171400D01*
X104986712Y-127171401D01*
X104884002Y-127181894D01*
X104717580Y-127237041D01*
X104717575Y-127237043D01*
X104568354Y-127329084D01*
X104444384Y-127453054D01*
X104352343Y-127602275D01*
X104352341Y-127602280D01*
X104297194Y-127768702D01*
X104297193Y-127768709D01*
X104286700Y-127871413D01*
X104286700Y-128396400D01*
X100771716Y-128396400D01*
X100740592Y-128253325D01*
X100643110Y-127991965D01*
X100509438Y-127747161D01*
X100409196Y-127613255D01*
X99908478Y-128113973D01*
X99818246Y-127989780D01*
X99679120Y-127850654D01*
X99554925Y-127760420D01*
X100055643Y-127259702D01*
X99921738Y-127159462D01*
X99921738Y-127159461D01*
X99676934Y-127025789D01*
X99415574Y-126928307D01*
X99143030Y-126869019D01*
X99143023Y-126869018D01*
X98864801Y-126849119D01*
X98864799Y-126849119D01*
X98586576Y-126869018D01*
X98586569Y-126869019D01*
X98314025Y-126928307D01*
X98052665Y-127025789D01*
X97807861Y-127159461D01*
X97807854Y-127159466D01*
X97673956Y-127259701D01*
X97673955Y-127259702D01*
X98174674Y-127760420D01*
X98050480Y-127850654D01*
X97911354Y-127989780D01*
X97821120Y-128113973D01*
X97320402Y-127613255D01*
X97320401Y-127613256D01*
X97220166Y-127747154D01*
X97220161Y-127747161D01*
X97086489Y-127991965D01*
X96989007Y-128253325D01*
X96929719Y-128525869D01*
X96929718Y-128525876D01*
X96909819Y-128804098D01*
X96909819Y-128804101D01*
X95940000Y-128804101D01*
X95940000Y-124824002D01*
X101462751Y-124824002D01*
X101481685Y-124992056D01*
X101537545Y-125151694D01*
X101537547Y-125151697D01*
X101627518Y-125294884D01*
X101627523Y-125294890D01*
X101747109Y-125414476D01*
X101747115Y-125414481D01*
X101890302Y-125504452D01*
X101890305Y-125504454D01*
X101890309Y-125504455D01*
X101890310Y-125504456D01*
X101962913Y-125529860D01*
X102049943Y-125560314D01*
X102217997Y-125579249D01*
X102218000Y-125579249D01*
X102218003Y-125579249D01*
X102386056Y-125560314D01*
X102386059Y-125560313D01*
X102545690Y-125504456D01*
X102545692Y-125504454D01*
X102545694Y-125504454D01*
X102545697Y-125504452D01*
X102688884Y-125414481D01*
X102688885Y-125414480D01*
X102688890Y-125414477D01*
X102808477Y-125294890D01*
X102898452Y-125151697D01*
X102898454Y-125151694D01*
X102898454Y-125151692D01*
X102898456Y-125151690D01*
X102954313Y-124992059D01*
X102954313Y-124992058D01*
X102954314Y-124992056D01*
X102973249Y-124824002D01*
X102973249Y-124823997D01*
X102954314Y-124655943D01*
X102898454Y-124496305D01*
X102898452Y-124496302D01*
X102808481Y-124353115D01*
X102808476Y-124353109D01*
X102688890Y-124233523D01*
X102688884Y-124233518D01*
X102545697Y-124143547D01*
X102545694Y-124143545D01*
X102386056Y-124087685D01*
X102218003Y-124068751D01*
X102217997Y-124068751D01*
X102049943Y-124087685D01*
X101890305Y-124143545D01*
X101890302Y-124143547D01*
X101747115Y-124233518D01*
X101747109Y-124233523D01*
X101627523Y-124353109D01*
X101627518Y-124353115D01*
X101537547Y-124496302D01*
X101537545Y-124496305D01*
X101481685Y-124655943D01*
X101462751Y-124823997D01*
X101462751Y-124824002D01*
X95940000Y-124824002D01*
X95940000Y-122754602D01*
X111250551Y-122754602D01*
X111269485Y-122922656D01*
X111325345Y-123082294D01*
X111325347Y-123082297D01*
X111415318Y-123225484D01*
X111415323Y-123225490D01*
X111534909Y-123345076D01*
X111534915Y-123345081D01*
X111678102Y-123435052D01*
X111678105Y-123435054D01*
X111678109Y-123435055D01*
X111678110Y-123435056D01*
X111750713Y-123460460D01*
X111837743Y-123490914D01*
X112005797Y-123509849D01*
X112005800Y-123509849D01*
X112005803Y-123509849D01*
X112173856Y-123490914D01*
X112173859Y-123490913D01*
X112333490Y-123435056D01*
X112333492Y-123435054D01*
X112333494Y-123435054D01*
X112333497Y-123435052D01*
X112476684Y-123345081D01*
X112476685Y-123345080D01*
X112476690Y-123345077D01*
X112596277Y-123225490D01*
X112686252Y-123082297D01*
X112686254Y-123082294D01*
X112686254Y-123082292D01*
X112686256Y-123082290D01*
X112742113Y-122922659D01*
X112742113Y-122922658D01*
X112742114Y-122922656D01*
X112761049Y-122754602D01*
X112761049Y-122754597D01*
X112742114Y-122586543D01*
X112686254Y-122426905D01*
X112686252Y-122426902D01*
X112596281Y-122283715D01*
X112596276Y-122283709D01*
X112476690Y-122164123D01*
X112476684Y-122164118D01*
X112333497Y-122074147D01*
X112333494Y-122074145D01*
X112173856Y-122018285D01*
X112005803Y-121999351D01*
X112005797Y-121999351D01*
X111837743Y-122018285D01*
X111678105Y-122074145D01*
X111678102Y-122074147D01*
X111534915Y-122164118D01*
X111534909Y-122164123D01*
X111415323Y-122283709D01*
X111415318Y-122283715D01*
X111325347Y-122426902D01*
X111325345Y-122426905D01*
X111269485Y-122586543D01*
X111250551Y-122754597D01*
X111250551Y-122754602D01*
X95940000Y-122754602D01*
X95940000Y-120666487D01*
X97731400Y-120666487D01*
X97764654Y-120876443D01*
X97811949Y-121022002D01*
X97830344Y-121078614D01*
X97926851Y-121268020D01*
X98051790Y-121439986D01*
X98202113Y-121590309D01*
X98374079Y-121715248D01*
X98374081Y-121715249D01*
X98374084Y-121715251D01*
X98563488Y-121811757D01*
X98765657Y-121877446D01*
X98975613Y-121910700D01*
X98975614Y-121910700D01*
X99488186Y-121910700D01*
X99488187Y-121910700D01*
X99698143Y-121877446D01*
X99900312Y-121811757D01*
X100089716Y-121715251D01*
X100126342Y-121688641D01*
X100261686Y-121590309D01*
X100261688Y-121590306D01*
X100261692Y-121590304D01*
X100412004Y-121439992D01*
X100412006Y-121439988D01*
X100412009Y-121439986D01*
X100536948Y-121268020D01*
X100536947Y-121268020D01*
X100536951Y-121268016D01*
X100573440Y-121196402D01*
X106244551Y-121196402D01*
X106263485Y-121364456D01*
X106319345Y-121524094D01*
X106319347Y-121524097D01*
X106409318Y-121667284D01*
X106409323Y-121667290D01*
X106528909Y-121786876D01*
X106528915Y-121786881D01*
X106672102Y-121876852D01*
X106672105Y-121876854D01*
X106672109Y-121876855D01*
X106672110Y-121876856D01*
X106744713Y-121902260D01*
X106831743Y-121932714D01*
X106999797Y-121951649D01*
X106999800Y-121951649D01*
X106999803Y-121951649D01*
X107167856Y-121932714D01*
X107167859Y-121932713D01*
X107327490Y-121876856D01*
X107327492Y-121876854D01*
X107327494Y-121876854D01*
X107327497Y-121876852D01*
X107470684Y-121786881D01*
X107470685Y-121786880D01*
X107470690Y-121786877D01*
X107590277Y-121667290D01*
X107624716Y-121612481D01*
X107680252Y-121524097D01*
X107680254Y-121524094D01*
X107680254Y-121524092D01*
X107680256Y-121524090D01*
X107736113Y-121364459D01*
X107736113Y-121364458D01*
X107736114Y-121364456D01*
X107755049Y-121196402D01*
X107755049Y-121196397D01*
X107744526Y-121103002D01*
X115948751Y-121103002D01*
X115967685Y-121271056D01*
X116023545Y-121430694D01*
X116023547Y-121430697D01*
X116113518Y-121573884D01*
X116113523Y-121573890D01*
X116233109Y-121693476D01*
X116233115Y-121693481D01*
X116376302Y-121783452D01*
X116376305Y-121783454D01*
X116376309Y-121783455D01*
X116376310Y-121783456D01*
X116448913Y-121808860D01*
X116535943Y-121839314D01*
X116703997Y-121858249D01*
X116704000Y-121858249D01*
X116704003Y-121858249D01*
X116717733Y-121856702D01*
X140559351Y-121856702D01*
X140578285Y-122024756D01*
X140634145Y-122184394D01*
X140634147Y-122184397D01*
X140724118Y-122327584D01*
X140724123Y-122327590D01*
X140843709Y-122447176D01*
X140843715Y-122447181D01*
X140986902Y-122537152D01*
X140986905Y-122537154D01*
X140986909Y-122537155D01*
X140986910Y-122537156D01*
X141059513Y-122562560D01*
X141146543Y-122593014D01*
X141314597Y-122611949D01*
X141314600Y-122611949D01*
X141314603Y-122611949D01*
X141482656Y-122593014D01*
X141501155Y-122586541D01*
X141642290Y-122537156D01*
X141642292Y-122537154D01*
X141642294Y-122537154D01*
X141642297Y-122537152D01*
X141785484Y-122447181D01*
X141785485Y-122447180D01*
X141785490Y-122447177D01*
X141905077Y-122327590D01*
X141932649Y-122283710D01*
X141995052Y-122184397D01*
X141995054Y-122184394D01*
X141995054Y-122184392D01*
X141995056Y-122184390D01*
X142050913Y-122024759D01*
X142050913Y-122024758D01*
X142050914Y-122024756D01*
X142069849Y-121856702D01*
X142069849Y-121856697D01*
X142050914Y-121688643D01*
X142046141Y-121675002D01*
X144254851Y-121675002D01*
X144273785Y-121843056D01*
X144329645Y-122002694D01*
X144329647Y-122002697D01*
X144419618Y-122145884D01*
X144419623Y-122145890D01*
X144539209Y-122265476D01*
X144539215Y-122265481D01*
X144682402Y-122355452D01*
X144682405Y-122355454D01*
X144682409Y-122355455D01*
X144682410Y-122355456D01*
X144755013Y-122380860D01*
X144842043Y-122411314D01*
X145010097Y-122430249D01*
X145010100Y-122430249D01*
X145010103Y-122430249D01*
X145178156Y-122411314D01*
X145178159Y-122411313D01*
X145337790Y-122355456D01*
X145337792Y-122355454D01*
X145337794Y-122355454D01*
X145337797Y-122355452D01*
X145480984Y-122265481D01*
X145480985Y-122265480D01*
X145480990Y-122265477D01*
X145600577Y-122145890D01*
X145600581Y-122145884D01*
X145690552Y-122002697D01*
X145690554Y-122002694D01*
X145690554Y-122002692D01*
X145690556Y-122002690D01*
X145746413Y-121843059D01*
X145746413Y-121843058D01*
X145746414Y-121843056D01*
X145765349Y-121675002D01*
X145765349Y-121674997D01*
X145746414Y-121506943D01*
X145704027Y-121385809D01*
X145690556Y-121347310D01*
X145690555Y-121347309D01*
X145690554Y-121347305D01*
X145690552Y-121347302D01*
X145600581Y-121204115D01*
X145600576Y-121204109D01*
X145480990Y-121084523D01*
X145480984Y-121084518D01*
X145381491Y-121022002D01*
X146957751Y-121022002D01*
X146976685Y-121190056D01*
X147032545Y-121349694D01*
X147032547Y-121349697D01*
X147122518Y-121492884D01*
X147122523Y-121492890D01*
X147242109Y-121612476D01*
X147242115Y-121612481D01*
X147385302Y-121702452D01*
X147385305Y-121702454D01*
X147385309Y-121702455D01*
X147385310Y-121702456D01*
X147457913Y-121727860D01*
X147544943Y-121758314D01*
X147712997Y-121777249D01*
X147713000Y-121777249D01*
X147713003Y-121777249D01*
X147881056Y-121758314D01*
X147881059Y-121758313D01*
X148040690Y-121702456D01*
X148040692Y-121702454D01*
X148040694Y-121702454D01*
X148040697Y-121702452D01*
X148183884Y-121612481D01*
X148183885Y-121612480D01*
X148183890Y-121612477D01*
X148303477Y-121492890D01*
X148365040Y-121394914D01*
X148393452Y-121349697D01*
X148393454Y-121349694D01*
X148393454Y-121349692D01*
X148393456Y-121349690D01*
X148449313Y-121190059D01*
X148449313Y-121190058D01*
X148449314Y-121190056D01*
X148468249Y-121022002D01*
X148468249Y-121021997D01*
X148449314Y-120853943D01*
X148393454Y-120694305D01*
X148393452Y-120694302D01*
X148303481Y-120551115D01*
X148303476Y-120551109D01*
X148183890Y-120431523D01*
X148183884Y-120431518D01*
X148040697Y-120341547D01*
X148040694Y-120341545D01*
X147881056Y-120285685D01*
X147713003Y-120266751D01*
X147712997Y-120266751D01*
X147544943Y-120285685D01*
X147385305Y-120341545D01*
X147385302Y-120341547D01*
X147242115Y-120431518D01*
X147242109Y-120431523D01*
X147122523Y-120551109D01*
X147122518Y-120551115D01*
X147032547Y-120694302D01*
X147032545Y-120694305D01*
X146976685Y-120853943D01*
X146957751Y-121021997D01*
X146957751Y-121022002D01*
X145381491Y-121022002D01*
X145337797Y-120994547D01*
X145337794Y-120994545D01*
X145178156Y-120938685D01*
X145010103Y-120919751D01*
X145010097Y-120919751D01*
X144842043Y-120938685D01*
X144682405Y-120994545D01*
X144682402Y-120994547D01*
X144539215Y-121084518D01*
X144539209Y-121084523D01*
X144419623Y-121204109D01*
X144419618Y-121204115D01*
X144329647Y-121347302D01*
X144329645Y-121347305D01*
X144273785Y-121506943D01*
X144254851Y-121674997D01*
X144254851Y-121675002D01*
X142046141Y-121675002D01*
X141995054Y-121529005D01*
X141995052Y-121529002D01*
X141905081Y-121385815D01*
X141905076Y-121385809D01*
X141785490Y-121266223D01*
X141785484Y-121266218D01*
X141642297Y-121176247D01*
X141642294Y-121176245D01*
X141482656Y-121120385D01*
X141314603Y-121101451D01*
X141314597Y-121101451D01*
X141146543Y-121120385D01*
X140986905Y-121176245D01*
X140986902Y-121176247D01*
X140843715Y-121266218D01*
X140843709Y-121266223D01*
X140724123Y-121385809D01*
X140724118Y-121385815D01*
X140634147Y-121529002D01*
X140634145Y-121529005D01*
X140578285Y-121688643D01*
X140559351Y-121856697D01*
X140559351Y-121856702D01*
X116717733Y-121856702D01*
X116872056Y-121839314D01*
X116872059Y-121839313D01*
X117031690Y-121783456D01*
X117031692Y-121783454D01*
X117031694Y-121783454D01*
X117031697Y-121783452D01*
X117174884Y-121693481D01*
X117174885Y-121693480D01*
X117174890Y-121693477D01*
X117294477Y-121573890D01*
X117322677Y-121529010D01*
X117384452Y-121430697D01*
X117384454Y-121430694D01*
X117384454Y-121430692D01*
X117384456Y-121430690D01*
X117440313Y-121271059D01*
X117440313Y-121271058D01*
X117440314Y-121271056D01*
X117459249Y-121103002D01*
X117459249Y-121102997D01*
X117440314Y-120934943D01*
X117384454Y-120775305D01*
X117384452Y-120775302D01*
X117311124Y-120658602D01*
X120040251Y-120658602D01*
X120059185Y-120826656D01*
X120115045Y-120986294D01*
X120115047Y-120986297D01*
X120205018Y-121129484D01*
X120205023Y-121129490D01*
X120324609Y-121249076D01*
X120324615Y-121249081D01*
X120467802Y-121339052D01*
X120467805Y-121339054D01*
X120467809Y-121339055D01*
X120467810Y-121339056D01*
X120540399Y-121364456D01*
X120627443Y-121394914D01*
X120795497Y-121413849D01*
X120795500Y-121413849D01*
X120795503Y-121413849D01*
X120963556Y-121394914D01*
X120963559Y-121394913D01*
X121123190Y-121339056D01*
X121123192Y-121339054D01*
X121123194Y-121339054D01*
X121123197Y-121339052D01*
X121266384Y-121249081D01*
X121266385Y-121249080D01*
X121266390Y-121249077D01*
X121385977Y-121129490D01*
X121417946Y-121078612D01*
X121475952Y-120986297D01*
X121475954Y-120986294D01*
X121475954Y-120986292D01*
X121475956Y-120986290D01*
X121531813Y-120826659D01*
X121531813Y-120826658D01*
X121531814Y-120826656D01*
X121550749Y-120658602D01*
X121550749Y-120658597D01*
X121531814Y-120490543D01*
X121475954Y-120330905D01*
X121475952Y-120330902D01*
X121385981Y-120187715D01*
X121385976Y-120187709D01*
X121266390Y-120068123D01*
X121266384Y-120068118D01*
X121123197Y-119978147D01*
X121123194Y-119978145D01*
X120963556Y-119922285D01*
X120795503Y-119903351D01*
X120795497Y-119903351D01*
X120627443Y-119922285D01*
X120467805Y-119978145D01*
X120467802Y-119978147D01*
X120324615Y-120068118D01*
X120324609Y-120068123D01*
X120205023Y-120187709D01*
X120205018Y-120187715D01*
X120115047Y-120330902D01*
X120115045Y-120330905D01*
X120059185Y-120490543D01*
X120040251Y-120658597D01*
X120040251Y-120658602D01*
X117311124Y-120658602D01*
X117294481Y-120632115D01*
X117294476Y-120632109D01*
X117174890Y-120512523D01*
X117174884Y-120512518D01*
X117031697Y-120422547D01*
X117031694Y-120422545D01*
X116872056Y-120366685D01*
X116704003Y-120347751D01*
X116703997Y-120347751D01*
X116535943Y-120366685D01*
X116376305Y-120422545D01*
X116376302Y-120422547D01*
X116233115Y-120512518D01*
X116233109Y-120512523D01*
X116113523Y-120632109D01*
X116113518Y-120632115D01*
X116023547Y-120775302D01*
X116023545Y-120775305D01*
X115967685Y-120934943D01*
X115948751Y-121102997D01*
X115948751Y-121103002D01*
X107744526Y-121103002D01*
X107736114Y-121028343D01*
X107680254Y-120868705D01*
X107680252Y-120868702D01*
X107590281Y-120725515D01*
X107590276Y-120725509D01*
X107526148Y-120661381D01*
X107492663Y-120600058D01*
X107497647Y-120530366D01*
X107526148Y-120486019D01*
X107590277Y-120421890D01*
X107640760Y-120341547D01*
X107680252Y-120278697D01*
X107680254Y-120278694D01*
X107680254Y-120278692D01*
X107680256Y-120278690D01*
X107736113Y-120119059D01*
X107736113Y-120119058D01*
X107736114Y-120119056D01*
X107755049Y-119951002D01*
X107755049Y-119950997D01*
X107736114Y-119782943D01*
X107680254Y-119623305D01*
X107680252Y-119623302D01*
X107590281Y-119480115D01*
X107590276Y-119480109D01*
X107470690Y-119360523D01*
X107470684Y-119360518D01*
X107327497Y-119270547D01*
X107327494Y-119270545D01*
X107167856Y-119214685D01*
X106999803Y-119195751D01*
X106999797Y-119195751D01*
X106831743Y-119214685D01*
X106672105Y-119270545D01*
X106672102Y-119270547D01*
X106528915Y-119360518D01*
X106528909Y-119360523D01*
X106409323Y-119480109D01*
X106409318Y-119480115D01*
X106319347Y-119623302D01*
X106319345Y-119623305D01*
X106263485Y-119782943D01*
X106244551Y-119950997D01*
X106244551Y-119951002D01*
X106263485Y-120119056D01*
X106319345Y-120278694D01*
X106319347Y-120278697D01*
X106409318Y-120421884D01*
X106409323Y-120421890D01*
X106473452Y-120486019D01*
X106506937Y-120547342D01*
X106501953Y-120617034D01*
X106473452Y-120661381D01*
X106409323Y-120725509D01*
X106409318Y-120725515D01*
X106319347Y-120868702D01*
X106319345Y-120868705D01*
X106263485Y-121028343D01*
X106244551Y-121196397D01*
X106244551Y-121196402D01*
X100573440Y-121196402D01*
X100633457Y-121078612D01*
X100699146Y-120876443D01*
X100732400Y-120666487D01*
X100732400Y-120453913D01*
X100699146Y-120243957D01*
X100633457Y-120041788D01*
X100536951Y-119852384D01*
X100536949Y-119852381D01*
X100536948Y-119852379D01*
X100412009Y-119680413D01*
X100272831Y-119541235D01*
X100239346Y-119479912D01*
X100244330Y-119410220D01*
X100286202Y-119354287D01*
X100295416Y-119348015D01*
X100450243Y-119252517D01*
X100574215Y-119128545D01*
X100579361Y-119120202D01*
X110987551Y-119120202D01*
X111006485Y-119288256D01*
X111062345Y-119447894D01*
X111062347Y-119447897D01*
X111152318Y-119591084D01*
X111152323Y-119591090D01*
X111271909Y-119710676D01*
X111271915Y-119710681D01*
X111415102Y-119800652D01*
X111415105Y-119800654D01*
X111415109Y-119800655D01*
X111415110Y-119800656D01*
X111487713Y-119826060D01*
X111574743Y-119856514D01*
X111742797Y-119875449D01*
X111742800Y-119875449D01*
X111742803Y-119875449D01*
X111910856Y-119856514D01*
X111922673Y-119852379D01*
X112070490Y-119800656D01*
X112070492Y-119800654D01*
X112070494Y-119800654D01*
X112070497Y-119800652D01*
X112213684Y-119710681D01*
X112213685Y-119710680D01*
X112213690Y-119710677D01*
X112333277Y-119591090D01*
X112369773Y-119533008D01*
X112423252Y-119447897D01*
X112423254Y-119447894D01*
X112423254Y-119447892D01*
X112423256Y-119447890D01*
X112479113Y-119288259D01*
X112479113Y-119288258D01*
X112479114Y-119288256D01*
X112498049Y-119120202D01*
X112498049Y-119120197D01*
X112479114Y-118952143D01*
X112423254Y-118792505D01*
X112423252Y-118792502D01*
X112382095Y-118727002D01*
X119689751Y-118727002D01*
X119708685Y-118895056D01*
X119764545Y-119054694D01*
X119764547Y-119054697D01*
X119854518Y-119197884D01*
X119854523Y-119197890D01*
X119974109Y-119317476D01*
X119974115Y-119317481D01*
X120117302Y-119407452D01*
X120117305Y-119407454D01*
X120117309Y-119407455D01*
X120117310Y-119407456D01*
X120179774Y-119429313D01*
X120276943Y-119463314D01*
X120444997Y-119482249D01*
X120445000Y-119482249D01*
X120445003Y-119482249D01*
X120613056Y-119463314D01*
X120613059Y-119463313D01*
X120772690Y-119407456D01*
X120772692Y-119407454D01*
X120772694Y-119407454D01*
X120772697Y-119407452D01*
X120915884Y-119317481D01*
X120915885Y-119317480D01*
X120915890Y-119317477D01*
X121035477Y-119197890D01*
X121056841Y-119163890D01*
X121125452Y-119054697D01*
X121125454Y-119054694D01*
X121125454Y-119054692D01*
X121125456Y-119054690D01*
X121181313Y-118895059D01*
X121181313Y-118895058D01*
X121181314Y-118895056D01*
X121200249Y-118727002D01*
X121200249Y-118726997D01*
X121196419Y-118693002D01*
X128841751Y-118693002D01*
X128860685Y-118861056D01*
X128916545Y-119020694D01*
X128916547Y-119020697D01*
X129006518Y-119163884D01*
X129006523Y-119163890D01*
X129126109Y-119283476D01*
X129126115Y-119283481D01*
X129269302Y-119373452D01*
X129269305Y-119373454D01*
X129269309Y-119373455D01*
X129269310Y-119373456D01*
X129341913Y-119398860D01*
X129428943Y-119429314D01*
X129596997Y-119448249D01*
X129597000Y-119448249D01*
X129597003Y-119448249D01*
X129765056Y-119429314D01*
X129765059Y-119429313D01*
X129924690Y-119373456D01*
X129924692Y-119373454D01*
X129924694Y-119373454D01*
X129924697Y-119373452D01*
X130067884Y-119283481D01*
X130067885Y-119283480D01*
X130067890Y-119283477D01*
X130078765Y-119272602D01*
X147106751Y-119272602D01*
X147125685Y-119440656D01*
X147181545Y-119600294D01*
X147181547Y-119600297D01*
X147271518Y-119743484D01*
X147271523Y-119743490D01*
X147391109Y-119863076D01*
X147391115Y-119863081D01*
X147534302Y-119953052D01*
X147534305Y-119953054D01*
X147534309Y-119953055D01*
X147534310Y-119953056D01*
X147606008Y-119978144D01*
X147693943Y-120008914D01*
X147861997Y-120027849D01*
X147862000Y-120027849D01*
X147862003Y-120027849D01*
X148030056Y-120008914D01*
X148030059Y-120008913D01*
X148189690Y-119953056D01*
X148189692Y-119953054D01*
X148189694Y-119953054D01*
X148189697Y-119953052D01*
X148332884Y-119863081D01*
X148332885Y-119863080D01*
X148332890Y-119863077D01*
X148452477Y-119743490D01*
X148452481Y-119743484D01*
X148542452Y-119600297D01*
X148542454Y-119600294D01*
X148542454Y-119600292D01*
X148542456Y-119600290D01*
X148598313Y-119440659D01*
X148598313Y-119440658D01*
X148598314Y-119440656D01*
X148617249Y-119272602D01*
X148617249Y-119272597D01*
X148598314Y-119104543D01*
X148542454Y-118944905D01*
X148542452Y-118944902D01*
X148452481Y-118801715D01*
X148452476Y-118801709D01*
X148332890Y-118682123D01*
X148332884Y-118682118D01*
X148189697Y-118592147D01*
X148189694Y-118592145D01*
X148030056Y-118536285D01*
X147862003Y-118517351D01*
X147861997Y-118517351D01*
X147693943Y-118536285D01*
X147534305Y-118592145D01*
X147534302Y-118592147D01*
X147391115Y-118682118D01*
X147391109Y-118682123D01*
X147271523Y-118801709D01*
X147271518Y-118801715D01*
X147181547Y-118944902D01*
X147181545Y-118944905D01*
X147125685Y-119104543D01*
X147106751Y-119272597D01*
X147106751Y-119272602D01*
X130078765Y-119272602D01*
X130187477Y-119163890D01*
X130214928Y-119120202D01*
X130277452Y-119020697D01*
X130277454Y-119020694D01*
X130277454Y-119020692D01*
X130277456Y-119020690D01*
X130333313Y-118861059D01*
X130333313Y-118861058D01*
X130333314Y-118861056D01*
X130352249Y-118693002D01*
X130352249Y-118692997D01*
X130333314Y-118524943D01*
X130283956Y-118383887D01*
X130277456Y-118365310D01*
X130277455Y-118365309D01*
X130277454Y-118365305D01*
X130277452Y-118365302D01*
X130187481Y-118222115D01*
X130187476Y-118222109D01*
X130067890Y-118102523D01*
X130067884Y-118102518D01*
X129924697Y-118012547D01*
X129924694Y-118012545D01*
X129765056Y-117956685D01*
X129597003Y-117937751D01*
X129596997Y-117937751D01*
X129428943Y-117956685D01*
X129269305Y-118012545D01*
X129269302Y-118012547D01*
X129126115Y-118102518D01*
X129126109Y-118102523D01*
X129006523Y-118222109D01*
X129006518Y-118222115D01*
X128916547Y-118365302D01*
X128916545Y-118365305D01*
X128860685Y-118524943D01*
X128841751Y-118692997D01*
X128841751Y-118693002D01*
X121196419Y-118693002D01*
X121181314Y-118558943D01*
X121125454Y-118399305D01*
X121125452Y-118399302D01*
X121035481Y-118256115D01*
X121035476Y-118256109D01*
X120915890Y-118136523D01*
X120915884Y-118136518D01*
X120772697Y-118046547D01*
X120772694Y-118046545D01*
X120613056Y-117990685D01*
X120445003Y-117971751D01*
X120444997Y-117971751D01*
X120276943Y-117990685D01*
X120117305Y-118046545D01*
X120117302Y-118046547D01*
X119974115Y-118136518D01*
X119974109Y-118136523D01*
X119854523Y-118256109D01*
X119854518Y-118256115D01*
X119764547Y-118399302D01*
X119764545Y-118399305D01*
X119708685Y-118558943D01*
X119689751Y-118726997D01*
X119689751Y-118727002D01*
X112382095Y-118727002D01*
X112333281Y-118649315D01*
X112333276Y-118649309D01*
X112213690Y-118529723D01*
X112213684Y-118529718D01*
X112070497Y-118439747D01*
X112070494Y-118439745D01*
X111910856Y-118383885D01*
X111742803Y-118364951D01*
X111742797Y-118364951D01*
X111574743Y-118383885D01*
X111415105Y-118439745D01*
X111415102Y-118439747D01*
X111271915Y-118529718D01*
X111271909Y-118529723D01*
X111152323Y-118649309D01*
X111152318Y-118649315D01*
X111062347Y-118792502D01*
X111062345Y-118792505D01*
X111006485Y-118952143D01*
X110987551Y-119120197D01*
X110987551Y-119120202D01*
X100579361Y-119120202D01*
X100666256Y-118979324D01*
X100666258Y-118979319D01*
X100721405Y-118812897D01*
X100721406Y-118812890D01*
X100731899Y-118710186D01*
X100731900Y-118710173D01*
X100731900Y-118310200D01*
X99664912Y-118310200D01*
X99697825Y-118253193D01*
X99731900Y-118126026D01*
X99731900Y-117994374D01*
X99697825Y-117867207D01*
X99664912Y-117810200D01*
X100731899Y-117810200D01*
X100731899Y-117410228D01*
X100731898Y-117410213D01*
X100721405Y-117307502D01*
X100666258Y-117141080D01*
X100666256Y-117141075D01*
X100574215Y-116991854D01*
X100450245Y-116867884D01*
X100301024Y-116775843D01*
X100301019Y-116775841D01*
X100134597Y-116720694D01*
X100134590Y-116720693D01*
X100031886Y-116710200D01*
X99481900Y-116710200D01*
X99481900Y-117627188D01*
X99424893Y-117594275D01*
X99297726Y-117560200D01*
X99166074Y-117560200D01*
X99038907Y-117594275D01*
X98981900Y-117627188D01*
X98981900Y-116710200D01*
X98431928Y-116710200D01*
X98431912Y-116710201D01*
X98329202Y-116720694D01*
X98162780Y-116775841D01*
X98162775Y-116775843D01*
X98013554Y-116867884D01*
X97889584Y-116991854D01*
X97797543Y-117141075D01*
X97797541Y-117141080D01*
X97742394Y-117307502D01*
X97742393Y-117307509D01*
X97731900Y-117410213D01*
X97731900Y-117810200D01*
X98798888Y-117810200D01*
X98765975Y-117867207D01*
X98731900Y-117994374D01*
X98731900Y-118126026D01*
X98765975Y-118253193D01*
X98798888Y-118310200D01*
X97731901Y-118310200D01*
X97731901Y-118710186D01*
X97742394Y-118812897D01*
X97797541Y-118979319D01*
X97797543Y-118979324D01*
X97889584Y-119128545D01*
X98013554Y-119252515D01*
X98168384Y-119348015D01*
X98215108Y-119399963D01*
X98226331Y-119468926D01*
X98198487Y-119533008D01*
X98190969Y-119541235D01*
X98051789Y-119680415D01*
X97926851Y-119852379D01*
X97830344Y-120041785D01*
X97764653Y-120243960D01*
X97745215Y-120366687D01*
X97731400Y-120453913D01*
X97731400Y-120666487D01*
X95940000Y-120666487D01*
X95940000Y-116673002D01*
X105062751Y-116673002D01*
X105081685Y-116841056D01*
X105137545Y-117000694D01*
X105137547Y-117000697D01*
X105227518Y-117143884D01*
X105227523Y-117143890D01*
X105347109Y-117263476D01*
X105347115Y-117263481D01*
X105490302Y-117353452D01*
X105490305Y-117353454D01*
X105490309Y-117353455D01*
X105490310Y-117353456D01*
X105542134Y-117371590D01*
X105649943Y-117409314D01*
X105817997Y-117428249D01*
X105818000Y-117428249D01*
X105818003Y-117428249D01*
X105986056Y-117409314D01*
X105986059Y-117409313D01*
X106145690Y-117353456D01*
X106145692Y-117353454D01*
X106145694Y-117353454D01*
X106145697Y-117353452D01*
X106288884Y-117263481D01*
X106288885Y-117263480D01*
X106288890Y-117263477D01*
X106408477Y-117143890D01*
X106410246Y-117141075D01*
X106498452Y-117000697D01*
X106498454Y-117000694D01*
X106498454Y-117000692D01*
X106498456Y-117000690D01*
X106554313Y-116841059D01*
X106554313Y-116841058D01*
X106554314Y-116841056D01*
X106573249Y-116673002D01*
X106573249Y-116672997D01*
X106554314Y-116504946D01*
X106554313Y-116504942D01*
X106554313Y-116504941D01*
X106529450Y-116433889D01*
X106525890Y-116364113D01*
X106529452Y-116351982D01*
X106576313Y-116218061D01*
X106576313Y-116218059D01*
X106595249Y-116050002D01*
X106595249Y-116049997D01*
X106576314Y-115881943D01*
X106539991Y-115778137D01*
X106529796Y-115749002D01*
X112083751Y-115749002D01*
X112102685Y-115917056D01*
X112131793Y-116000239D01*
X112149418Y-116050610D01*
X112149548Y-116050980D01*
X112153109Y-116120759D01*
X112149548Y-116132888D01*
X112124686Y-116203941D01*
X112105751Y-116371997D01*
X112105751Y-116372002D01*
X112124685Y-116540056D01*
X112180545Y-116699694D01*
X112180547Y-116699697D01*
X112270518Y-116842884D01*
X112270523Y-116842890D01*
X112390109Y-116962476D01*
X112390115Y-116962481D01*
X112533302Y-117052452D01*
X112533305Y-117052454D01*
X112533309Y-117052455D01*
X112533310Y-117052456D01*
X112541478Y-117055314D01*
X112692943Y-117108314D01*
X112860997Y-117127249D01*
X112861000Y-117127249D01*
X112861003Y-117127249D01*
X113029056Y-117108314D01*
X113029059Y-117108313D01*
X113188690Y-117052456D01*
X113188692Y-117052454D01*
X113188694Y-117052454D01*
X113188697Y-117052452D01*
X113331884Y-116962481D01*
X113331885Y-116962480D01*
X113331890Y-116962477D01*
X113451477Y-116842890D01*
X113451481Y-116842884D01*
X113541452Y-116699697D01*
X113541454Y-116699694D01*
X113541454Y-116699692D01*
X113541456Y-116699690D01*
X113597313Y-116540059D01*
X113597313Y-116540058D01*
X113597314Y-116540056D01*
X113616249Y-116372002D01*
X113616249Y-116371997D01*
X113611213Y-116327302D01*
X116823251Y-116327302D01*
X116842185Y-116495356D01*
X116898045Y-116654994D01*
X116898047Y-116654997D01*
X116988018Y-116798184D01*
X116988023Y-116798190D01*
X117107609Y-116917776D01*
X117107615Y-116917781D01*
X117250802Y-117007752D01*
X117250805Y-117007754D01*
X117250809Y-117007755D01*
X117250810Y-117007756D01*
X117323413Y-117033160D01*
X117410443Y-117063614D01*
X117578497Y-117082549D01*
X117578500Y-117082549D01*
X117578503Y-117082549D01*
X117746556Y-117063614D01*
X117778444Y-117052456D01*
X117802890Y-117043902D01*
X119159051Y-117043902D01*
X119177985Y-117211956D01*
X119233845Y-117371594D01*
X119233847Y-117371597D01*
X119323818Y-117514784D01*
X119323823Y-117514790D01*
X119443409Y-117634376D01*
X119443415Y-117634381D01*
X119586602Y-117724352D01*
X119586605Y-117724354D01*
X119586609Y-117724355D01*
X119586610Y-117724356D01*
X119659213Y-117749760D01*
X119746243Y-117780214D01*
X119914297Y-117799149D01*
X119914300Y-117799149D01*
X119914303Y-117799149D01*
X120082356Y-117780214D01*
X120082359Y-117780213D01*
X120241990Y-117724356D01*
X120241992Y-117724354D01*
X120241994Y-117724354D01*
X120241997Y-117724352D01*
X120385184Y-117634381D01*
X120385185Y-117634380D01*
X120385190Y-117634377D01*
X120504777Y-117514790D01*
X120570478Y-117410228D01*
X120594752Y-117371597D01*
X120594754Y-117371594D01*
X120594754Y-117371592D01*
X120594756Y-117371590D01*
X120650613Y-117211959D01*
X120650613Y-117211958D01*
X120650614Y-117211956D01*
X120669549Y-117043902D01*
X120669549Y-117043897D01*
X120650614Y-116875843D01*
X120596325Y-116720694D01*
X120594756Y-116716210D01*
X120594755Y-116716209D01*
X120594754Y-116716205D01*
X120594752Y-116716202D01*
X120504781Y-116573015D01*
X120504776Y-116573009D01*
X120385190Y-116453423D01*
X120385184Y-116453418D01*
X120241997Y-116363447D01*
X120241994Y-116363445D01*
X120082356Y-116307585D01*
X119914303Y-116288651D01*
X119914297Y-116288651D01*
X119746243Y-116307585D01*
X119586605Y-116363445D01*
X119586602Y-116363447D01*
X119443415Y-116453418D01*
X119443409Y-116453423D01*
X119323823Y-116573009D01*
X119323818Y-116573015D01*
X119233847Y-116716202D01*
X119233845Y-116716205D01*
X119177985Y-116875843D01*
X119159051Y-117043897D01*
X119159051Y-117043902D01*
X117802890Y-117043902D01*
X117906190Y-117007756D01*
X117906192Y-117007754D01*
X117906194Y-117007754D01*
X117906197Y-117007752D01*
X118049384Y-116917781D01*
X118049385Y-116917780D01*
X118049390Y-116917777D01*
X118168977Y-116798190D01*
X118168981Y-116798184D01*
X118258952Y-116654997D01*
X118258954Y-116654994D01*
X118258954Y-116654992D01*
X118258956Y-116654990D01*
X118314813Y-116495359D01*
X118314813Y-116495358D01*
X118314814Y-116495356D01*
X118333749Y-116327302D01*
X118333749Y-116327297D01*
X118314814Y-116159243D01*
X118274597Y-116044310D01*
X118258956Y-115999610D01*
X118258955Y-115999609D01*
X118258954Y-115999605D01*
X118258952Y-115999602D01*
X118168981Y-115856415D01*
X118168976Y-115856409D01*
X118049390Y-115736823D01*
X118049384Y-115736818D01*
X117906197Y-115646847D01*
X117906194Y-115646845D01*
X117746556Y-115590985D01*
X117578503Y-115572051D01*
X117578497Y-115572051D01*
X117410443Y-115590985D01*
X117250805Y-115646845D01*
X117250802Y-115646847D01*
X117107615Y-115736818D01*
X117107609Y-115736823D01*
X116988023Y-115856409D01*
X116988018Y-115856415D01*
X116898047Y-115999602D01*
X116898045Y-115999605D01*
X116842185Y-116159243D01*
X116823251Y-116327297D01*
X116823251Y-116327302D01*
X113611213Y-116327302D01*
X113597313Y-116203940D01*
X113597313Y-116203939D01*
X113557094Y-116089000D01*
X113550450Y-116070016D01*
X113546888Y-116000239D01*
X113550444Y-115988128D01*
X113575313Y-115917059D01*
X113583082Y-115848115D01*
X113594249Y-115749002D01*
X113594249Y-115748997D01*
X113575314Y-115580943D01*
X113519454Y-115421305D01*
X113519452Y-115421302D01*
X113429481Y-115278115D01*
X113429476Y-115278109D01*
X113309890Y-115158523D01*
X113309884Y-115158518D01*
X113166697Y-115068547D01*
X113166694Y-115068545D01*
X113007056Y-115012685D01*
X112839003Y-114993751D01*
X112838997Y-114993751D01*
X112670943Y-115012685D01*
X112511305Y-115068545D01*
X112511302Y-115068547D01*
X112368115Y-115158518D01*
X112368109Y-115158523D01*
X112248523Y-115278109D01*
X112248518Y-115278115D01*
X112158547Y-115421302D01*
X112158545Y-115421305D01*
X112102685Y-115580943D01*
X112083751Y-115748997D01*
X112083751Y-115749002D01*
X106529796Y-115749002D01*
X106520456Y-115722310D01*
X106520455Y-115722309D01*
X106520454Y-115722305D01*
X106520452Y-115722302D01*
X106430481Y-115579115D01*
X106430476Y-115579109D01*
X106310890Y-115459523D01*
X106310884Y-115459518D01*
X106167697Y-115369547D01*
X106167694Y-115369545D01*
X106008056Y-115313685D01*
X105840003Y-115294751D01*
X105839997Y-115294751D01*
X105671943Y-115313685D01*
X105512305Y-115369545D01*
X105512302Y-115369547D01*
X105369115Y-115459518D01*
X105369109Y-115459523D01*
X105249523Y-115579109D01*
X105249518Y-115579115D01*
X105159547Y-115722302D01*
X105159545Y-115722305D01*
X105103685Y-115881943D01*
X105084751Y-116049997D01*
X105084751Y-116050002D01*
X105103685Y-116218054D01*
X105103686Y-116218058D01*
X105128548Y-116289109D01*
X105132109Y-116358888D01*
X105128548Y-116371017D01*
X105081686Y-116504942D01*
X105062751Y-116672997D01*
X105062751Y-116673002D01*
X95940000Y-116673002D01*
X95940000Y-114986502D01*
X126358651Y-114986502D01*
X126377585Y-115154556D01*
X126433445Y-115314194D01*
X126433447Y-115314197D01*
X126523418Y-115457384D01*
X126523423Y-115457390D01*
X126643010Y-115576977D01*
X126665082Y-115590846D01*
X126668351Y-115592900D01*
X126714641Y-115645236D01*
X126725288Y-115714289D01*
X126696912Y-115778137D01*
X126690059Y-115785574D01*
X126627518Y-115848115D01*
X126537547Y-115991302D01*
X126537545Y-115991305D01*
X126481685Y-116150943D01*
X126462751Y-116318997D01*
X126462751Y-116319002D01*
X126481685Y-116487056D01*
X126537545Y-116646694D01*
X126537547Y-116646697D01*
X126627518Y-116789884D01*
X126627523Y-116789890D01*
X126747109Y-116909476D01*
X126747115Y-116909481D01*
X126890302Y-116999452D01*
X126890305Y-116999454D01*
X126890309Y-116999455D01*
X126890310Y-116999456D01*
X126962913Y-117024860D01*
X127049943Y-117055314D01*
X127217997Y-117074249D01*
X127218000Y-117074249D01*
X127218003Y-117074249D01*
X127386056Y-117055314D01*
X127394224Y-117052456D01*
X127545690Y-116999456D01*
X127545692Y-116999454D01*
X127545694Y-116999454D01*
X127545697Y-116999452D01*
X127688884Y-116909481D01*
X127688885Y-116909480D01*
X127688890Y-116909477D01*
X127808477Y-116789890D01*
X127808481Y-116789884D01*
X127898452Y-116646697D01*
X127898454Y-116646694D01*
X127898454Y-116646692D01*
X127898456Y-116646690D01*
X127954313Y-116487059D01*
X127954313Y-116487058D01*
X127954314Y-116487056D01*
X127973249Y-116319002D01*
X127973249Y-116318997D01*
X127954314Y-116150943D01*
X127932640Y-116089002D01*
X134736751Y-116089002D01*
X134755685Y-116257056D01*
X134811545Y-116416694D01*
X134811547Y-116416697D01*
X134901518Y-116559884D01*
X134901523Y-116559890D01*
X135021109Y-116679476D01*
X135021115Y-116679481D01*
X135164302Y-116769452D01*
X135164305Y-116769454D01*
X135164309Y-116769455D01*
X135164310Y-116769456D01*
X135222690Y-116789884D01*
X135323943Y-116825314D01*
X135491997Y-116844249D01*
X135492000Y-116844249D01*
X135492003Y-116844249D01*
X135660056Y-116825314D01*
X135660059Y-116825313D01*
X135819690Y-116769456D01*
X135819692Y-116769454D01*
X135819694Y-116769454D01*
X135819697Y-116769452D01*
X135962884Y-116679481D01*
X135962885Y-116679480D01*
X135962890Y-116679477D01*
X136082477Y-116559890D01*
X136106598Y-116521502D01*
X140496051Y-116521502D01*
X140514985Y-116689556D01*
X140570845Y-116849194D01*
X140570847Y-116849197D01*
X140660818Y-116992384D01*
X140660823Y-116992390D01*
X140780409Y-117111976D01*
X140780415Y-117111981D01*
X140923602Y-117201952D01*
X140923605Y-117201954D01*
X140923609Y-117201955D01*
X140923610Y-117201956D01*
X140996213Y-117227360D01*
X141083243Y-117257814D01*
X141251297Y-117276749D01*
X141251300Y-117276749D01*
X141251303Y-117276749D01*
X141419356Y-117257814D01*
X141419359Y-117257813D01*
X141578990Y-117201956D01*
X141578992Y-117201954D01*
X141578994Y-117201954D01*
X141578997Y-117201952D01*
X141722184Y-117111981D01*
X141722185Y-117111980D01*
X141722190Y-117111977D01*
X141841777Y-116992390D01*
X141860573Y-116962477D01*
X141931752Y-116849197D01*
X141931754Y-116849194D01*
X141931754Y-116849192D01*
X141931756Y-116849190D01*
X141987613Y-116689559D01*
X141987613Y-116689558D01*
X141987614Y-116689556D01*
X142006549Y-116521502D01*
X142006549Y-116521497D01*
X141987614Y-116353443D01*
X141935301Y-116203941D01*
X141931756Y-116193810D01*
X141931755Y-116193809D01*
X141931754Y-116193805D01*
X141931752Y-116193802D01*
X141841781Y-116050615D01*
X141841776Y-116050609D01*
X141722190Y-115931023D01*
X141722184Y-115931018D01*
X141578997Y-115841047D01*
X141578994Y-115841045D01*
X141419356Y-115785185D01*
X141251303Y-115766251D01*
X141251297Y-115766251D01*
X141083243Y-115785185D01*
X140923605Y-115841045D01*
X140923602Y-115841047D01*
X140780415Y-115931018D01*
X140780409Y-115931023D01*
X140660823Y-116050609D01*
X140660818Y-116050615D01*
X140570847Y-116193802D01*
X140570845Y-116193805D01*
X140514985Y-116353443D01*
X140496051Y-116521497D01*
X140496051Y-116521502D01*
X136106598Y-116521502D01*
X136117001Y-116504946D01*
X136172452Y-116416697D01*
X136172454Y-116416694D01*
X136172454Y-116416692D01*
X136172456Y-116416690D01*
X136228313Y-116257059D01*
X136228313Y-116257058D01*
X136228314Y-116257056D01*
X136247249Y-116089002D01*
X136247249Y-116088997D01*
X136228314Y-115920943D01*
X136172454Y-115761305D01*
X136172452Y-115761302D01*
X136082481Y-115618115D01*
X136082476Y-115618109D01*
X135962890Y-115498523D01*
X135962884Y-115498518D01*
X135819697Y-115408547D01*
X135819694Y-115408545D01*
X135660056Y-115352685D01*
X135492003Y-115333751D01*
X135491997Y-115333751D01*
X135323943Y-115352685D01*
X135164305Y-115408545D01*
X135164302Y-115408547D01*
X135021115Y-115498518D01*
X135021109Y-115498523D01*
X134901523Y-115618109D01*
X134901518Y-115618115D01*
X134811547Y-115761302D01*
X134811545Y-115761305D01*
X134755685Y-115920943D01*
X134736751Y-116088997D01*
X134736751Y-116089002D01*
X127932640Y-116089002D01*
X127919206Y-116050610D01*
X127898456Y-115991310D01*
X127898455Y-115991309D01*
X127898454Y-115991305D01*
X127898452Y-115991302D01*
X127808481Y-115848115D01*
X127808476Y-115848109D01*
X127688890Y-115728523D01*
X127678989Y-115722302D01*
X127663549Y-115712600D01*
X127617259Y-115660266D01*
X127606611Y-115591212D01*
X127634986Y-115527364D01*
X127641841Y-115519926D01*
X127663249Y-115498518D01*
X127704377Y-115457390D01*
X127727053Y-115421302D01*
X127794352Y-115314197D01*
X127794354Y-115314194D01*
X127794354Y-115314192D01*
X127794356Y-115314190D01*
X127850213Y-115154559D01*
X127850213Y-115154558D01*
X127850214Y-115154556D01*
X127869149Y-114986502D01*
X127869149Y-114986497D01*
X127850214Y-114818443D01*
X127794354Y-114658805D01*
X127794352Y-114658802D01*
X127704381Y-114515615D01*
X127704376Y-114515609D01*
X127584790Y-114396023D01*
X127584784Y-114396018D01*
X127441597Y-114306047D01*
X127441594Y-114306045D01*
X127281956Y-114250185D01*
X127113903Y-114231251D01*
X127113897Y-114231251D01*
X126945843Y-114250185D01*
X126786205Y-114306045D01*
X126786202Y-114306047D01*
X126643015Y-114396018D01*
X126643009Y-114396023D01*
X126523423Y-114515609D01*
X126523418Y-114515615D01*
X126433447Y-114658802D01*
X126433445Y-114658805D01*
X126377585Y-114818443D01*
X126358651Y-114986497D01*
X126358651Y-114986502D01*
X95940000Y-114986502D01*
X95940000Y-110507002D01*
X114934751Y-110507002D01*
X114953685Y-110675056D01*
X115009545Y-110834694D01*
X115009547Y-110834697D01*
X115099518Y-110977884D01*
X115099523Y-110977890D01*
X115219109Y-111097476D01*
X115219115Y-111097481D01*
X115362302Y-111187452D01*
X115362305Y-111187454D01*
X115362309Y-111187455D01*
X115362310Y-111187456D01*
X115393155Y-111198249D01*
X115521943Y-111243314D01*
X115689997Y-111262249D01*
X115690000Y-111262249D01*
X115690003Y-111262249D01*
X115858056Y-111243314D01*
X115858059Y-111243313D01*
X116017690Y-111187456D01*
X116017692Y-111187454D01*
X116017694Y-111187454D01*
X116017697Y-111187452D01*
X116160884Y-111097481D01*
X116160885Y-111097480D01*
X116160890Y-111097477D01*
X116280477Y-110977890D01*
X116319749Y-110915390D01*
X116370452Y-110834697D01*
X116370454Y-110834694D01*
X116370454Y-110834692D01*
X116370456Y-110834690D01*
X116426313Y-110675059D01*
X116426313Y-110675058D01*
X116426314Y-110675056D01*
X116445249Y-110507002D01*
X116445249Y-110506997D01*
X116438208Y-110444502D01*
X132491351Y-110444502D01*
X132510285Y-110612556D01*
X132566145Y-110772194D01*
X132566147Y-110772197D01*
X132656118Y-110915384D01*
X132656123Y-110915390D01*
X132775709Y-111034976D01*
X132775715Y-111034981D01*
X132918902Y-111124952D01*
X132918905Y-111124954D01*
X132918909Y-111124955D01*
X132918910Y-111124956D01*
X132991513Y-111150360D01*
X133078543Y-111180814D01*
X133246597Y-111199749D01*
X133246600Y-111199749D01*
X133246603Y-111199749D01*
X133414656Y-111180814D01*
X133418946Y-111179313D01*
X133574290Y-111124956D01*
X133574292Y-111124954D01*
X133574294Y-111124954D01*
X133574297Y-111124952D01*
X133717484Y-111034981D01*
X133717485Y-111034980D01*
X133717490Y-111034977D01*
X133837077Y-110915390D01*
X133838020Y-110913890D01*
X133927052Y-110772197D01*
X133927054Y-110772194D01*
X133927054Y-110772192D01*
X133927056Y-110772190D01*
X133982913Y-110612559D01*
X133982913Y-110612558D01*
X133982914Y-110612556D01*
X134001849Y-110444502D01*
X134001849Y-110444497D01*
X134001681Y-110443002D01*
X139895751Y-110443002D01*
X139914685Y-110611056D01*
X139970545Y-110770694D01*
X139970547Y-110770697D01*
X140060518Y-110913884D01*
X140060523Y-110913890D01*
X140180109Y-111033476D01*
X140180115Y-111033481D01*
X140323302Y-111123452D01*
X140323305Y-111123454D01*
X140323309Y-111123455D01*
X140323310Y-111123456D01*
X140327597Y-111124956D01*
X140482943Y-111179314D01*
X140650997Y-111198249D01*
X140651000Y-111198249D01*
X140651003Y-111198249D01*
X140819056Y-111179314D01*
X140819059Y-111179313D01*
X140978690Y-111123456D01*
X140978692Y-111123454D01*
X140978694Y-111123454D01*
X140978697Y-111123452D01*
X141121884Y-111033481D01*
X141121885Y-111033480D01*
X141121890Y-111033477D01*
X141241477Y-110913890D01*
X141291238Y-110834697D01*
X141331452Y-110770697D01*
X141331454Y-110770694D01*
X141331454Y-110770692D01*
X141331456Y-110770690D01*
X141387313Y-110611059D01*
X141387313Y-110611058D01*
X141387314Y-110611056D01*
X141406249Y-110443002D01*
X141406249Y-110442997D01*
X141387314Y-110274943D01*
X141331454Y-110115305D01*
X141331452Y-110115302D01*
X141241481Y-109972115D01*
X141241476Y-109972109D01*
X141121890Y-109852523D01*
X141121884Y-109852518D01*
X140978697Y-109762547D01*
X140978694Y-109762545D01*
X140819056Y-109706685D01*
X140651003Y-109687751D01*
X140650997Y-109687751D01*
X140482943Y-109706685D01*
X140323305Y-109762545D01*
X140323302Y-109762547D01*
X140180115Y-109852518D01*
X140180109Y-109852523D01*
X140060523Y-109972109D01*
X140060518Y-109972115D01*
X139970547Y-110115302D01*
X139970545Y-110115305D01*
X139914685Y-110274943D01*
X139895751Y-110442997D01*
X139895751Y-110443002D01*
X134001681Y-110443002D01*
X133982914Y-110276443D01*
X133927054Y-110116805D01*
X133927052Y-110116802D01*
X133837081Y-109973615D01*
X133837076Y-109973609D01*
X133717490Y-109854023D01*
X133717484Y-109854018D01*
X133574297Y-109764047D01*
X133574294Y-109764045D01*
X133414656Y-109708185D01*
X133246603Y-109689251D01*
X133246597Y-109689251D01*
X133078543Y-109708185D01*
X132918905Y-109764045D01*
X132918902Y-109764047D01*
X132775715Y-109854018D01*
X132775709Y-109854023D01*
X132656123Y-109973609D01*
X132656118Y-109973615D01*
X132566147Y-110116802D01*
X132566145Y-110116805D01*
X132510285Y-110276443D01*
X132491351Y-110444497D01*
X132491351Y-110444502D01*
X116438208Y-110444502D01*
X116426314Y-110338943D01*
X116370454Y-110179305D01*
X116370452Y-110179302D01*
X116280481Y-110036115D01*
X116280476Y-110036109D01*
X116160890Y-109916523D01*
X116160884Y-109916518D01*
X116017697Y-109826547D01*
X116017694Y-109826545D01*
X115858056Y-109770685D01*
X115690003Y-109751751D01*
X115689997Y-109751751D01*
X115521943Y-109770685D01*
X115362305Y-109826545D01*
X115362302Y-109826547D01*
X115219115Y-109916518D01*
X115219109Y-109916523D01*
X115099523Y-110036109D01*
X115099518Y-110036115D01*
X115009547Y-110179302D01*
X115009545Y-110179305D01*
X114953685Y-110338943D01*
X114934751Y-110506997D01*
X114934751Y-110507002D01*
X95940000Y-110507002D01*
X95940000Y-109296902D01*
X105641451Y-109296902D01*
X105660385Y-109464956D01*
X105716245Y-109624594D01*
X105716247Y-109624597D01*
X105806218Y-109767784D01*
X105806223Y-109767790D01*
X105925809Y-109887376D01*
X105925815Y-109887381D01*
X106069002Y-109977352D01*
X106069005Y-109977354D01*
X106069009Y-109977355D01*
X106069010Y-109977356D01*
X106141613Y-110002760D01*
X106228643Y-110033214D01*
X106396697Y-110052149D01*
X106396700Y-110052149D01*
X106396703Y-110052149D01*
X106564756Y-110033214D01*
X106564759Y-110033213D01*
X106724390Y-109977356D01*
X106724392Y-109977354D01*
X106724394Y-109977354D01*
X106724397Y-109977352D01*
X106867584Y-109887381D01*
X106867585Y-109887380D01*
X106867590Y-109887377D01*
X106987177Y-109767790D01*
X106989531Y-109764044D01*
X107077152Y-109624597D01*
X107077154Y-109624594D01*
X107077154Y-109624592D01*
X107077156Y-109624590D01*
X107133013Y-109464959D01*
X107133013Y-109464958D01*
X107133014Y-109464956D01*
X107151949Y-109296902D01*
X107151949Y-109296897D01*
X107133014Y-109128843D01*
X107077154Y-108969205D01*
X107077152Y-108969202D01*
X106987181Y-108826015D01*
X106987176Y-108826009D01*
X106867590Y-108706423D01*
X106867584Y-108706418D01*
X106724397Y-108616447D01*
X106724394Y-108616445D01*
X106564756Y-108560585D01*
X106396703Y-108541651D01*
X106396697Y-108541651D01*
X106228643Y-108560585D01*
X106069005Y-108616445D01*
X106069002Y-108616447D01*
X105925815Y-108706418D01*
X105925809Y-108706423D01*
X105806223Y-108826009D01*
X105806218Y-108826015D01*
X105716247Y-108969202D01*
X105716245Y-108969205D01*
X105660385Y-109128843D01*
X105641451Y-109296897D01*
X105641451Y-109296902D01*
X95940000Y-109296902D01*
X95940000Y-107892102D01*
X112685251Y-107892102D01*
X112704185Y-108060156D01*
X112760045Y-108219794D01*
X112760047Y-108219797D01*
X112850018Y-108362984D01*
X112850023Y-108362990D01*
X112969609Y-108482576D01*
X112969615Y-108482581D01*
X113112802Y-108572552D01*
X113112805Y-108572554D01*
X113112809Y-108572555D01*
X113112810Y-108572556D01*
X113185413Y-108597960D01*
X113272443Y-108628414D01*
X113440497Y-108647349D01*
X113440500Y-108647349D01*
X113440503Y-108647349D01*
X113608556Y-108628414D01*
X113642756Y-108616447D01*
X113768190Y-108572556D01*
X113768192Y-108572554D01*
X113768194Y-108572554D01*
X113768197Y-108572552D01*
X113911384Y-108482581D01*
X113911385Y-108482580D01*
X113911390Y-108482577D01*
X114030977Y-108362990D01*
X114120952Y-108219797D01*
X114120954Y-108219794D01*
X114120954Y-108219792D01*
X114120956Y-108219790D01*
X114176813Y-108060159D01*
X114176813Y-108060158D01*
X114176814Y-108060156D01*
X114195749Y-107892102D01*
X114195749Y-107892097D01*
X114176814Y-107724043D01*
X114120954Y-107564405D01*
X114120952Y-107564402D01*
X114030981Y-107421215D01*
X114030976Y-107421209D01*
X113911390Y-107301623D01*
X113911384Y-107301618D01*
X113768197Y-107211647D01*
X113768194Y-107211645D01*
X113608556Y-107155785D01*
X113440503Y-107136851D01*
X113440497Y-107136851D01*
X113272443Y-107155785D01*
X113112805Y-107211645D01*
X113112802Y-107211647D01*
X112969615Y-107301618D01*
X112969609Y-107301623D01*
X112850023Y-107421209D01*
X112850018Y-107421215D01*
X112760047Y-107564402D01*
X112760045Y-107564405D01*
X112704185Y-107724043D01*
X112685251Y-107892097D01*
X112685251Y-107892102D01*
X95940000Y-107892102D01*
X95940000Y-105805601D01*
X97180519Y-105805601D01*
X97200418Y-106083823D01*
X97200419Y-106083830D01*
X97259707Y-106356374D01*
X97357189Y-106617734D01*
X97490861Y-106862538D01*
X97591102Y-106996443D01*
X98091820Y-106495725D01*
X98182054Y-106619920D01*
X98321180Y-106759046D01*
X98445373Y-106849278D01*
X97944655Y-107349996D01*
X98078561Y-107450237D01*
X98078561Y-107450238D01*
X98323365Y-107583910D01*
X98584725Y-107681392D01*
X98857269Y-107740680D01*
X98857276Y-107740681D01*
X99135499Y-107760581D01*
X99135501Y-107760581D01*
X99413723Y-107740681D01*
X99413730Y-107740680D01*
X99686274Y-107681392D01*
X99947634Y-107583910D01*
X100192442Y-107450235D01*
X100326342Y-107349996D01*
X100326343Y-107349996D01*
X99825626Y-106849278D01*
X99949820Y-106759046D01*
X100088946Y-106619920D01*
X100179179Y-106495726D01*
X100679896Y-106996443D01*
X100679896Y-106996442D01*
X100780135Y-106862542D01*
X100913810Y-106617734D01*
X101011292Y-106356374D01*
X101070580Y-106083830D01*
X101070581Y-106083823D01*
X101084845Y-105884402D01*
X109214251Y-105884402D01*
X109233185Y-106052456D01*
X109289045Y-106212094D01*
X109289047Y-106212097D01*
X109379018Y-106355284D01*
X109379023Y-106355290D01*
X109498609Y-106474876D01*
X109498615Y-106474881D01*
X109641802Y-106564852D01*
X109641805Y-106564854D01*
X109641809Y-106564855D01*
X109641810Y-106564856D01*
X109714413Y-106590260D01*
X109801443Y-106620714D01*
X109969497Y-106639649D01*
X109969500Y-106639649D01*
X109969503Y-106639649D01*
X110137556Y-106620714D01*
X110143666Y-106618576D01*
X110297190Y-106564856D01*
X110297192Y-106564854D01*
X110297194Y-106564854D01*
X110297197Y-106564852D01*
X110440384Y-106474881D01*
X110440385Y-106474880D01*
X110440390Y-106474877D01*
X110476837Y-106438429D01*
X110538157Y-106404945D01*
X110607849Y-106409929D01*
X110663783Y-106451799D01*
X110669510Y-106460138D01*
X110693921Y-106498987D01*
X110693923Y-106498990D01*
X110813509Y-106618576D01*
X110813515Y-106618581D01*
X110956702Y-106708552D01*
X110956705Y-106708554D01*
X110956709Y-106708555D01*
X110956710Y-106708556D01*
X111021260Y-106731143D01*
X111116343Y-106764414D01*
X111284397Y-106783349D01*
X111284400Y-106783349D01*
X111284403Y-106783349D01*
X111452456Y-106764414D01*
X111452459Y-106764413D01*
X111588810Y-106716702D01*
X118518451Y-106716702D01*
X118537385Y-106884756D01*
X118593245Y-107044394D01*
X118593247Y-107044397D01*
X118683218Y-107187584D01*
X118683222Y-107187589D01*
X118802809Y-107307176D01*
X118802815Y-107307181D01*
X118946002Y-107397152D01*
X118946005Y-107397154D01*
X118946009Y-107397155D01*
X118946010Y-107397156D01*
X119000126Y-107416092D01*
X119105643Y-107453014D01*
X119273697Y-107471949D01*
X119273700Y-107471949D01*
X119273703Y-107471949D01*
X119441756Y-107453014D01*
X119441759Y-107453013D01*
X119601390Y-107397156D01*
X119601392Y-107397154D01*
X119601394Y-107397154D01*
X119601397Y-107397152D01*
X119744584Y-107307181D01*
X119744585Y-107307180D01*
X119744590Y-107307177D01*
X119864177Y-107187590D01*
X119864181Y-107187584D01*
X119954152Y-107044397D01*
X119954154Y-107044394D01*
X119954154Y-107044392D01*
X119954156Y-107044390D01*
X120010013Y-106884759D01*
X120010013Y-106884758D01*
X120010014Y-106884756D01*
X120028949Y-106716702D01*
X120028949Y-106716697D01*
X120010014Y-106548643D01*
X119954154Y-106389005D01*
X119954152Y-106389002D01*
X119864181Y-106245815D01*
X119864176Y-106245809D01*
X119860998Y-106242631D01*
X119827513Y-106181308D01*
X119832497Y-106111616D01*
X119860998Y-106067269D01*
X119864177Y-106064090D01*
X119864181Y-106064084D01*
X119954152Y-105920897D01*
X119954154Y-105920894D01*
X119954154Y-105920892D01*
X119954156Y-105920890D01*
X120010013Y-105761259D01*
X120010013Y-105761258D01*
X120010014Y-105761256D01*
X120019225Y-105679502D01*
X130102751Y-105679502D01*
X130121685Y-105847556D01*
X130177545Y-106007194D01*
X130177547Y-106007197D01*
X130267518Y-106150384D01*
X130267523Y-106150390D01*
X130387109Y-106269976D01*
X130387115Y-106269981D01*
X130530302Y-106359952D01*
X130530305Y-106359954D01*
X130530309Y-106359955D01*
X130530310Y-106359956D01*
X130602913Y-106385360D01*
X130689943Y-106415814D01*
X130857997Y-106434749D01*
X130858000Y-106434749D01*
X130858003Y-106434749D01*
X131026056Y-106415814D01*
X131026059Y-106415813D01*
X131185690Y-106359956D01*
X131185692Y-106359954D01*
X131185694Y-106359954D01*
X131185697Y-106359952D01*
X131328884Y-106269981D01*
X131328885Y-106269980D01*
X131328890Y-106269977D01*
X131448477Y-106150390D01*
X131462174Y-106128592D01*
X131538452Y-106007197D01*
X131538454Y-106007194D01*
X131538454Y-106007192D01*
X131538456Y-106007190D01*
X131594313Y-105847559D01*
X131594313Y-105847558D01*
X131594314Y-105847556D01*
X131613249Y-105679502D01*
X131613249Y-105679497D01*
X131594314Y-105511443D01*
X131538454Y-105351805D01*
X131538452Y-105351802D01*
X131448481Y-105208615D01*
X131448476Y-105208609D01*
X131328890Y-105089023D01*
X131328884Y-105089018D01*
X131218410Y-105019602D01*
X137310051Y-105019602D01*
X137328985Y-105187656D01*
X137384845Y-105347294D01*
X137384847Y-105347297D01*
X137474818Y-105490484D01*
X137474823Y-105490490D01*
X137594409Y-105610076D01*
X137594415Y-105610081D01*
X137737602Y-105700052D01*
X137737605Y-105700054D01*
X137737609Y-105700055D01*
X137737610Y-105700056D01*
X137784150Y-105716341D01*
X137897243Y-105755914D01*
X138065297Y-105774849D01*
X138065300Y-105774849D01*
X138065303Y-105774849D01*
X138233356Y-105755914D01*
X138233359Y-105755913D01*
X138392990Y-105700056D01*
X138392992Y-105700054D01*
X138392994Y-105700054D01*
X138392997Y-105700052D01*
X138536184Y-105610081D01*
X138536185Y-105610080D01*
X138536190Y-105610077D01*
X138605966Y-105540301D01*
X149668719Y-105540301D01*
X149688618Y-105818523D01*
X149688619Y-105818530D01*
X149747907Y-106091074D01*
X149845389Y-106352434D01*
X149979061Y-106597238D01*
X150079302Y-106731143D01*
X150580020Y-106230425D01*
X150670254Y-106354620D01*
X150809380Y-106493746D01*
X150933573Y-106583978D01*
X150432855Y-107084696D01*
X150566761Y-107184937D01*
X150566761Y-107184938D01*
X150811565Y-107318610D01*
X151072925Y-107416092D01*
X151345469Y-107475380D01*
X151345476Y-107475381D01*
X151623699Y-107495281D01*
X151623701Y-107495281D01*
X151901923Y-107475381D01*
X151901930Y-107475380D01*
X152174474Y-107416092D01*
X152435834Y-107318610D01*
X152680642Y-107184935D01*
X152814542Y-107084696D01*
X152814543Y-107084696D01*
X152313826Y-106583978D01*
X152438020Y-106493746D01*
X152577146Y-106354620D01*
X152667379Y-106230426D01*
X153168096Y-106731143D01*
X153168096Y-106731142D01*
X153268335Y-106597242D01*
X153402010Y-106352434D01*
X153499492Y-106091074D01*
X153558780Y-105818530D01*
X153558781Y-105818523D01*
X153578681Y-105540301D01*
X153578681Y-105540298D01*
X153558781Y-105262076D01*
X153558780Y-105262069D01*
X153499492Y-104989525D01*
X153402010Y-104728165D01*
X153268338Y-104483361D01*
X153168096Y-104349455D01*
X152667378Y-104850173D01*
X152577146Y-104725980D01*
X152438020Y-104586854D01*
X152313825Y-104496620D01*
X152814543Y-103995902D01*
X152680638Y-103895662D01*
X152680638Y-103895661D01*
X152435834Y-103761989D01*
X152174474Y-103664507D01*
X151901930Y-103605219D01*
X151901923Y-103605218D01*
X151623701Y-103585319D01*
X151623699Y-103585319D01*
X151345476Y-103605218D01*
X151345469Y-103605219D01*
X151072925Y-103664507D01*
X150811565Y-103761989D01*
X150566761Y-103895661D01*
X150566754Y-103895666D01*
X150432856Y-103995901D01*
X150432855Y-103995902D01*
X150933574Y-104496620D01*
X150809380Y-104586854D01*
X150670254Y-104725980D01*
X150580020Y-104850173D01*
X150079302Y-104349455D01*
X150079301Y-104349456D01*
X149979066Y-104483354D01*
X149979061Y-104483361D01*
X149845389Y-104728165D01*
X149747907Y-104989525D01*
X149688619Y-105262069D01*
X149688618Y-105262076D01*
X149668719Y-105540298D01*
X149668719Y-105540301D01*
X138605966Y-105540301D01*
X138655777Y-105490490D01*
X138655781Y-105490484D01*
X138745752Y-105347297D01*
X138745754Y-105347294D01*
X138745754Y-105347292D01*
X138745756Y-105347290D01*
X138801613Y-105187659D01*
X138801613Y-105187658D01*
X138801614Y-105187656D01*
X138820549Y-105019602D01*
X138820549Y-105019597D01*
X138801614Y-104851543D01*
X138758442Y-104728165D01*
X138745756Y-104691910D01*
X138745755Y-104691909D01*
X138745754Y-104691905D01*
X138745752Y-104691902D01*
X138655781Y-104548715D01*
X138655776Y-104548709D01*
X138536190Y-104429123D01*
X138536184Y-104429118D01*
X138392997Y-104339147D01*
X138392994Y-104339145D01*
X138233356Y-104283285D01*
X138065303Y-104264351D01*
X138065297Y-104264351D01*
X137897243Y-104283285D01*
X137737605Y-104339145D01*
X137737602Y-104339147D01*
X137594415Y-104429118D01*
X137594409Y-104429123D01*
X137474823Y-104548709D01*
X137474818Y-104548715D01*
X137384847Y-104691902D01*
X137384845Y-104691905D01*
X137328985Y-104851543D01*
X137310051Y-105019597D01*
X137310051Y-105019602D01*
X131218410Y-105019602D01*
X131185697Y-104999047D01*
X131185694Y-104999045D01*
X131026056Y-104943185D01*
X130858003Y-104924251D01*
X130857997Y-104924251D01*
X130689943Y-104943185D01*
X130530305Y-104999045D01*
X130530302Y-104999047D01*
X130387115Y-105089018D01*
X130387109Y-105089023D01*
X130267523Y-105208609D01*
X130267518Y-105208615D01*
X130177547Y-105351802D01*
X130177545Y-105351805D01*
X130121685Y-105511443D01*
X130102751Y-105679497D01*
X130102751Y-105679502D01*
X120019225Y-105679502D01*
X120028949Y-105593202D01*
X120028949Y-105593197D01*
X120010014Y-105425143D01*
X119963350Y-105291785D01*
X119954156Y-105265510D01*
X119954155Y-105265509D01*
X119954154Y-105265505D01*
X119954152Y-105265502D01*
X119864181Y-105122315D01*
X119864176Y-105122309D01*
X119744590Y-105002723D01*
X119744584Y-105002718D01*
X119601397Y-104912747D01*
X119601394Y-104912745D01*
X119441756Y-104856885D01*
X119273703Y-104837951D01*
X119273697Y-104837951D01*
X119105643Y-104856885D01*
X118946005Y-104912745D01*
X118946002Y-104912747D01*
X118802815Y-105002718D01*
X118802809Y-105002723D01*
X118683223Y-105122309D01*
X118683218Y-105122315D01*
X118593247Y-105265502D01*
X118593245Y-105265505D01*
X118537385Y-105425143D01*
X118518451Y-105593197D01*
X118518451Y-105593202D01*
X118537385Y-105761256D01*
X118593245Y-105920894D01*
X118593247Y-105920897D01*
X118683218Y-106064084D01*
X118683223Y-106064090D01*
X118686402Y-106067269D01*
X118719887Y-106128592D01*
X118714903Y-106198284D01*
X118686402Y-106242631D01*
X118683223Y-106245809D01*
X118683218Y-106245815D01*
X118593247Y-106389002D01*
X118593245Y-106389005D01*
X118537385Y-106548643D01*
X118518451Y-106716697D01*
X118518451Y-106716702D01*
X111588810Y-106716702D01*
X111612090Y-106708556D01*
X111612092Y-106708554D01*
X111612094Y-106708554D01*
X111612097Y-106708552D01*
X111755284Y-106618581D01*
X111755285Y-106618580D01*
X111755290Y-106618577D01*
X111874877Y-106498990D01*
X111890026Y-106474881D01*
X111964852Y-106355797D01*
X111964854Y-106355794D01*
X111964854Y-106355792D01*
X111964856Y-106355790D01*
X112020713Y-106196159D01*
X112020713Y-106196158D01*
X112020714Y-106196156D01*
X112039649Y-106028102D01*
X112039649Y-106028097D01*
X112020714Y-105860043D01*
X111964854Y-105700405D01*
X111964852Y-105700402D01*
X111874881Y-105557215D01*
X111874876Y-105557209D01*
X111755290Y-105437623D01*
X111755284Y-105437618D01*
X111612097Y-105347647D01*
X111612094Y-105347645D01*
X111452456Y-105291785D01*
X111284403Y-105272851D01*
X111284397Y-105272851D01*
X111116343Y-105291785D01*
X110956705Y-105347645D01*
X110956702Y-105347647D01*
X110813515Y-105437618D01*
X110813508Y-105437624D01*
X110777062Y-105474070D01*
X110715739Y-105507555D01*
X110646047Y-105502569D01*
X110590114Y-105460697D01*
X110584388Y-105452360D01*
X110575125Y-105437618D01*
X110559977Y-105413510D01*
X110440390Y-105293923D01*
X110440384Y-105293918D01*
X110297197Y-105203947D01*
X110297194Y-105203945D01*
X110137556Y-105148085D01*
X109969503Y-105129151D01*
X109969497Y-105129151D01*
X109801443Y-105148085D01*
X109641805Y-105203945D01*
X109641802Y-105203947D01*
X109498615Y-105293918D01*
X109498609Y-105293923D01*
X109379023Y-105413509D01*
X109379018Y-105413515D01*
X109289047Y-105556702D01*
X109289045Y-105556705D01*
X109233185Y-105716343D01*
X109214251Y-105884397D01*
X109214251Y-105884402D01*
X101084845Y-105884402D01*
X101090481Y-105805601D01*
X101090481Y-105805598D01*
X101070581Y-105527376D01*
X101070580Y-105527369D01*
X101011292Y-105254825D01*
X100913810Y-104993465D01*
X100780138Y-104748661D01*
X100679896Y-104614755D01*
X100179178Y-105115473D01*
X100088946Y-104991280D01*
X99949820Y-104852154D01*
X99825625Y-104761920D01*
X100326343Y-104261202D01*
X100192438Y-104160962D01*
X100192438Y-104160961D01*
X99947634Y-104027289D01*
X99686274Y-103929807D01*
X99413730Y-103870519D01*
X99413723Y-103870518D01*
X99135501Y-103850619D01*
X99135499Y-103850619D01*
X98857276Y-103870518D01*
X98857269Y-103870519D01*
X98584725Y-103929807D01*
X98323365Y-104027289D01*
X98078561Y-104160961D01*
X98078554Y-104160966D01*
X97944656Y-104261201D01*
X97944655Y-104261202D01*
X98445374Y-104761920D01*
X98321180Y-104852154D01*
X98182054Y-104991280D01*
X98091820Y-105115473D01*
X97591102Y-104614755D01*
X97591101Y-104614756D01*
X97490866Y-104748654D01*
X97490861Y-104748661D01*
X97357189Y-104993465D01*
X97259707Y-105254825D01*
X97200419Y-105527369D01*
X97200418Y-105527376D01*
X97180519Y-105805598D01*
X97180519Y-105805601D01*
X95940000Y-105805601D01*
X95940000Y-102704000D01*
X95959685Y-102636961D01*
X96012489Y-102591206D01*
X96064000Y-102580000D01*
X154816000Y-102580000D01*
X154883039Y-102599685D01*
G37*
%TD.AperFunction*%
%TD*%
D18*
X112839000Y-115749000D03*
X112861000Y-116372000D03*
X117578500Y-116327300D03*
X147713000Y-121022000D03*
X115690000Y-110507000D03*
X102218000Y-124824000D03*
X116704000Y-121103000D03*
X105840000Y-116050000D03*
X129597000Y-118693000D03*
X140651000Y-110443000D03*
X105818000Y-116673000D03*
X120445000Y-118727000D03*
X129625000Y-120011000D03*
X106701000Y-103953000D03*
X123251000Y-110718000D03*
X119414000Y-121276000D03*
X115351000Y-122126000D03*
X113571000Y-104704000D03*
X108974000Y-130693000D03*
X109962000Y-130693000D03*
X134239000Y-120667000D03*
X116616000Y-117248000D03*
X108116000Y-130672000D03*
X138970000Y-104783000D03*
X131941000Y-104210000D03*
X125093000Y-120667000D03*
X148787000Y-117380000D03*
X142710000Y-118541000D03*
X103693000Y-121761000D03*
X120509000Y-120009000D03*
X108116000Y-119399000D03*
X147714000Y-117323000D03*
X111284400Y-106028100D03*
X138065300Y-105019600D03*
X106999800Y-121196400D03*
X106999800Y-119951000D03*
X135492000Y-116089000D03*
X141251300Y-116521500D03*
X141314600Y-121856700D03*
X109969500Y-105884400D03*
X113440500Y-107892100D03*
X106396700Y-109296900D03*
X130858000Y-105679500D03*
X133246600Y-110444500D03*
X127113900Y-114986500D03*
X119273700Y-105593200D03*
X119273700Y-106716700D03*
X127218000Y-116319000D03*
X145010100Y-121675000D03*
X112005800Y-122754600D03*
X111742800Y-119120200D03*
X119914300Y-117043900D03*
X120795500Y-120658600D03*
X147862000Y-119272600D03*
D19*
X99231900Y-118060200D03*
X99231900Y-120560200D03*
X142126500Y-128646400D03*
X144626500Y-128646400D03*
X99135500Y-105805600D03*
X98864800Y-128804100D03*
X105636700Y-128646400D03*
X108136700Y-128646400D03*
X110636700Y-128646400D03*
X117766800Y-128646400D03*
X120266800Y-128646400D03*
X122766800Y-128646400D03*
X151623700Y-128804100D03*
X151623700Y-105540300D03*
M02*
