M48
; DRILL file {KiCad 8.0.0} date 2024-03-25T10:57:50+0100
; FORMAT={-:-/ absolute / metric / decimal}
; #@! TF.CreationDate,2024-03-25T10:57:50+01:00
; #@! TF.GenerationSoftware,Kicad,Pcbnew,8.0.0
; #@! TF.FileFunction,MixedPlating,1,4
FMAT,2
METRIC
; #@! TA.AperFunction,Plated,PTH,ViaDrill
T1C0.300
; #@! TA.AperFunction,Plated,PTH,ComponentDrill
T2C0.950
; #@! TA.AperFunction,Plated,PTH,ComponentDrill
T3C1.000
; #@! TA.AperFunction,Plated,PTH,ComponentDrill
T4C2.500
%
G90
G05
T1
X102.218Y-124.824
X103.693Y-121.761
X105.818Y-116.673
X105.84Y-116.05
X106.397Y-109.297
X106.701Y-103.953
X107.0Y-119.951
X107.0Y-121.196
X108.116Y-119.399
X108.116Y-130.672
X108.974Y-130.693
X109.962Y-130.693
X109.969Y-105.884
X111.284Y-106.028
X111.743Y-119.12
X112.006Y-122.755
X112.839Y-115.749
X112.861Y-116.372
X113.441Y-107.892
X113.571Y-104.704
X115.351Y-122.126
X115.69Y-110.507
X116.616Y-117.248
X116.704Y-121.103
X117.578Y-116.327
X119.274Y-105.593
X119.274Y-106.717
X119.414Y-121.276
X119.914Y-117.044
X120.445Y-118.727
X120.509Y-120.009
X120.795Y-120.659
X123.251Y-110.718
X125.093Y-120.667
X127.114Y-114.986
X127.218Y-116.319
X129.597Y-118.693
X129.625Y-120.011
X130.858Y-105.679
X131.941Y-104.21
X133.247Y-110.444
X134.239Y-120.667
X135.492Y-116.089
X138.065Y-105.02
X138.97Y-104.783
X140.651Y-110.443
X141.251Y-116.521
X141.315Y-121.857
X142.71Y-118.541
X145.01Y-121.675
X147.713Y-121.022
X147.714Y-117.323
X147.862Y-119.273
X148.787Y-117.38
T2
X105.637Y-128.646
X108.137Y-128.646
X110.637Y-128.646
X117.767Y-128.646
X120.267Y-128.646
X122.767Y-128.646
T3
X99.232Y-118.06
X99.232Y-120.56
X142.126Y-128.646
X144.626Y-128.646
T4
X98.865Y-128.804
X99.135Y-105.806
X151.624Y-105.54
X151.624Y-128.804
M30
