%TF.GenerationSoftware,KiCad,Pcbnew,8.0.0*%
%TF.CreationDate,2024-03-25T10:57:50+01:00*%
%TF.ProjectId,MicAmp,4d696341-6d70-42e6-9b69-6361645f7063,v2*%
%TF.SameCoordinates,Original*%
%TF.FileFunction,Legend,Bot*%
%TF.FilePolarity,Positive*%
%FSLAX46Y46*%
G04 Gerber Fmt 4.6, Leading zero omitted, Abs format (unit mm)*
G04 Created by KiCad (PCBNEW 8.0.0) date 2024-03-25 10:57:50*
%MOMM*%
%LPD*%
G01*
G04 APERTURE LIST*
%ADD10C,0.100000*%
%ADD11C,0.350000*%
G04 APERTURE END LIST*
D10*
X109491807Y-112107437D02*
X109491807Y-111507437D01*
X109491807Y-111507437D02*
X109348950Y-111507437D01*
X109348950Y-111507437D02*
X109263236Y-111536008D01*
X109263236Y-111536008D02*
X109206093Y-111593151D01*
X109206093Y-111593151D02*
X109177522Y-111650294D01*
X109177522Y-111650294D02*
X109148950Y-111764580D01*
X109148950Y-111764580D02*
X109148950Y-111850294D01*
X109148950Y-111850294D02*
X109177522Y-111964580D01*
X109177522Y-111964580D02*
X109206093Y-112021723D01*
X109206093Y-112021723D02*
X109263236Y-112078866D01*
X109263236Y-112078866D02*
X109348950Y-112107437D01*
X109348950Y-112107437D02*
X109491807Y-112107437D01*
X108577522Y-112107437D02*
X108920379Y-112107437D01*
X108748950Y-112107437D02*
X108748950Y-111507437D01*
X108748950Y-111507437D02*
X108806093Y-111593151D01*
X108806093Y-111593151D02*
X108863236Y-111650294D01*
X108863236Y-111650294D02*
X108920379Y-111678866D01*
X130436990Y-105614230D02*
X130636990Y-105328516D01*
X130779847Y-105614230D02*
X130779847Y-105014230D01*
X130779847Y-105014230D02*
X130551276Y-105014230D01*
X130551276Y-105014230D02*
X130494133Y-105042801D01*
X130494133Y-105042801D02*
X130465562Y-105071373D01*
X130465562Y-105071373D02*
X130436990Y-105128516D01*
X130436990Y-105128516D02*
X130436990Y-105214230D01*
X130436990Y-105214230D02*
X130465562Y-105271373D01*
X130465562Y-105271373D02*
X130494133Y-105299944D01*
X130494133Y-105299944D02*
X130551276Y-105328516D01*
X130551276Y-105328516D02*
X130779847Y-105328516D01*
X129894133Y-105014230D02*
X130179847Y-105014230D01*
X130179847Y-105014230D02*
X130208419Y-105299944D01*
X130208419Y-105299944D02*
X130179847Y-105271373D01*
X130179847Y-105271373D02*
X130122705Y-105242801D01*
X130122705Y-105242801D02*
X129979847Y-105242801D01*
X129979847Y-105242801D02*
X129922705Y-105271373D01*
X129922705Y-105271373D02*
X129894133Y-105299944D01*
X129894133Y-105299944D02*
X129865562Y-105357087D01*
X129865562Y-105357087D02*
X129865562Y-105499944D01*
X129865562Y-105499944D02*
X129894133Y-105557087D01*
X129894133Y-105557087D02*
X129922705Y-105585659D01*
X129922705Y-105585659D02*
X129979847Y-105614230D01*
X129979847Y-105614230D02*
X130122705Y-105614230D01*
X130122705Y-105614230D02*
X130179847Y-105585659D01*
X130179847Y-105585659D02*
X130208419Y-105557087D01*
X118381199Y-125013860D02*
X118581199Y-124728146D01*
X118724056Y-125013860D02*
X118724056Y-124413860D01*
X118724056Y-124413860D02*
X118495485Y-124413860D01*
X118495485Y-124413860D02*
X118438342Y-124442431D01*
X118438342Y-124442431D02*
X118409771Y-124471003D01*
X118409771Y-124471003D02*
X118381199Y-124528146D01*
X118381199Y-124528146D02*
X118381199Y-124613860D01*
X118381199Y-124613860D02*
X118409771Y-124671003D01*
X118409771Y-124671003D02*
X118438342Y-124699574D01*
X118438342Y-124699574D02*
X118495485Y-124728146D01*
X118495485Y-124728146D02*
X118724056Y-124728146D01*
X118038342Y-124671003D02*
X118095485Y-124642431D01*
X118095485Y-124642431D02*
X118124056Y-124613860D01*
X118124056Y-124613860D02*
X118152628Y-124556717D01*
X118152628Y-124556717D02*
X118152628Y-124528146D01*
X118152628Y-124528146D02*
X118124056Y-124471003D01*
X118124056Y-124471003D02*
X118095485Y-124442431D01*
X118095485Y-124442431D02*
X118038342Y-124413860D01*
X118038342Y-124413860D02*
X117924056Y-124413860D01*
X117924056Y-124413860D02*
X117866914Y-124442431D01*
X117866914Y-124442431D02*
X117838342Y-124471003D01*
X117838342Y-124471003D02*
X117809771Y-124528146D01*
X117809771Y-124528146D02*
X117809771Y-124556717D01*
X117809771Y-124556717D02*
X117838342Y-124613860D01*
X117838342Y-124613860D02*
X117866914Y-124642431D01*
X117866914Y-124642431D02*
X117924056Y-124671003D01*
X117924056Y-124671003D02*
X118038342Y-124671003D01*
X118038342Y-124671003D02*
X118095485Y-124699574D01*
X118095485Y-124699574D02*
X118124056Y-124728146D01*
X118124056Y-124728146D02*
X118152628Y-124785289D01*
X118152628Y-124785289D02*
X118152628Y-124899574D01*
X118152628Y-124899574D02*
X118124056Y-124956717D01*
X118124056Y-124956717D02*
X118095485Y-124985289D01*
X118095485Y-124985289D02*
X118038342Y-125013860D01*
X118038342Y-125013860D02*
X117924056Y-125013860D01*
X117924056Y-125013860D02*
X117866914Y-124985289D01*
X117866914Y-124985289D02*
X117838342Y-124956717D01*
X117838342Y-124956717D02*
X117809771Y-124899574D01*
X117809771Y-124899574D02*
X117809771Y-124785289D01*
X117809771Y-124785289D02*
X117838342Y-124728146D01*
X117838342Y-124728146D02*
X117866914Y-124699574D01*
X117866914Y-124699574D02*
X117924056Y-124671003D01*
X118608495Y-115512984D02*
X118322781Y-115312984D01*
X118608495Y-115170127D02*
X118008495Y-115170127D01*
X118008495Y-115170127D02*
X118008495Y-115398698D01*
X118008495Y-115398698D02*
X118037066Y-115455841D01*
X118037066Y-115455841D02*
X118065638Y-115484412D01*
X118065638Y-115484412D02*
X118122781Y-115512984D01*
X118122781Y-115512984D02*
X118208495Y-115512984D01*
X118208495Y-115512984D02*
X118265638Y-115484412D01*
X118265638Y-115484412D02*
X118294209Y-115455841D01*
X118294209Y-115455841D02*
X118322781Y-115398698D01*
X118322781Y-115398698D02*
X118322781Y-115170127D01*
X118608495Y-115798698D02*
X118608495Y-115912984D01*
X118608495Y-115912984D02*
X118579924Y-115970127D01*
X118579924Y-115970127D02*
X118551352Y-115998698D01*
X118551352Y-115998698D02*
X118465638Y-116055841D01*
X118465638Y-116055841D02*
X118351352Y-116084412D01*
X118351352Y-116084412D02*
X118122781Y-116084412D01*
X118122781Y-116084412D02*
X118065638Y-116055841D01*
X118065638Y-116055841D02*
X118037066Y-116027270D01*
X118037066Y-116027270D02*
X118008495Y-115970127D01*
X118008495Y-115970127D02*
X118008495Y-115855841D01*
X118008495Y-115855841D02*
X118037066Y-115798698D01*
X118037066Y-115798698D02*
X118065638Y-115770127D01*
X118065638Y-115770127D02*
X118122781Y-115741555D01*
X118122781Y-115741555D02*
X118265638Y-115741555D01*
X118265638Y-115741555D02*
X118322781Y-115770127D01*
X118322781Y-115770127D02*
X118351352Y-115798698D01*
X118351352Y-115798698D02*
X118379924Y-115855841D01*
X118379924Y-115855841D02*
X118379924Y-115970127D01*
X118379924Y-115970127D02*
X118351352Y-116027270D01*
X118351352Y-116027270D02*
X118322781Y-116055841D01*
X118322781Y-116055841D02*
X118265638Y-116084412D01*
X132106815Y-112107389D02*
X132106815Y-111507389D01*
X132106815Y-111507389D02*
X131963958Y-111507389D01*
X131963958Y-111507389D02*
X131878244Y-111535960D01*
X131878244Y-111535960D02*
X131821101Y-111593103D01*
X131821101Y-111593103D02*
X131792530Y-111650246D01*
X131792530Y-111650246D02*
X131763958Y-111764532D01*
X131763958Y-111764532D02*
X131763958Y-111850246D01*
X131763958Y-111850246D02*
X131792530Y-111964532D01*
X131792530Y-111964532D02*
X131821101Y-112021675D01*
X131821101Y-112021675D02*
X131878244Y-112078818D01*
X131878244Y-112078818D02*
X131963958Y-112107389D01*
X131963958Y-112107389D02*
X132106815Y-112107389D01*
X131249673Y-111707389D02*
X131249673Y-112107389D01*
X131392530Y-111478818D02*
X131535387Y-111907389D01*
X131535387Y-111907389D02*
X131163958Y-111907389D01*
X134253942Y-125358559D02*
X134453942Y-125072845D01*
X134596799Y-125358559D02*
X134596799Y-124758559D01*
X134596799Y-124758559D02*
X134368228Y-124758559D01*
X134368228Y-124758559D02*
X134311085Y-124787130D01*
X134311085Y-124787130D02*
X134282514Y-124815702D01*
X134282514Y-124815702D02*
X134253942Y-124872845D01*
X134253942Y-124872845D02*
X134253942Y-124958559D01*
X134253942Y-124958559D02*
X134282514Y-125015702D01*
X134282514Y-125015702D02*
X134311085Y-125044273D01*
X134311085Y-125044273D02*
X134368228Y-125072845D01*
X134368228Y-125072845D02*
X134596799Y-125072845D01*
X133682514Y-125358559D02*
X134025371Y-125358559D01*
X133853942Y-125358559D02*
X133853942Y-124758559D01*
X133853942Y-124758559D02*
X133911085Y-124844273D01*
X133911085Y-124844273D02*
X133968228Y-124901416D01*
X133968228Y-124901416D02*
X134025371Y-124929988D01*
X133339656Y-125015702D02*
X133396799Y-124987130D01*
X133396799Y-124987130D02*
X133425370Y-124958559D01*
X133425370Y-124958559D02*
X133453942Y-124901416D01*
X133453942Y-124901416D02*
X133453942Y-124872845D01*
X133453942Y-124872845D02*
X133425370Y-124815702D01*
X133425370Y-124815702D02*
X133396799Y-124787130D01*
X133396799Y-124787130D02*
X133339656Y-124758559D01*
X133339656Y-124758559D02*
X133225370Y-124758559D01*
X133225370Y-124758559D02*
X133168228Y-124787130D01*
X133168228Y-124787130D02*
X133139656Y-124815702D01*
X133139656Y-124815702D02*
X133111085Y-124872845D01*
X133111085Y-124872845D02*
X133111085Y-124901416D01*
X133111085Y-124901416D02*
X133139656Y-124958559D01*
X133139656Y-124958559D02*
X133168228Y-124987130D01*
X133168228Y-124987130D02*
X133225370Y-125015702D01*
X133225370Y-125015702D02*
X133339656Y-125015702D01*
X133339656Y-125015702D02*
X133396799Y-125044273D01*
X133396799Y-125044273D02*
X133425370Y-125072845D01*
X133425370Y-125072845D02*
X133453942Y-125129988D01*
X133453942Y-125129988D02*
X133453942Y-125244273D01*
X133453942Y-125244273D02*
X133425370Y-125301416D01*
X133425370Y-125301416D02*
X133396799Y-125329988D01*
X133396799Y-125329988D02*
X133339656Y-125358559D01*
X133339656Y-125358559D02*
X133225370Y-125358559D01*
X133225370Y-125358559D02*
X133168228Y-125329988D01*
X133168228Y-125329988D02*
X133139656Y-125301416D01*
X133139656Y-125301416D02*
X133111085Y-125244273D01*
X133111085Y-125244273D02*
X133111085Y-125129988D01*
X133111085Y-125129988D02*
X133139656Y-125072845D01*
X133139656Y-125072845D02*
X133168228Y-125044273D01*
X133168228Y-125044273D02*
X133225370Y-125015702D01*
X143272628Y-114225203D02*
X143472628Y-113939489D01*
X143615485Y-114225203D02*
X143615485Y-113625203D01*
X143615485Y-113625203D02*
X143386914Y-113625203D01*
X143386914Y-113625203D02*
X143329771Y-113653774D01*
X143329771Y-113653774D02*
X143301200Y-113682346D01*
X143301200Y-113682346D02*
X143272628Y-113739489D01*
X143272628Y-113739489D02*
X143272628Y-113825203D01*
X143272628Y-113825203D02*
X143301200Y-113882346D01*
X143301200Y-113882346D02*
X143329771Y-113910917D01*
X143329771Y-113910917D02*
X143386914Y-113939489D01*
X143386914Y-113939489D02*
X143615485Y-113939489D01*
X142701200Y-114225203D02*
X143044057Y-114225203D01*
X142872628Y-114225203D02*
X142872628Y-113625203D01*
X142872628Y-113625203D02*
X142929771Y-113710917D01*
X142929771Y-113710917D02*
X142986914Y-113768060D01*
X142986914Y-113768060D02*
X143044057Y-113796632D01*
X142186914Y-113825203D02*
X142186914Y-114225203D01*
X142329771Y-113596632D02*
X142472628Y-114025203D01*
X142472628Y-114025203D02*
X142101199Y-114025203D01*
X114460125Y-125159849D02*
X114488697Y-125188421D01*
X114488697Y-125188421D02*
X114574411Y-125216992D01*
X114574411Y-125216992D02*
X114631554Y-125216992D01*
X114631554Y-125216992D02*
X114717268Y-125188421D01*
X114717268Y-125188421D02*
X114774411Y-125131278D01*
X114774411Y-125131278D02*
X114802982Y-125074135D01*
X114802982Y-125074135D02*
X114831554Y-124959849D01*
X114831554Y-124959849D02*
X114831554Y-124874135D01*
X114831554Y-124874135D02*
X114802982Y-124759849D01*
X114802982Y-124759849D02*
X114774411Y-124702706D01*
X114774411Y-124702706D02*
X114717268Y-124645563D01*
X114717268Y-124645563D02*
X114631554Y-124616992D01*
X114631554Y-124616992D02*
X114574411Y-124616992D01*
X114574411Y-124616992D02*
X114488697Y-124645563D01*
X114488697Y-124645563D02*
X114460125Y-124674135D01*
X114260125Y-124616992D02*
X113860125Y-124616992D01*
X113860125Y-124616992D02*
X114117268Y-125216992D01*
X130441025Y-125289857D02*
X130641025Y-125004143D01*
X130783882Y-125289857D02*
X130783882Y-124689857D01*
X130783882Y-124689857D02*
X130555311Y-124689857D01*
X130555311Y-124689857D02*
X130498168Y-124718428D01*
X130498168Y-124718428D02*
X130469597Y-124747000D01*
X130469597Y-124747000D02*
X130441025Y-124804143D01*
X130441025Y-124804143D02*
X130441025Y-124889857D01*
X130441025Y-124889857D02*
X130469597Y-124947000D01*
X130469597Y-124947000D02*
X130498168Y-124975571D01*
X130498168Y-124975571D02*
X130555311Y-125004143D01*
X130555311Y-125004143D02*
X130783882Y-125004143D01*
X129869597Y-125289857D02*
X130212454Y-125289857D01*
X130041025Y-125289857D02*
X130041025Y-124689857D01*
X130041025Y-124689857D02*
X130098168Y-124775571D01*
X130098168Y-124775571D02*
X130155311Y-124832714D01*
X130155311Y-124832714D02*
X130212454Y-124861286D01*
X129669596Y-124689857D02*
X129269596Y-124689857D01*
X129269596Y-124689857D02*
X129526739Y-125289857D01*
X142324449Y-125075922D02*
X142524449Y-124790208D01*
X142667306Y-125075922D02*
X142667306Y-124475922D01*
X142667306Y-124475922D02*
X142438735Y-124475922D01*
X142438735Y-124475922D02*
X142381592Y-124504493D01*
X142381592Y-124504493D02*
X142353021Y-124533065D01*
X142353021Y-124533065D02*
X142324449Y-124590208D01*
X142324449Y-124590208D02*
X142324449Y-124675922D01*
X142324449Y-124675922D02*
X142353021Y-124733065D01*
X142353021Y-124733065D02*
X142381592Y-124761636D01*
X142381592Y-124761636D02*
X142438735Y-124790208D01*
X142438735Y-124790208D02*
X142667306Y-124790208D01*
X141753021Y-125075922D02*
X142095878Y-125075922D01*
X141924449Y-125075922D02*
X141924449Y-124475922D01*
X141924449Y-124475922D02*
X141981592Y-124561636D01*
X141981592Y-124561636D02*
X142038735Y-124618779D01*
X142038735Y-124618779D02*
X142095878Y-124647351D01*
X141210163Y-124475922D02*
X141495877Y-124475922D01*
X141495877Y-124475922D02*
X141524449Y-124761636D01*
X141524449Y-124761636D02*
X141495877Y-124733065D01*
X141495877Y-124733065D02*
X141438735Y-124704493D01*
X141438735Y-124704493D02*
X141295877Y-124704493D01*
X141295877Y-124704493D02*
X141238735Y-124733065D01*
X141238735Y-124733065D02*
X141210163Y-124761636D01*
X141210163Y-124761636D02*
X141181592Y-124818779D01*
X141181592Y-124818779D02*
X141181592Y-124961636D01*
X141181592Y-124961636D02*
X141210163Y-125018779D01*
X141210163Y-125018779D02*
X141238735Y-125047351D01*
X141238735Y-125047351D02*
X141295877Y-125075922D01*
X141295877Y-125075922D02*
X141438735Y-125075922D01*
X141438735Y-125075922D02*
X141495877Y-125047351D01*
X141495877Y-125047351D02*
X141524449Y-125018779D01*
X119708541Y-109720653D02*
X119908541Y-109434939D01*
X120051398Y-109720653D02*
X120051398Y-109120653D01*
X120051398Y-109120653D02*
X119822827Y-109120653D01*
X119822827Y-109120653D02*
X119765684Y-109149224D01*
X119765684Y-109149224D02*
X119737113Y-109177796D01*
X119737113Y-109177796D02*
X119708541Y-109234939D01*
X119708541Y-109234939D02*
X119708541Y-109320653D01*
X119708541Y-109320653D02*
X119737113Y-109377796D01*
X119737113Y-109377796D02*
X119765684Y-109406367D01*
X119765684Y-109406367D02*
X119822827Y-109434939D01*
X119822827Y-109434939D02*
X120051398Y-109434939D01*
X119479970Y-109177796D02*
X119451398Y-109149224D01*
X119451398Y-109149224D02*
X119394256Y-109120653D01*
X119394256Y-109120653D02*
X119251398Y-109120653D01*
X119251398Y-109120653D02*
X119194256Y-109149224D01*
X119194256Y-109149224D02*
X119165684Y-109177796D01*
X119165684Y-109177796D02*
X119137113Y-109234939D01*
X119137113Y-109234939D02*
X119137113Y-109292082D01*
X119137113Y-109292082D02*
X119165684Y-109377796D01*
X119165684Y-109377796D02*
X119508541Y-109720653D01*
X119508541Y-109720653D02*
X119137113Y-109720653D01*
X104929065Y-105180497D02*
X105214779Y-105380497D01*
X104929065Y-105523354D02*
X105529065Y-105523354D01*
X105529065Y-105523354D02*
X105529065Y-105294783D01*
X105529065Y-105294783D02*
X105500494Y-105237640D01*
X105500494Y-105237640D02*
X105471922Y-105209069D01*
X105471922Y-105209069D02*
X105414779Y-105180497D01*
X105414779Y-105180497D02*
X105329065Y-105180497D01*
X105329065Y-105180497D02*
X105271922Y-105209069D01*
X105271922Y-105209069D02*
X105243351Y-105237640D01*
X105243351Y-105237640D02*
X105214779Y-105294783D01*
X105214779Y-105294783D02*
X105214779Y-105523354D01*
X105329065Y-104666212D02*
X104929065Y-104666212D01*
X105557637Y-104809069D02*
X105129065Y-104951926D01*
X105129065Y-104951926D02*
X105129065Y-104580497D01*
X121910671Y-109586301D02*
X121939243Y-109614873D01*
X121939243Y-109614873D02*
X122024957Y-109643444D01*
X122024957Y-109643444D02*
X122082100Y-109643444D01*
X122082100Y-109643444D02*
X122167814Y-109614873D01*
X122167814Y-109614873D02*
X122224957Y-109557730D01*
X122224957Y-109557730D02*
X122253528Y-109500587D01*
X122253528Y-109500587D02*
X122282100Y-109386301D01*
X122282100Y-109386301D02*
X122282100Y-109300587D01*
X122282100Y-109300587D02*
X122253528Y-109186301D01*
X122253528Y-109186301D02*
X122224957Y-109129158D01*
X122224957Y-109129158D02*
X122167814Y-109072015D01*
X122167814Y-109072015D02*
X122082100Y-109043444D01*
X122082100Y-109043444D02*
X122024957Y-109043444D01*
X122024957Y-109043444D02*
X121939243Y-109072015D01*
X121939243Y-109072015D02*
X121910671Y-109100587D01*
X121339243Y-109643444D02*
X121682100Y-109643444D01*
X121510671Y-109643444D02*
X121510671Y-109043444D01*
X121510671Y-109043444D02*
X121567814Y-109129158D01*
X121567814Y-109129158D02*
X121624957Y-109186301D01*
X121624957Y-109186301D02*
X121682100Y-109214873D01*
X106713092Y-112150144D02*
X106713092Y-111550144D01*
X106713092Y-111550144D02*
X106570235Y-111550144D01*
X106570235Y-111550144D02*
X106484521Y-111578715D01*
X106484521Y-111578715D02*
X106427378Y-111635858D01*
X106427378Y-111635858D02*
X106398807Y-111693001D01*
X106398807Y-111693001D02*
X106370235Y-111807287D01*
X106370235Y-111807287D02*
X106370235Y-111893001D01*
X106370235Y-111893001D02*
X106398807Y-112007287D01*
X106398807Y-112007287D02*
X106427378Y-112064430D01*
X106427378Y-112064430D02*
X106484521Y-112121573D01*
X106484521Y-112121573D02*
X106570235Y-112150144D01*
X106570235Y-112150144D02*
X106713092Y-112150144D01*
X106141664Y-111607287D02*
X106113092Y-111578715D01*
X106113092Y-111578715D02*
X106055950Y-111550144D01*
X106055950Y-111550144D02*
X105913092Y-111550144D01*
X105913092Y-111550144D02*
X105855950Y-111578715D01*
X105855950Y-111578715D02*
X105827378Y-111607287D01*
X105827378Y-111607287D02*
X105798807Y-111664430D01*
X105798807Y-111664430D02*
X105798807Y-111721573D01*
X105798807Y-111721573D02*
X105827378Y-111807287D01*
X105827378Y-111807287D02*
X106170235Y-112150144D01*
X106170235Y-112150144D02*
X105798807Y-112150144D01*
X109804602Y-125148543D02*
X109833174Y-125177115D01*
X109833174Y-125177115D02*
X109918888Y-125205686D01*
X109918888Y-125205686D02*
X109976031Y-125205686D01*
X109976031Y-125205686D02*
X110061745Y-125177115D01*
X110061745Y-125177115D02*
X110118888Y-125119972D01*
X110118888Y-125119972D02*
X110147459Y-125062829D01*
X110147459Y-125062829D02*
X110176031Y-124948543D01*
X110176031Y-124948543D02*
X110176031Y-124862829D01*
X110176031Y-124862829D02*
X110147459Y-124748543D01*
X110147459Y-124748543D02*
X110118888Y-124691400D01*
X110118888Y-124691400D02*
X110061745Y-124634257D01*
X110061745Y-124634257D02*
X109976031Y-124605686D01*
X109976031Y-124605686D02*
X109918888Y-124605686D01*
X109918888Y-124605686D02*
X109833174Y-124634257D01*
X109833174Y-124634257D02*
X109804602Y-124662829D01*
X109290317Y-124605686D02*
X109404602Y-124605686D01*
X109404602Y-124605686D02*
X109461745Y-124634257D01*
X109461745Y-124634257D02*
X109490317Y-124662829D01*
X109490317Y-124662829D02*
X109547459Y-124748543D01*
X109547459Y-124748543D02*
X109576031Y-124862829D01*
X109576031Y-124862829D02*
X109576031Y-125091400D01*
X109576031Y-125091400D02*
X109547459Y-125148543D01*
X109547459Y-125148543D02*
X109518888Y-125177115D01*
X109518888Y-125177115D02*
X109461745Y-125205686D01*
X109461745Y-125205686D02*
X109347459Y-125205686D01*
X109347459Y-125205686D02*
X109290317Y-125177115D01*
X109290317Y-125177115D02*
X109261745Y-125148543D01*
X109261745Y-125148543D02*
X109233174Y-125091400D01*
X109233174Y-125091400D02*
X109233174Y-124948543D01*
X109233174Y-124948543D02*
X109261745Y-124891400D01*
X109261745Y-124891400D02*
X109290317Y-124862829D01*
X109290317Y-124862829D02*
X109347459Y-124834257D01*
X109347459Y-124834257D02*
X109461745Y-124834257D01*
X109461745Y-124834257D02*
X109518888Y-124862829D01*
X109518888Y-124862829D02*
X109547459Y-124891400D01*
X109547459Y-124891400D02*
X109576031Y-124948543D01*
X112695733Y-114373870D02*
X112895733Y-114088156D01*
X113038590Y-114373870D02*
X113038590Y-113773870D01*
X113038590Y-113773870D02*
X112810019Y-113773870D01*
X112810019Y-113773870D02*
X112752876Y-113802441D01*
X112752876Y-113802441D02*
X112724305Y-113831013D01*
X112724305Y-113831013D02*
X112695733Y-113888156D01*
X112695733Y-113888156D02*
X112695733Y-113973870D01*
X112695733Y-113973870D02*
X112724305Y-114031013D01*
X112724305Y-114031013D02*
X112752876Y-114059584D01*
X112752876Y-114059584D02*
X112810019Y-114088156D01*
X112810019Y-114088156D02*
X113038590Y-114088156D01*
X112181448Y-113773870D02*
X112295733Y-113773870D01*
X112295733Y-113773870D02*
X112352876Y-113802441D01*
X112352876Y-113802441D02*
X112381448Y-113831013D01*
X112381448Y-113831013D02*
X112438590Y-113916727D01*
X112438590Y-113916727D02*
X112467162Y-114031013D01*
X112467162Y-114031013D02*
X112467162Y-114259584D01*
X112467162Y-114259584D02*
X112438590Y-114316727D01*
X112438590Y-114316727D02*
X112410019Y-114345299D01*
X112410019Y-114345299D02*
X112352876Y-114373870D01*
X112352876Y-114373870D02*
X112238590Y-114373870D01*
X112238590Y-114373870D02*
X112181448Y-114345299D01*
X112181448Y-114345299D02*
X112152876Y-114316727D01*
X112152876Y-114316727D02*
X112124305Y-114259584D01*
X112124305Y-114259584D02*
X112124305Y-114116727D01*
X112124305Y-114116727D02*
X112152876Y-114059584D01*
X112152876Y-114059584D02*
X112181448Y-114031013D01*
X112181448Y-114031013D02*
X112238590Y-114002441D01*
X112238590Y-114002441D02*
X112352876Y-114002441D01*
X112352876Y-114002441D02*
X112410019Y-114031013D01*
X112410019Y-114031013D02*
X112438590Y-114059584D01*
X112438590Y-114059584D02*
X112467162Y-114116727D01*
X140483037Y-114076389D02*
X140511609Y-114104961D01*
X140511609Y-114104961D02*
X140597323Y-114133532D01*
X140597323Y-114133532D02*
X140654466Y-114133532D01*
X140654466Y-114133532D02*
X140740180Y-114104961D01*
X140740180Y-114104961D02*
X140797323Y-114047818D01*
X140797323Y-114047818D02*
X140825894Y-113990675D01*
X140825894Y-113990675D02*
X140854466Y-113876389D01*
X140854466Y-113876389D02*
X140854466Y-113790675D01*
X140854466Y-113790675D02*
X140825894Y-113676389D01*
X140825894Y-113676389D02*
X140797323Y-113619246D01*
X140797323Y-113619246D02*
X140740180Y-113562103D01*
X140740180Y-113562103D02*
X140654466Y-113533532D01*
X140654466Y-113533532D02*
X140597323Y-113533532D01*
X140597323Y-113533532D02*
X140511609Y-113562103D01*
X140511609Y-113562103D02*
X140483037Y-113590675D01*
X139940180Y-113533532D02*
X140225894Y-113533532D01*
X140225894Y-113533532D02*
X140254466Y-113819246D01*
X140254466Y-113819246D02*
X140225894Y-113790675D01*
X140225894Y-113790675D02*
X140168752Y-113762103D01*
X140168752Y-113762103D02*
X140025894Y-113762103D01*
X140025894Y-113762103D02*
X139968752Y-113790675D01*
X139968752Y-113790675D02*
X139940180Y-113819246D01*
X139940180Y-113819246D02*
X139911609Y-113876389D01*
X139911609Y-113876389D02*
X139911609Y-114019246D01*
X139911609Y-114019246D02*
X139940180Y-114076389D01*
X139940180Y-114076389D02*
X139968752Y-114104961D01*
X139968752Y-114104961D02*
X140025894Y-114133532D01*
X140025894Y-114133532D02*
X140168752Y-114133532D01*
X140168752Y-114133532D02*
X140225894Y-114104961D01*
X140225894Y-114104961D02*
X140254466Y-114076389D01*
X121857299Y-125439728D02*
X121885871Y-125468300D01*
X121885871Y-125468300D02*
X121971585Y-125496871D01*
X121971585Y-125496871D02*
X122028728Y-125496871D01*
X122028728Y-125496871D02*
X122114442Y-125468300D01*
X122114442Y-125468300D02*
X122171585Y-125411157D01*
X122171585Y-125411157D02*
X122200156Y-125354014D01*
X122200156Y-125354014D02*
X122228728Y-125239728D01*
X122228728Y-125239728D02*
X122228728Y-125154014D01*
X122228728Y-125154014D02*
X122200156Y-125039728D01*
X122200156Y-125039728D02*
X122171585Y-124982585D01*
X122171585Y-124982585D02*
X122114442Y-124925442D01*
X122114442Y-124925442D02*
X122028728Y-124896871D01*
X122028728Y-124896871D02*
X121971585Y-124896871D01*
X121971585Y-124896871D02*
X121885871Y-124925442D01*
X121885871Y-124925442D02*
X121857299Y-124954014D01*
X121514442Y-125154014D02*
X121571585Y-125125442D01*
X121571585Y-125125442D02*
X121600156Y-125096871D01*
X121600156Y-125096871D02*
X121628728Y-125039728D01*
X121628728Y-125039728D02*
X121628728Y-125011157D01*
X121628728Y-125011157D02*
X121600156Y-124954014D01*
X121600156Y-124954014D02*
X121571585Y-124925442D01*
X121571585Y-124925442D02*
X121514442Y-124896871D01*
X121514442Y-124896871D02*
X121400156Y-124896871D01*
X121400156Y-124896871D02*
X121343014Y-124925442D01*
X121343014Y-124925442D02*
X121314442Y-124954014D01*
X121314442Y-124954014D02*
X121285871Y-125011157D01*
X121285871Y-125011157D02*
X121285871Y-125039728D01*
X121285871Y-125039728D02*
X121314442Y-125096871D01*
X121314442Y-125096871D02*
X121343014Y-125125442D01*
X121343014Y-125125442D02*
X121400156Y-125154014D01*
X121400156Y-125154014D02*
X121514442Y-125154014D01*
X121514442Y-125154014D02*
X121571585Y-125182585D01*
X121571585Y-125182585D02*
X121600156Y-125211157D01*
X121600156Y-125211157D02*
X121628728Y-125268300D01*
X121628728Y-125268300D02*
X121628728Y-125382585D01*
X121628728Y-125382585D02*
X121600156Y-125439728D01*
X121600156Y-125439728D02*
X121571585Y-125468300D01*
X121571585Y-125468300D02*
X121514442Y-125496871D01*
X121514442Y-125496871D02*
X121400156Y-125496871D01*
X121400156Y-125496871D02*
X121343014Y-125468300D01*
X121343014Y-125468300D02*
X121314442Y-125439728D01*
X121314442Y-125439728D02*
X121285871Y-125382585D01*
X121285871Y-125382585D02*
X121285871Y-125268300D01*
X121285871Y-125268300D02*
X121314442Y-125211157D01*
X121314442Y-125211157D02*
X121343014Y-125182585D01*
X121343014Y-125182585D02*
X121400156Y-125154014D01*
X118807831Y-104644685D02*
X118779260Y-104673257D01*
X118779260Y-104673257D02*
X118750688Y-104758971D01*
X118750688Y-104758971D02*
X118750688Y-104816114D01*
X118750688Y-104816114D02*
X118779260Y-104901828D01*
X118779260Y-104901828D02*
X118836402Y-104958971D01*
X118836402Y-104958971D02*
X118893545Y-104987542D01*
X118893545Y-104987542D02*
X119007831Y-105016114D01*
X119007831Y-105016114D02*
X119093545Y-105016114D01*
X119093545Y-105016114D02*
X119207831Y-104987542D01*
X119207831Y-104987542D02*
X119264974Y-104958971D01*
X119264974Y-104958971D02*
X119322117Y-104901828D01*
X119322117Y-104901828D02*
X119350688Y-104816114D01*
X119350688Y-104816114D02*
X119350688Y-104758971D01*
X119350688Y-104758971D02*
X119322117Y-104673257D01*
X119322117Y-104673257D02*
X119293545Y-104644685D01*
X118750688Y-104358971D02*
X118750688Y-104244685D01*
X118750688Y-104244685D02*
X118779260Y-104187542D01*
X118779260Y-104187542D02*
X118807831Y-104158971D01*
X118807831Y-104158971D02*
X118893545Y-104101828D01*
X118893545Y-104101828D02*
X119007831Y-104073257D01*
X119007831Y-104073257D02*
X119236402Y-104073257D01*
X119236402Y-104073257D02*
X119293545Y-104101828D01*
X119293545Y-104101828D02*
X119322117Y-104130400D01*
X119322117Y-104130400D02*
X119350688Y-104187542D01*
X119350688Y-104187542D02*
X119350688Y-104301828D01*
X119350688Y-104301828D02*
X119322117Y-104358971D01*
X119322117Y-104358971D02*
X119293545Y-104387542D01*
X119293545Y-104387542D02*
X119236402Y-104416114D01*
X119236402Y-104416114D02*
X119093545Y-104416114D01*
X119093545Y-104416114D02*
X119036402Y-104387542D01*
X119036402Y-104387542D02*
X119007831Y-104358971D01*
X119007831Y-104358971D02*
X118979260Y-104301828D01*
X118979260Y-104301828D02*
X118979260Y-104187542D01*
X118979260Y-104187542D02*
X119007831Y-104130400D01*
X119007831Y-104130400D02*
X119036402Y-104101828D01*
X119036402Y-104101828D02*
X119093545Y-104073257D01*
X134671789Y-112107403D02*
X134671789Y-111507403D01*
X134671789Y-111507403D02*
X134528932Y-111507403D01*
X134528932Y-111507403D02*
X134443218Y-111535974D01*
X134443218Y-111535974D02*
X134386075Y-111593117D01*
X134386075Y-111593117D02*
X134357504Y-111650260D01*
X134357504Y-111650260D02*
X134328932Y-111764546D01*
X134328932Y-111764546D02*
X134328932Y-111850260D01*
X134328932Y-111850260D02*
X134357504Y-111964546D01*
X134357504Y-111964546D02*
X134386075Y-112021689D01*
X134386075Y-112021689D02*
X134443218Y-112078832D01*
X134443218Y-112078832D02*
X134528932Y-112107403D01*
X134528932Y-112107403D02*
X134671789Y-112107403D01*
X134128932Y-111507403D02*
X133757504Y-111507403D01*
X133757504Y-111507403D02*
X133957504Y-111735974D01*
X133957504Y-111735974D02*
X133871789Y-111735974D01*
X133871789Y-111735974D02*
X133814647Y-111764546D01*
X133814647Y-111764546D02*
X133786075Y-111793117D01*
X133786075Y-111793117D02*
X133757504Y-111850260D01*
X133757504Y-111850260D02*
X133757504Y-111993117D01*
X133757504Y-111993117D02*
X133786075Y-112050260D01*
X133786075Y-112050260D02*
X133814647Y-112078832D01*
X133814647Y-112078832D02*
X133871789Y-112107403D01*
X133871789Y-112107403D02*
X134043218Y-112107403D01*
X134043218Y-112107403D02*
X134100361Y-112078832D01*
X134100361Y-112078832D02*
X134128932Y-112050260D01*
X147242064Y-114194669D02*
X147442064Y-113908955D01*
X147584921Y-114194669D02*
X147584921Y-113594669D01*
X147584921Y-113594669D02*
X147356350Y-113594669D01*
X147356350Y-113594669D02*
X147299207Y-113623240D01*
X147299207Y-113623240D02*
X147270636Y-113651812D01*
X147270636Y-113651812D02*
X147242064Y-113708955D01*
X147242064Y-113708955D02*
X147242064Y-113794669D01*
X147242064Y-113794669D02*
X147270636Y-113851812D01*
X147270636Y-113851812D02*
X147299207Y-113880383D01*
X147299207Y-113880383D02*
X147356350Y-113908955D01*
X147356350Y-113908955D02*
X147584921Y-113908955D01*
X146670636Y-114194669D02*
X147013493Y-114194669D01*
X146842064Y-114194669D02*
X146842064Y-113594669D01*
X146842064Y-113594669D02*
X146899207Y-113680383D01*
X146899207Y-113680383D02*
X146956350Y-113737526D01*
X146956350Y-113737526D02*
X147013493Y-113766098D01*
X146156350Y-113594669D02*
X146270635Y-113594669D01*
X146270635Y-113594669D02*
X146327778Y-113623240D01*
X146327778Y-113623240D02*
X146356350Y-113651812D01*
X146356350Y-113651812D02*
X146413492Y-113737526D01*
X146413492Y-113737526D02*
X146442064Y-113851812D01*
X146442064Y-113851812D02*
X146442064Y-114080383D01*
X146442064Y-114080383D02*
X146413492Y-114137526D01*
X146413492Y-114137526D02*
X146384921Y-114166098D01*
X146384921Y-114166098D02*
X146327778Y-114194669D01*
X146327778Y-114194669D02*
X146213492Y-114194669D01*
X146213492Y-114194669D02*
X146156350Y-114166098D01*
X146156350Y-114166098D02*
X146127778Y-114137526D01*
X146127778Y-114137526D02*
X146099207Y-114080383D01*
X146099207Y-114080383D02*
X146099207Y-113937526D01*
X146099207Y-113937526D02*
X146127778Y-113880383D01*
X146127778Y-113880383D02*
X146156350Y-113851812D01*
X146156350Y-113851812D02*
X146213492Y-113823240D01*
X146213492Y-113823240D02*
X146327778Y-113823240D01*
X146327778Y-113823240D02*
X146384921Y-113851812D01*
X146384921Y-113851812D02*
X146413492Y-113880383D01*
X146413492Y-113880383D02*
X146442064Y-113937526D01*
X144464305Y-109133113D02*
X144750019Y-109333113D01*
X144464305Y-109475970D02*
X145064305Y-109475970D01*
X145064305Y-109475970D02*
X145064305Y-109247399D01*
X145064305Y-109247399D02*
X145035734Y-109190256D01*
X145035734Y-109190256D02*
X145007162Y-109161685D01*
X145007162Y-109161685D02*
X144950019Y-109133113D01*
X144950019Y-109133113D02*
X144864305Y-109133113D01*
X144864305Y-109133113D02*
X144807162Y-109161685D01*
X144807162Y-109161685D02*
X144778591Y-109190256D01*
X144778591Y-109190256D02*
X144750019Y-109247399D01*
X144750019Y-109247399D02*
X144750019Y-109475970D01*
X145064305Y-108933113D02*
X145064305Y-108561685D01*
X145064305Y-108561685D02*
X144835734Y-108761685D01*
X144835734Y-108761685D02*
X144835734Y-108675970D01*
X144835734Y-108675970D02*
X144807162Y-108618828D01*
X144807162Y-108618828D02*
X144778591Y-108590256D01*
X144778591Y-108590256D02*
X144721448Y-108561685D01*
X144721448Y-108561685D02*
X144578591Y-108561685D01*
X144578591Y-108561685D02*
X144521448Y-108590256D01*
X144521448Y-108590256D02*
X144492877Y-108618828D01*
X144492877Y-108618828D02*
X144464305Y-108675970D01*
X144464305Y-108675970D02*
X144464305Y-108847399D01*
X144464305Y-108847399D02*
X144492877Y-108904542D01*
X144492877Y-108904542D02*
X144521448Y-108933113D01*
X136360987Y-114041971D02*
X136560987Y-113756257D01*
X136703844Y-114041971D02*
X136703844Y-113441971D01*
X136703844Y-113441971D02*
X136475273Y-113441971D01*
X136475273Y-113441971D02*
X136418130Y-113470542D01*
X136418130Y-113470542D02*
X136389559Y-113499114D01*
X136389559Y-113499114D02*
X136360987Y-113556257D01*
X136360987Y-113556257D02*
X136360987Y-113641971D01*
X136360987Y-113641971D02*
X136389559Y-113699114D01*
X136389559Y-113699114D02*
X136418130Y-113727685D01*
X136418130Y-113727685D02*
X136475273Y-113756257D01*
X136475273Y-113756257D02*
X136703844Y-113756257D01*
X136160987Y-113441971D02*
X135760987Y-113441971D01*
X135760987Y-113441971D02*
X136018130Y-114041971D01*
X144808304Y-104670760D02*
X144836876Y-104699332D01*
X144836876Y-104699332D02*
X144922590Y-104727903D01*
X144922590Y-104727903D02*
X144979733Y-104727903D01*
X144979733Y-104727903D02*
X145065447Y-104699332D01*
X145065447Y-104699332D02*
X145122590Y-104642189D01*
X145122590Y-104642189D02*
X145151161Y-104585046D01*
X145151161Y-104585046D02*
X145179733Y-104470760D01*
X145179733Y-104470760D02*
X145179733Y-104385046D01*
X145179733Y-104385046D02*
X145151161Y-104270760D01*
X145151161Y-104270760D02*
X145122590Y-104213617D01*
X145122590Y-104213617D02*
X145065447Y-104156474D01*
X145065447Y-104156474D02*
X144979733Y-104127903D01*
X144979733Y-104127903D02*
X144922590Y-104127903D01*
X144922590Y-104127903D02*
X144836876Y-104156474D01*
X144836876Y-104156474D02*
X144808304Y-104185046D01*
X144236876Y-104727903D02*
X144579733Y-104727903D01*
X144408304Y-104727903D02*
X144408304Y-104127903D01*
X144408304Y-104127903D02*
X144465447Y-104213617D01*
X144465447Y-104213617D02*
X144522590Y-104270760D01*
X144522590Y-104270760D02*
X144579733Y-104299332D01*
X143865447Y-104127903D02*
X143808304Y-104127903D01*
X143808304Y-104127903D02*
X143751161Y-104156474D01*
X143751161Y-104156474D02*
X143722590Y-104185046D01*
X143722590Y-104185046D02*
X143694018Y-104242189D01*
X143694018Y-104242189D02*
X143665447Y-104356474D01*
X143665447Y-104356474D02*
X143665447Y-104499332D01*
X143665447Y-104499332D02*
X143694018Y-104613617D01*
X143694018Y-104613617D02*
X143722590Y-104670760D01*
X143722590Y-104670760D02*
X143751161Y-104699332D01*
X143751161Y-104699332D02*
X143808304Y-104727903D01*
X143808304Y-104727903D02*
X143865447Y-104727903D01*
X143865447Y-104727903D02*
X143922590Y-104699332D01*
X143922590Y-104699332D02*
X143951161Y-104670760D01*
X143951161Y-104670760D02*
X143979732Y-104613617D01*
X143979732Y-104613617D02*
X144008304Y-104499332D01*
X144008304Y-104499332D02*
X144008304Y-104356474D01*
X144008304Y-104356474D02*
X143979732Y-104242189D01*
X143979732Y-104242189D02*
X143951161Y-104185046D01*
X143951161Y-104185046D02*
X143922590Y-104156474D01*
X143922590Y-104156474D02*
X143865447Y-104127903D01*
X105079097Y-124120420D02*
X105279097Y-123834706D01*
X105421954Y-124120420D02*
X105421954Y-123520420D01*
X105421954Y-123520420D02*
X105193383Y-123520420D01*
X105193383Y-123520420D02*
X105136240Y-123548991D01*
X105136240Y-123548991D02*
X105107669Y-123577563D01*
X105107669Y-123577563D02*
X105079097Y-123634706D01*
X105079097Y-123634706D02*
X105079097Y-123720420D01*
X105079097Y-123720420D02*
X105107669Y-123777563D01*
X105107669Y-123777563D02*
X105136240Y-123806134D01*
X105136240Y-123806134D02*
X105193383Y-123834706D01*
X105193383Y-123834706D02*
X105421954Y-123834706D01*
X104507669Y-124120420D02*
X104850526Y-124120420D01*
X104679097Y-124120420D02*
X104679097Y-123520420D01*
X104679097Y-123520420D02*
X104736240Y-123606134D01*
X104736240Y-123606134D02*
X104793383Y-123663277D01*
X104793383Y-123663277D02*
X104850526Y-123691849D01*
X104606275Y-119317774D02*
X104634847Y-119346346D01*
X104634847Y-119346346D02*
X104720561Y-119374917D01*
X104720561Y-119374917D02*
X104777704Y-119374917D01*
X104777704Y-119374917D02*
X104863418Y-119346346D01*
X104863418Y-119346346D02*
X104920561Y-119289203D01*
X104920561Y-119289203D02*
X104949132Y-119232060D01*
X104949132Y-119232060D02*
X104977704Y-119117774D01*
X104977704Y-119117774D02*
X104977704Y-119032060D01*
X104977704Y-119032060D02*
X104949132Y-118917774D01*
X104949132Y-118917774D02*
X104920561Y-118860631D01*
X104920561Y-118860631D02*
X104863418Y-118803488D01*
X104863418Y-118803488D02*
X104777704Y-118774917D01*
X104777704Y-118774917D02*
X104720561Y-118774917D01*
X104720561Y-118774917D02*
X104634847Y-118803488D01*
X104634847Y-118803488D02*
X104606275Y-118832060D01*
X104406275Y-118774917D02*
X104034847Y-118774917D01*
X104034847Y-118774917D02*
X104234847Y-119003488D01*
X104234847Y-119003488D02*
X104149132Y-119003488D01*
X104149132Y-119003488D02*
X104091990Y-119032060D01*
X104091990Y-119032060D02*
X104063418Y-119060631D01*
X104063418Y-119060631D02*
X104034847Y-119117774D01*
X104034847Y-119117774D02*
X104034847Y-119260631D01*
X104034847Y-119260631D02*
X104063418Y-119317774D01*
X104063418Y-119317774D02*
X104091990Y-119346346D01*
X104091990Y-119346346D02*
X104149132Y-119374917D01*
X104149132Y-119374917D02*
X104320561Y-119374917D01*
X104320561Y-119374917D02*
X104377704Y-119346346D01*
X104377704Y-119346346D02*
X104406275Y-119317774D01*
X136354799Y-116283893D02*
X136354799Y-116426750D01*
X136497656Y-116369607D02*
X136354799Y-116426750D01*
X136354799Y-116426750D02*
X136211942Y-116369607D01*
X136440513Y-116541036D02*
X136354799Y-116426750D01*
X136354799Y-116426750D02*
X136269085Y-116541036D01*
X146814383Y-109110724D02*
X146785812Y-109139296D01*
X146785812Y-109139296D02*
X146757240Y-109225010D01*
X146757240Y-109225010D02*
X146757240Y-109282153D01*
X146757240Y-109282153D02*
X146785812Y-109367867D01*
X146785812Y-109367867D02*
X146842954Y-109425010D01*
X146842954Y-109425010D02*
X146900097Y-109453581D01*
X146900097Y-109453581D02*
X147014383Y-109482153D01*
X147014383Y-109482153D02*
X147100097Y-109482153D01*
X147100097Y-109482153D02*
X147214383Y-109453581D01*
X147214383Y-109453581D02*
X147271526Y-109425010D01*
X147271526Y-109425010D02*
X147328669Y-109367867D01*
X147328669Y-109367867D02*
X147357240Y-109282153D01*
X147357240Y-109282153D02*
X147357240Y-109225010D01*
X147357240Y-109225010D02*
X147328669Y-109139296D01*
X147328669Y-109139296D02*
X147300097Y-109110724D01*
X147300097Y-108882153D02*
X147328669Y-108853581D01*
X147328669Y-108853581D02*
X147357240Y-108796439D01*
X147357240Y-108796439D02*
X147357240Y-108653581D01*
X147357240Y-108653581D02*
X147328669Y-108596439D01*
X147328669Y-108596439D02*
X147300097Y-108567867D01*
X147300097Y-108567867D02*
X147242954Y-108539296D01*
X147242954Y-108539296D02*
X147185812Y-108539296D01*
X147185812Y-108539296D02*
X147100097Y-108567867D01*
X147100097Y-108567867D02*
X146757240Y-108910724D01*
X146757240Y-108910724D02*
X146757240Y-108539296D01*
X116567930Y-114334445D02*
X116596502Y-114363017D01*
X116596502Y-114363017D02*
X116682216Y-114391588D01*
X116682216Y-114391588D02*
X116739359Y-114391588D01*
X116739359Y-114391588D02*
X116825073Y-114363017D01*
X116825073Y-114363017D02*
X116882216Y-114305874D01*
X116882216Y-114305874D02*
X116910787Y-114248731D01*
X116910787Y-114248731D02*
X116939359Y-114134445D01*
X116939359Y-114134445D02*
X116939359Y-114048731D01*
X116939359Y-114048731D02*
X116910787Y-113934445D01*
X116910787Y-113934445D02*
X116882216Y-113877302D01*
X116882216Y-113877302D02*
X116825073Y-113820159D01*
X116825073Y-113820159D02*
X116739359Y-113791588D01*
X116739359Y-113791588D02*
X116682216Y-113791588D01*
X116682216Y-113791588D02*
X116596502Y-113820159D01*
X116596502Y-113820159D02*
X116567930Y-113848731D01*
X116053645Y-113991588D02*
X116053645Y-114391588D01*
X116196502Y-113763017D02*
X116339359Y-114191588D01*
X116339359Y-114191588D02*
X115967930Y-114191588D01*
%TO.C,U7*%
X143757700Y-116664400D02*
X141807700Y-116664400D01*
X143757700Y-116664400D02*
X145707700Y-116664400D01*
X143757700Y-121784400D02*
X140307700Y-121784400D01*
X143757700Y-121784400D02*
X145707700Y-121784400D01*
%TO.C,D1*%
X108030600Y-110614500D02*
X108030600Y-106604500D01*
X110030600Y-106604500D02*
X108030600Y-106604500D01*
X110030600Y-110614500D02*
X110030600Y-106604500D01*
%TO.C,R5*%
X132716036Y-104590100D02*
X133170164Y-104590100D01*
X132716036Y-106060100D02*
X133170164Y-106060100D01*
%TO.C,R8*%
X117537600Y-122106236D02*
X117537600Y-122560364D01*
X119007600Y-122106236D02*
X119007600Y-122560364D01*
%TO.C,R9*%
X117568900Y-118555064D02*
X117568900Y-118100936D01*
X119038900Y-118555064D02*
X119038900Y-118100936D01*
%TO.C,D4*%
X130592400Y-107303700D02*
X130592400Y-111313700D01*
X130592400Y-111313700D02*
X132592400Y-111313700D01*
X132592400Y-107303700D02*
X132592400Y-111313700D01*
%TO.C,U1*%
X112640000Y-116609100D02*
X110690000Y-116609100D01*
X112640000Y-116609100D02*
X114590000Y-116609100D01*
X112640000Y-121729100D02*
X109190000Y-121729100D01*
X112640000Y-121729100D02*
X114590000Y-121729100D01*
%TO.C,R18*%
X134235964Y-122871300D02*
X133781836Y-122871300D01*
X134235964Y-124341300D02*
X133781836Y-124341300D01*
%TO.C,R14*%
X142090064Y-114588300D02*
X141635936Y-114588300D01*
X142090064Y-116058300D02*
X141635936Y-116058300D01*
%TO.C,C7*%
X114415252Y-122745400D02*
X113892748Y-122745400D01*
X114415252Y-124215400D02*
X113892748Y-124215400D01*
%TO.C,R17*%
X129618836Y-122871300D02*
X130072964Y-122871300D01*
X129618836Y-124341300D02*
X130072964Y-124341300D01*
%TO.C,R15*%
X142198664Y-122411600D02*
X141744536Y-122411600D01*
X142198664Y-123881600D02*
X141744536Y-123881600D01*
%TO.C,R2*%
X118930000Y-111554436D02*
X118930000Y-112008564D01*
X120400000Y-111554436D02*
X120400000Y-112008564D01*
%TO.C,R4*%
X107470636Y-104431000D02*
X107924764Y-104431000D01*
X107470636Y-105901000D02*
X107924764Y-105901000D01*
%TO.C,C1*%
X121106900Y-111514348D02*
X121106900Y-112036852D01*
X122576900Y-111514348D02*
X122576900Y-112036852D01*
%TO.C,U3*%
X139607500Y-106031100D02*
X137657500Y-106031100D01*
X139607500Y-106031100D02*
X141557500Y-106031100D01*
X139607500Y-111151100D02*
X136157500Y-111151100D01*
X139607500Y-111151100D02*
X141557500Y-111151100D01*
%TO.C,D2*%
X105381900Y-107329500D02*
X105381900Y-111339500D01*
X105381900Y-111339500D02*
X107381900Y-111339500D01*
X107381900Y-107329500D02*
X107381900Y-111339500D01*
%TO.C,C6*%
X109596348Y-122681300D02*
X110118852Y-122681300D01*
X109596348Y-124151300D02*
X110118852Y-124151300D01*
%TO.C,U4*%
X122339100Y-116751100D02*
X126580900Y-116751100D01*
X126580900Y-122008900D02*
X122339100Y-122008900D01*
%TO.C,R6*%
X112841064Y-111962000D02*
X112386936Y-111962000D01*
X112841064Y-113432000D02*
X112386936Y-113432000D01*
%TO.C,C5*%
X142088252Y-111749800D02*
X141565748Y-111749800D01*
X142088252Y-113219800D02*
X141565748Y-113219800D01*
%TO.C,C8*%
X122018552Y-122809500D02*
X121496048Y-122809500D01*
X122018552Y-124279500D02*
X121496048Y-124279500D01*
%TO.C,C9*%
X116673752Y-103883400D02*
X116151248Y-103883400D01*
X116673752Y-105353400D02*
X116151248Y-105353400D01*
%TO.C,D3*%
X133253500Y-110616700D02*
X133253500Y-106606700D01*
X135253500Y-106606700D02*
X133253500Y-106606700D01*
X135253500Y-110616700D02*
X135253500Y-106606700D01*
%TO.C,R16*%
X145973664Y-114601400D02*
X145519536Y-114601400D01*
X145973664Y-116071400D02*
X145519536Y-116071400D01*
%TO.C,R3*%
X144075500Y-111389836D02*
X144075500Y-111843964D01*
X145545500Y-111389836D02*
X145545500Y-111843964D01*
%TO.C,R7*%
X137939064Y-111703000D02*
X137484936Y-111703000D01*
X137939064Y-113173000D02*
X137484936Y-113173000D01*
%TO.C,C10*%
X141813852Y-103719300D02*
X141291348Y-103719300D01*
X141813852Y-105189300D02*
X141291348Y-105189300D01*
%TO.C,R1*%
X102662000Y-123621036D02*
X102662000Y-124075164D01*
X104132000Y-123621036D02*
X104132000Y-124075164D01*
%TO.C,C3*%
X104750952Y-119747600D02*
X104228448Y-119747600D01*
X104750952Y-121217600D02*
X104228448Y-121217600D01*
%TO.C,U6*%
X131487700Y-121966100D02*
X135729500Y-121966100D01*
X135729500Y-116708300D02*
X131487700Y-116708300D01*
%TO.C,C2*%
X146320400Y-111312548D02*
X146320400Y-111835052D01*
X147790400Y-111312548D02*
X147790400Y-111835052D01*
%TO.C,C4*%
X116834352Y-111924000D02*
X116311848Y-111924000D01*
X116834352Y-113394000D02*
X116311848Y-113394000D01*
%TO.C,U2*%
X114538200Y-106101800D02*
X112588200Y-106101800D01*
X114538200Y-106101800D02*
X116488200Y-106101800D01*
X114538200Y-111221800D02*
X111088200Y-111221800D01*
X114538200Y-111221800D02*
X116488200Y-111221800D01*
%TD*%
D11*
X99231900Y-118060200D03*
X99231900Y-120560200D03*
X142126500Y-128646400D03*
X144626500Y-128646400D03*
X99135500Y-105805600D03*
X98864800Y-128804100D03*
X105636700Y-128646400D03*
X108136700Y-128646400D03*
X110636700Y-128646400D03*
X117766800Y-128646400D03*
X120266800Y-128646400D03*
X122766800Y-128646400D03*
X151623700Y-128804100D03*
X151623700Y-105540300D03*
M02*
