M48
METRIC,TZ
T1C0.300
T2C0.950
T3C1.000
T4C2.500
%
G90
G05
T1
X102218Y-124824
X103693Y-121761
X105818Y-116673
X105840Y-116050
X106397Y-109297
X106701Y-103953
X107000Y-119951
X107000Y-121196
X108116Y-119399
X108116Y-130672
X108974Y-130693
X109962Y-130693
X109969Y-105884
X111284Y-106028
X111743Y-119120
X112006Y-122755
X112839Y-115749
X112861Y-116372
X113441Y-107892
X113571Y-104704
X115351Y-122126
X115690Y-110507
X116616Y-117248
X116704Y-121103
X117578Y-116327
X119274Y-105593
X119274Y-106717
X119414Y-121276
X119914Y-117044
X120445Y-118727
X120509Y-120009
X120796Y-120659
X123251Y-110718
X125093Y-120667
X127114Y-114987
X127218Y-116319
X129597Y-118693
X129625Y-120011
X130858Y-105679
X131941Y-104210
X133247Y-110444
X134239Y-120667
X135492Y-116089
X138065Y-105020
X138970Y-104783
X140651Y-110443
X141251Y-116522
X141315Y-121857
X142710Y-118541
X145010Y-121675
X147713Y-121022
X147714Y-117323
X147862Y-119273
X148787Y-117380
T2
X105637Y-128646
X108137Y-128646
X110637Y-128646
X117767Y-128646
X120267Y-128646
X122767Y-128646
T3
X99232Y-118060
X99232Y-120560
X142126Y-128646
X144626Y-128646
T4
X98865Y-128804
X99136Y-105806
X151624Y-105540
X151624Y-128804
M30
