%TF.GenerationSoftware,KiCad,Pcbnew,8.0.0*%
%TF.CreationDate,2024-03-25T10:57:50+01:00*%
%TF.ProjectId,MicAmp,4d696341-6d70-42e6-9b69-6361645f7063,v2*%
%TF.SameCoordinates,Original*%
%TF.FileFunction,Soldermask,Bot*%
%TF.FilePolarity,Negative*%
%FSLAX46Y46*%
G04 Gerber Fmt 4.6, Leading zero omitted, Abs format (unit mm)*
G04 Created by KiCad (PCBNEW 8.0.0) date 2024-03-25 10:57:50*
%MOMM*%
%LPD*%
G01*
G04 APERTURE LIST*
G04 Aperture macros list*
%AMRoundRect*
0 Rectangle with rounded corners*
0 $1 Rounding radius*
0 $2 $3 $4 $5 $6 $7 $8 $9 X,Y pos of 4 corners*
0 Add a 4 corners polygon primitive as box body*
4,1,4,$2,$3,$4,$5,$6,$7,$8,$9,$2,$3,0*
0 Add four circle primitives for the rounded corners*
1,1,$1+$1,$2,$3*
1,1,$1+$1,$4,$5*
1,1,$1+$1,$6,$7*
1,1,$1+$1,$8,$9*
0 Add four rect primitives between the rounded corners*
20,1,$1+$1,$2,$3,$4,$5,0*
20,1,$1+$1,$4,$5,$6,$7,0*
20,1,$1+$1,$6,$7,$8,$9,0*
20,1,$1+$1,$8,$9,$2,$3,0*%
G04 Aperture macros list end*
%ADD10RoundRect,0.250000X-0.750000X0.600000X-0.750000X-0.600000X0.750000X-0.600000X0.750000X0.600000X0*%
%ADD11O,2.000000X1.700000*%
%ADD12RoundRect,0.250000X-0.600000X-0.750000X0.600000X-0.750000X0.600000X0.750000X-0.600000X0.750000X0*%
%ADD13O,1.700000X2.000000*%
%ADD14C,2.900000*%
%ADD15C,5.000000*%
%ADD16RoundRect,0.250000X-0.600000X-0.725000X0.600000X-0.725000X0.600000X0.725000X-0.600000X0.725000X0*%
%ADD17O,1.700000X1.950000*%
%ADD18RoundRect,0.150000X-0.825000X-0.150000X0.825000X-0.150000X0.825000X0.150000X-0.825000X0.150000X0*%
%ADD19RoundRect,0.225000X-0.375000X0.225000X-0.375000X-0.225000X0.375000X-0.225000X0.375000X0.225000X0*%
%ADD20RoundRect,0.250000X-0.350000X-0.450000X0.350000X-0.450000X0.350000X0.450000X-0.350000X0.450000X0*%
%ADD21RoundRect,0.250000X0.450000X-0.350000X0.450000X0.350000X-0.450000X0.350000X-0.450000X-0.350000X0*%
%ADD22RoundRect,0.250000X-0.450000X0.350000X-0.450000X-0.350000X0.450000X-0.350000X0.450000X0.350000X0*%
%ADD23RoundRect,0.225000X0.375000X-0.225000X0.375000X0.225000X-0.375000X0.225000X-0.375000X-0.225000X0*%
%ADD24RoundRect,0.250000X0.350000X0.450000X-0.350000X0.450000X-0.350000X-0.450000X0.350000X-0.450000X0*%
%ADD25RoundRect,0.250000X-0.337500X-0.475000X0.337500X-0.475000X0.337500X0.475000X-0.337500X0.475000X0*%
%ADD26RoundRect,0.250000X-0.475000X0.337500X-0.475000X-0.337500X0.475000X-0.337500X0.475000X0.337500X0*%
%ADD27RoundRect,0.250000X0.337500X0.475000X-0.337500X0.475000X-0.337500X-0.475000X0.337500X-0.475000X0*%
%ADD28R,1.460500X0.533400*%
G04 APERTURE END LIST*
D10*
%TO.C,Mic_In*%
X99231900Y-118060200D03*
D11*
X99231900Y-120560200D03*
%TD*%
D12*
%TO.C,Out_Audio*%
X142126500Y-128646400D03*
D13*
X144626500Y-128646400D03*
%TD*%
D14*
%TO.C,H1*%
X99135500Y-105805600D03*
D15*
X99135500Y-105805600D03*
%TD*%
D14*
%TO.C,H3*%
X98864800Y-128804100D03*
D15*
X98864800Y-128804100D03*
%TD*%
D16*
%TO.C,Supp_MicAmp1*%
X105636700Y-128646400D03*
D17*
X108136700Y-128646400D03*
X110636700Y-128646400D03*
%TD*%
D16*
%TO.C,Volume_Audio*%
X117766800Y-128646400D03*
D17*
X120266800Y-128646400D03*
X122766800Y-128646400D03*
%TD*%
D14*
%TO.C,H4*%
X151623700Y-128804100D03*
D15*
X151623700Y-128804100D03*
%TD*%
D14*
%TO.C,H2*%
X151623700Y-105540300D03*
D15*
X151623700Y-105540300D03*
%TD*%
D18*
%TO.C,U7*%
X141282700Y-121129400D03*
X141282700Y-119859400D03*
X141282700Y-118589400D03*
X141282700Y-117319400D03*
X146232700Y-117319400D03*
X146232700Y-118589400D03*
X146232700Y-119859400D03*
X146232700Y-121129400D03*
%TD*%
D19*
%TO.C,D1*%
X109030600Y-107314500D03*
X109030600Y-110614500D03*
%TD*%
D20*
%TO.C,R5*%
X131943100Y-105325100D03*
X133943100Y-105325100D03*
%TD*%
D21*
%TO.C,R8*%
X118272600Y-123333300D03*
X118272600Y-121333300D03*
%TD*%
D22*
%TO.C,R9*%
X118303900Y-117328000D03*
X118303900Y-119328000D03*
%TD*%
D23*
%TO.C,D4*%
X131592400Y-110603700D03*
X131592400Y-107303700D03*
%TD*%
D18*
%TO.C,U1*%
X110165000Y-121074100D03*
X110165000Y-119804100D03*
X110165000Y-118534100D03*
X110165000Y-117264100D03*
X115115000Y-117264100D03*
X115115000Y-118534100D03*
X115115000Y-119804100D03*
X115115000Y-121074100D03*
%TD*%
D20*
%TO.C,R18*%
X133008900Y-123606300D03*
X135008900Y-123606300D03*
%TD*%
D24*
%TO.C,R14*%
X142863000Y-115323300D03*
X140863000Y-115323300D03*
%TD*%
D25*
%TO.C,C7*%
X113116500Y-123480400D03*
X115191500Y-123480400D03*
%TD*%
D24*
%TO.C,R17*%
X130845900Y-123606300D03*
X128845900Y-123606300D03*
%TD*%
%TO.C,R15*%
X142971600Y-123146600D03*
X140971600Y-123146600D03*
%TD*%
D22*
%TO.C,R2*%
X119665000Y-110781500D03*
X119665000Y-112781500D03*
%TD*%
D20*
%TO.C,R4*%
X106697700Y-105166000D03*
X108697700Y-105166000D03*
%TD*%
D26*
%TO.C,C1*%
X121841900Y-110738100D03*
X121841900Y-112813100D03*
%TD*%
D18*
%TO.C,U3*%
X137132500Y-110496100D03*
X137132500Y-109226100D03*
X137132500Y-107956100D03*
X137132500Y-106686100D03*
X142082500Y-106686100D03*
X142082500Y-107956100D03*
X142082500Y-109226100D03*
X142082500Y-110496100D03*
%TD*%
D23*
%TO.C,D2*%
X106381900Y-110629500D03*
X106381900Y-107329500D03*
%TD*%
D27*
%TO.C,C6*%
X110895100Y-123416300D03*
X108820100Y-123416300D03*
%TD*%
D28*
%TO.C,U4*%
X127184150Y-117475000D03*
X127184150Y-118745000D03*
X127184150Y-120015000D03*
X127184150Y-121285000D03*
X121735850Y-121285000D03*
X121735850Y-120015000D03*
X121735850Y-118745000D03*
X121735850Y-117475000D03*
%TD*%
D24*
%TO.C,R6*%
X113614000Y-112697000D03*
X111614000Y-112697000D03*
%TD*%
D27*
%TO.C,C5*%
X142864500Y-112484800D03*
X140789500Y-112484800D03*
%TD*%
D25*
%TO.C,C8*%
X120719800Y-123544500D03*
X122794800Y-123544500D03*
%TD*%
D27*
%TO.C,C9*%
X117450000Y-104618400D03*
X115375000Y-104618400D03*
%TD*%
D19*
%TO.C,D3*%
X134253500Y-107316700D03*
X134253500Y-110616700D03*
%TD*%
D24*
%TO.C,R16*%
X146746600Y-115336400D03*
X144746600Y-115336400D03*
%TD*%
D22*
%TO.C,R3*%
X144810500Y-110616900D03*
X144810500Y-112616900D03*
%TD*%
D24*
%TO.C,R7*%
X138712000Y-112438000D03*
X136712000Y-112438000D03*
%TD*%
D27*
%TO.C,C10*%
X142590100Y-104454300D03*
X140515100Y-104454300D03*
%TD*%
D21*
%TO.C,R1*%
X103397000Y-124848100D03*
X103397000Y-122848100D03*
%TD*%
D25*
%TO.C,C3*%
X103452200Y-120482600D03*
X105527200Y-120482600D03*
%TD*%
D28*
%TO.C,U6*%
X136332750Y-117432200D03*
X136332750Y-118702200D03*
X136332750Y-119972200D03*
X136332750Y-121242200D03*
X130884450Y-121242200D03*
X130884450Y-119972200D03*
X130884450Y-118702200D03*
X130884450Y-117432200D03*
%TD*%
D26*
%TO.C,C2*%
X147055400Y-110536300D03*
X147055400Y-112611300D03*
%TD*%
D27*
%TO.C,C4*%
X117610600Y-112659000D03*
X115535600Y-112659000D03*
%TD*%
D18*
%TO.C,U2*%
X112063200Y-110566800D03*
X112063200Y-109296800D03*
X112063200Y-108026800D03*
X112063200Y-106756800D03*
X117013200Y-106756800D03*
X117013200Y-108026800D03*
X117013200Y-109296800D03*
X117013200Y-110566800D03*
%TD*%
M02*
