%TF.GenerationSoftware,KiCad,Pcbnew,8.0.0*%
%TF.CreationDate,2024-03-25T10:57:50+01:00*%
%TF.ProjectId,MicAmp,4d696341-6d70-42e6-9b69-6361645f7063,v2*%
%TF.SameCoordinates,Original*%
%TF.FileFunction,Copper,L4,Bot*%
%TF.FilePolarity,Positive*%
%FSLAX46Y46*%
G04 Gerber Fmt 4.6, Leading zero omitted, Abs format (unit mm)*
G04 Created by KiCad (PCBNEW 8.0.0) date 2024-03-25 10:57:50*
%MOMM*%
%LPD*%
G01*
G04 APERTURE LIST*
G04 Aperture macros list*
%AMRoundRect*
0 Rectangle with rounded corners*
0 $1 Rounding radius*
0 $2 $3 $4 $5 $6 $7 $8 $9 X,Y pos of 4 corners*
0 Add a 4 corners polygon primitive as box body*
4,1,4,$2,$3,$4,$5,$6,$7,$8,$9,$2,$3,0*
0 Add four circle primitives for the rounded corners*
1,1,$1+$1,$2,$3*
1,1,$1+$1,$4,$5*
1,1,$1+$1,$6,$7*
1,1,$1+$1,$8,$9*
0 Add four rect primitives between the rounded corners*
20,1,$1+$1,$2,$3,$4,$5,0*
20,1,$1+$1,$4,$5,$6,$7,0*
20,1,$1+$1,$6,$7,$8,$9,0*
20,1,$1+$1,$8,$9,$2,$3,0*%
G04 Aperture macros list end*
%TA.AperFunction,ComponentPad*%
%ADD10RoundRect,0.250000X-0.750000X0.600000X-0.750000X-0.600000X0.750000X-0.600000X0.750000X0.600000X0*%
%TD*%
%TA.AperFunction,ComponentPad*%
%ADD11O,2.000000X1.700000*%
%TD*%
%TA.AperFunction,ComponentPad*%
%ADD12RoundRect,0.250000X-0.600000X-0.750000X0.600000X-0.750000X0.600000X0.750000X-0.600000X0.750000X0*%
%TD*%
%TA.AperFunction,ComponentPad*%
%ADD13O,1.700000X2.000000*%
%TD*%
%TA.AperFunction,ComponentPad*%
%ADD14C,2.900000*%
%TD*%
%TA.AperFunction,ConnectorPad*%
%ADD15C,5.000000*%
%TD*%
%TA.AperFunction,ComponentPad*%
%ADD16RoundRect,0.250000X-0.600000X-0.725000X0.600000X-0.725000X0.600000X0.725000X-0.600000X0.725000X0*%
%TD*%
%TA.AperFunction,ComponentPad*%
%ADD17O,1.700000X1.950000*%
%TD*%
%TA.AperFunction,SMDPad,CuDef*%
%ADD18RoundRect,0.150000X-0.825000X-0.150000X0.825000X-0.150000X0.825000X0.150000X-0.825000X0.150000X0*%
%TD*%
%TA.AperFunction,SMDPad,CuDef*%
%ADD19RoundRect,0.225000X-0.375000X0.225000X-0.375000X-0.225000X0.375000X-0.225000X0.375000X0.225000X0*%
%TD*%
%TA.AperFunction,SMDPad,CuDef*%
%ADD20RoundRect,0.250000X-0.350000X-0.450000X0.350000X-0.450000X0.350000X0.450000X-0.350000X0.450000X0*%
%TD*%
%TA.AperFunction,SMDPad,CuDef*%
%ADD21RoundRect,0.250000X0.450000X-0.350000X0.450000X0.350000X-0.450000X0.350000X-0.450000X-0.350000X0*%
%TD*%
%TA.AperFunction,SMDPad,CuDef*%
%ADD22RoundRect,0.250000X-0.450000X0.350000X-0.450000X-0.350000X0.450000X-0.350000X0.450000X0.350000X0*%
%TD*%
%TA.AperFunction,SMDPad,CuDef*%
%ADD23RoundRect,0.225000X0.375000X-0.225000X0.375000X0.225000X-0.375000X0.225000X-0.375000X-0.225000X0*%
%TD*%
%TA.AperFunction,SMDPad,CuDef*%
%ADD24RoundRect,0.250000X0.350000X0.450000X-0.350000X0.450000X-0.350000X-0.450000X0.350000X-0.450000X0*%
%TD*%
%TA.AperFunction,SMDPad,CuDef*%
%ADD25RoundRect,0.250000X-0.337500X-0.475000X0.337500X-0.475000X0.337500X0.475000X-0.337500X0.475000X0*%
%TD*%
%TA.AperFunction,SMDPad,CuDef*%
%ADD26RoundRect,0.250000X-0.475000X0.337500X-0.475000X-0.337500X0.475000X-0.337500X0.475000X0.337500X0*%
%TD*%
%TA.AperFunction,SMDPad,CuDef*%
%ADD27RoundRect,0.250000X0.337500X0.475000X-0.337500X0.475000X-0.337500X-0.475000X0.337500X-0.475000X0*%
%TD*%
%TA.AperFunction,SMDPad,CuDef*%
%ADD28R,1.460500X0.533400*%
%TD*%
%TA.AperFunction,ViaPad*%
%ADD29C,0.500000*%
%TD*%
%TA.AperFunction,Conductor*%
%ADD30C,0.150000*%
%TD*%
%TA.AperFunction,Conductor*%
%ADD31C,0.300000*%
%TD*%
%ADD32C,0.300000*%
%ADD33C,0.350000*%
G04 APERTURE END LIST*
D10*
%TO.P,Mic_In,1,Pin_1*%
%TO.N,GND*%
X99231900Y-118060200D03*
D11*
%TO.P,Mic_In,2,Pin_2*%
%TO.N,Net-(Mic_In1-Pin_2)*%
X99231900Y-120560200D03*
%TD*%
D12*
%TO.P,Out_Audio,1,Pin_1*%
%TO.N,GND*%
X142126500Y-128646400D03*
D13*
%TO.P,Out_Audio,2,Pin_2*%
%TO.N,/Out_Audio*%
X144626500Y-128646400D03*
%TD*%
D14*
%TO.P,H1,1,1*%
%TO.N,GND*%
X99135500Y-105805600D03*
D15*
X99135500Y-105805600D03*
%TD*%
D14*
%TO.P,H3,1,1*%
%TO.N,GND*%
X98864800Y-128804100D03*
D15*
X98864800Y-128804100D03*
%TD*%
D16*
%TO.P,Supp_MicAmp1,1,Pin_1*%
%TO.N,GND*%
X105636700Y-128646400D03*
D17*
%TO.P,Supp_MicAmp1,2,Pin_2*%
%TO.N,/5V_In*%
X108136700Y-128646400D03*
%TO.P,Supp_MicAmp1,3,Pin_3*%
%TO.N,/-5V_In*%
X110636700Y-128646400D03*
%TD*%
D16*
%TO.P,Volume_Audio,1,Pin_1*%
%TO.N,Net-(U7A--)*%
X117766800Y-128646400D03*
D17*
%TO.P,Volume_Audio,2,Pin_2*%
%TO.N,/Out_Audio*%
X120266800Y-128646400D03*
%TO.P,Volume_Audio,3,Pin_3*%
X122766800Y-128646400D03*
%TD*%
D14*
%TO.P,H4,1,1*%
%TO.N,GND*%
X151623700Y-128804100D03*
D15*
X151623700Y-128804100D03*
%TD*%
D14*
%TO.P,H2,1,1*%
%TO.N,GND*%
X151623700Y-105540300D03*
D15*
X151623700Y-105540300D03*
%TD*%
D18*
%TO.P,U7,1*%
%TO.N,/Out_Audio*%
X141282700Y-121129400D03*
%TO.P,U7,2,-*%
%TO.N,Net-(U7A--)*%
X141282700Y-119859400D03*
%TO.P,U7,3,+*%
%TO.N,GND*%
X141282700Y-118589400D03*
%TO.P,U7,4,V-*%
%TO.N,-5V*%
X141282700Y-117319400D03*
%TO.P,U7,5,+*%
%TO.N,GND*%
X146232700Y-117319400D03*
%TO.P,U7,6,-*%
%TO.N,Net-(U7B--)*%
X146232700Y-118589400D03*
%TO.P,U7,7*%
%TO.N,Net-(Mic_Out1-Pad3)*%
X146232700Y-119859400D03*
%TO.P,U7,8,V+*%
%TO.N,+5V*%
X146232700Y-121129400D03*
%TD*%
D19*
%TO.P,D1,1,K*%
%TO.N,Net-(D1-K)*%
X109030600Y-107314500D03*
%TO.P,D1,2,A*%
%TO.N,Net-(D1-A)*%
X109030600Y-110614500D03*
%TD*%
D20*
%TO.P,R5,1*%
%TO.N,GND*%
X131943100Y-105325100D03*
%TO.P,R5,2*%
%TO.N,Net-(D3-K)*%
X133943100Y-105325100D03*
%TD*%
D21*
%TO.P,R8,1*%
%TO.N,Net-(C6-Pad2)*%
X118272600Y-123333300D03*
%TO.P,R8,2*%
%TO.N,GND*%
X118272600Y-121333300D03*
%TD*%
D22*
%TO.P,R9,1*%
%TO.N,Net-(U1B--)*%
X118303900Y-117328000D03*
%TO.P,R9,2*%
%TO.N,Net-(C8-Pad2)*%
X118303900Y-119328000D03*
%TD*%
D23*
%TO.P,D4,1,K*%
%TO.N,Net-(D3-A)*%
X131592400Y-110603700D03*
%TO.P,D4,2,A*%
%TO.N,Net-(D3-K)*%
X131592400Y-107303700D03*
%TD*%
D18*
%TO.P,U1,1*%
%TO.N,Net-(U1A--)*%
X110165000Y-121074100D03*
%TO.P,U1,2,-*%
X110165000Y-119804100D03*
%TO.P,U1,3,+*%
%TO.N,Net-(U1A-+)*%
X110165000Y-118534100D03*
%TO.P,U1,4,V-*%
%TO.N,-5V*%
X110165000Y-117264100D03*
%TO.P,U1,5,+*%
%TO.N,GND*%
X115115000Y-117264100D03*
%TO.P,U1,6,-*%
%TO.N,Net-(U1B--)*%
X115115000Y-118534100D03*
%TO.P,U1,7*%
%TO.N,Net-(C8-Pad2)*%
X115115000Y-119804100D03*
%TO.P,U1,8,V+*%
%TO.N,+5V*%
X115115000Y-121074100D03*
%TD*%
D20*
%TO.P,R18,1*%
%TO.N,Net-(Mic_Out1-Pad3)*%
X133008900Y-123606300D03*
%TO.P,R18,2*%
%TO.N,Net-(U7B--)*%
X135008900Y-123606300D03*
%TD*%
D24*
%TO.P,R14,1*%
%TO.N,Net-(U7A--)*%
X142863000Y-115323300D03*
%TO.P,R14,2*%
%TO.N,Net-(R14-Pad2)*%
X140863000Y-115323300D03*
%TD*%
D25*
%TO.P,C7,1*%
%TO.N,Net-(C6-Pad2)*%
X113116500Y-123480400D03*
%TO.P,C7,2*%
%TO.N,Net-(U1B--)*%
X115191500Y-123480400D03*
%TD*%
D24*
%TO.P,R17,1*%
%TO.N,Net-(U7B--)*%
X130845900Y-123606300D03*
%TO.P,R17,2*%
%TO.N,Net-(U6-OUT)*%
X128845900Y-123606300D03*
%TD*%
%TO.P,R15,1*%
%TO.N,Net-(U7A--)*%
X142971600Y-123146600D03*
%TO.P,R15,2*%
%TO.N,Net-(R15-Pad2)*%
X140971600Y-123146600D03*
%TD*%
D22*
%TO.P,R2,1*%
%TO.N,GND*%
X119665000Y-110781500D03*
%TO.P,R2,2*%
%TO.N,Net-(U2A-+)*%
X119665000Y-112781500D03*
%TD*%
D20*
%TO.P,R4,1*%
%TO.N,GND*%
X106697700Y-105166000D03*
%TO.P,R4,2*%
%TO.N,Net-(D1-K)*%
X108697700Y-105166000D03*
%TD*%
D26*
%TO.P,C1,1*%
%TO.N,GND*%
X121841900Y-110738100D03*
%TO.P,C1,2*%
%TO.N,Net-(U2A-+)*%
X121841900Y-112813100D03*
%TD*%
D18*
%TO.P,U3,1*%
%TO.N,Net-(D3-A)*%
X137132500Y-110496100D03*
%TO.P,U3,2,-*%
%TO.N,Net-(D3-K)*%
X137132500Y-109226100D03*
%TO.P,U3,3,+*%
%TO.N,Net-(U3A-+)*%
X137132500Y-107956100D03*
%TO.P,U3,4,V-*%
%TO.N,-5V*%
X137132500Y-106686100D03*
%TO.P,U3,5,+*%
%TO.N,Net-(D3-A)*%
X142082500Y-106686100D03*
%TO.P,U3,6,-*%
%TO.N,Net-(U3B--)*%
X142082500Y-107956100D03*
%TO.P,U3,7*%
X142082500Y-109226100D03*
%TO.P,U3,8,V+*%
%TO.N,+5V*%
X142082500Y-110496100D03*
%TD*%
D23*
%TO.P,D2,1,K*%
%TO.N,Net-(D1-A)*%
X106381900Y-110629500D03*
%TO.P,D2,2,A*%
%TO.N,Net-(D1-K)*%
X106381900Y-107329500D03*
%TD*%
D27*
%TO.P,C6,1*%
%TO.N,Net-(U1A--)*%
X110895100Y-123416300D03*
%TO.P,C6,2*%
%TO.N,Net-(C6-Pad2)*%
X108820100Y-123416300D03*
%TD*%
D28*
%TO.P,U4,1,CLK*%
%TO.N,Net-(U4-CLK)*%
X127184150Y-117475000D03*
%TO.P,U4,2,V-*%
%TO.N,-5V*%
X127184150Y-118745000D03*
%TO.P,U4,3,OPOUT*%
%TO.N,Net-(U4-OPIN-)*%
X127184150Y-120015000D03*
%TO.P,U4,4,OPIN-*%
X127184150Y-121285000D03*
%TO.P,U4,5,OUT*%
%TO.N,Net-(U4-OUT)*%
X121735850Y-121285000D03*
%TO.P,U4,6,GND*%
%TO.N,GND*%
X121735850Y-120015000D03*
%TO.P,U4,7,V+*%
%TO.N,+5V*%
X121735850Y-118745000D03*
%TO.P,U4,8,IN*%
%TO.N,Net-(U4-IN)*%
X121735850Y-117475000D03*
%TD*%
D24*
%TO.P,R6,1*%
%TO.N,Net-(C4-Pad2)*%
X113614000Y-112697000D03*
%TO.P,R6,2*%
%TO.N,Net-(D1-A)*%
X111614000Y-112697000D03*
%TD*%
D27*
%TO.P,C5,1*%
%TO.N,Net-(U3A-+)*%
X142864500Y-112484800D03*
%TO.P,C5,2*%
%TO.N,Net-(C5-Pad2)*%
X140789500Y-112484800D03*
%TD*%
D25*
%TO.P,C8,1*%
%TO.N,Net-(C6-Pad2)*%
X120719800Y-123544500D03*
%TO.P,C8,2*%
%TO.N,Net-(C8-Pad2)*%
X122794800Y-123544500D03*
%TD*%
D27*
%TO.P,C9,1*%
%TO.N,Net-(U2B--)*%
X117450000Y-104618400D03*
%TO.P,C9,2*%
%TO.N,Net-(C9-Pad2)*%
X115375000Y-104618400D03*
%TD*%
D19*
%TO.P,D3,1,K*%
%TO.N,Net-(D3-K)*%
X134253500Y-107316700D03*
%TO.P,D3,2,A*%
%TO.N,Net-(D3-A)*%
X134253500Y-110616700D03*
%TD*%
D24*
%TO.P,R16,1*%
%TO.N,Net-(U7A--)*%
X146746600Y-115336400D03*
%TO.P,R16,2*%
%TO.N,Net-(R16-Pad2)*%
X144746600Y-115336400D03*
%TD*%
D22*
%TO.P,R3,1*%
%TO.N,GND*%
X144810500Y-110616900D03*
%TO.P,R3,2*%
%TO.N,Net-(U3A-+)*%
X144810500Y-112616900D03*
%TD*%
D24*
%TO.P,R7,1*%
%TO.N,Net-(C5-Pad2)*%
X138712000Y-112438000D03*
%TO.P,R7,2*%
%TO.N,Net-(D3-A)*%
X136712000Y-112438000D03*
%TD*%
D27*
%TO.P,C10,1*%
%TO.N,Net-(U3B--)*%
X142590100Y-104454300D03*
%TO.P,C10,2*%
%TO.N,Net-(C10-Pad2)*%
X140515100Y-104454300D03*
%TD*%
D21*
%TO.P,R1,1*%
%TO.N,+5V*%
X103397000Y-124848100D03*
%TO.P,R1,2*%
%TO.N,Net-(Mic_In1-Pin_2)*%
X103397000Y-122848100D03*
%TD*%
D25*
%TO.P,C3,1*%
%TO.N,Net-(Mic_In1-Pin_2)*%
X103452200Y-120482600D03*
%TO.P,C3,2*%
%TO.N,Net-(U1A-+)*%
X105527200Y-120482600D03*
%TD*%
D28*
%TO.P,U6,1,CLK*%
%TO.N,Net-(U6-CLK)*%
X136332750Y-117432200D03*
%TO.P,U6,2,V-*%
%TO.N,-5V*%
X136332750Y-118702200D03*
%TO.P,U6,3,OPOUT*%
%TO.N,Net-(U6-OPIN-)*%
X136332750Y-119972200D03*
%TO.P,U6,4,OPIN-*%
X136332750Y-121242200D03*
%TO.P,U6,5,OUT*%
%TO.N,Net-(U6-OUT)*%
X130884450Y-121242200D03*
%TO.P,U6,6,GND*%
%TO.N,GND*%
X130884450Y-119972200D03*
%TO.P,U6,7,V+*%
%TO.N,+5V*%
X130884450Y-118702200D03*
%TO.P,U6,8,IN*%
%TO.N,Net-(U6-IN)*%
X130884450Y-117432200D03*
%TD*%
D26*
%TO.P,C2,1*%
%TO.N,GND*%
X147055400Y-110536300D03*
%TO.P,C2,2*%
%TO.N,Net-(U3A-+)*%
X147055400Y-112611300D03*
%TD*%
D27*
%TO.P,C4,1*%
%TO.N,Net-(U2A-+)*%
X117610600Y-112659000D03*
%TO.P,C4,2*%
%TO.N,Net-(C4-Pad2)*%
X115535600Y-112659000D03*
%TD*%
D18*
%TO.P,U2,1*%
%TO.N,Net-(D1-A)*%
X112063200Y-110566800D03*
%TO.P,U2,2,-*%
%TO.N,Net-(D1-K)*%
X112063200Y-109296800D03*
%TO.P,U2,3,+*%
%TO.N,Net-(U2A-+)*%
X112063200Y-108026800D03*
%TO.P,U2,4,V-*%
%TO.N,-5V*%
X112063200Y-106756800D03*
%TO.P,U2,5,+*%
%TO.N,Net-(D1-A)*%
X117013200Y-106756800D03*
%TO.P,U2,6,-*%
%TO.N,Net-(U2B--)*%
X117013200Y-108026800D03*
%TO.P,U2,7*%
X117013200Y-109296800D03*
%TO.P,U2,8,V+*%
%TO.N,+5V*%
X117013200Y-110566800D03*
%TD*%
D29*
%TO.N,-5V*%
X112839000Y-115749000D03*
X112861000Y-116372000D03*
%TO.N,Net-(C8-Pad2)*%
X117578500Y-116327300D03*
%TO.N,+5V*%
X147713000Y-121022000D03*
X115690000Y-110507000D03*
X102218000Y-124824000D03*
X116704000Y-121103000D03*
X105840000Y-116050000D03*
X129597000Y-118693000D03*
X140651000Y-110443000D03*
X105818000Y-116673000D03*
X120445000Y-118727000D03*
%TO.N,GND*%
X129625000Y-120011000D03*
X106701000Y-103953000D03*
X123251000Y-110718000D03*
X119414000Y-121276000D03*
X115351000Y-122126000D03*
X113571000Y-104704000D03*
X108974000Y-130693000D03*
X109962000Y-130693000D03*
X134239000Y-120667000D03*
X116616000Y-117248000D03*
X108116000Y-130672000D03*
X138970000Y-104783000D03*
X131941000Y-104210000D03*
X125093000Y-120667000D03*
X148787000Y-117380000D03*
X142710000Y-118541000D03*
X103693000Y-121761000D03*
X120509000Y-120009000D03*
X108116000Y-119399000D03*
X147714000Y-117323000D03*
%TO.N,Net-(C9-Pad2)*%
X111284400Y-106028100D03*
%TO.N,Net-(C10-Pad2)*%
X138065300Y-105019600D03*
%TO.N,Net-(C13-Pad1)*%
X106999800Y-121196400D03*
X106999800Y-119951000D03*
%TO.N,Net-(U6-CLK)*%
X135492000Y-116089000D03*
%TO.N,Net-(R14-Pad2)*%
X141251300Y-116521500D03*
%TO.N,Net-(R15-Pad2)*%
X141314600Y-121856700D03*
%TO.N,Net-(D1-K)*%
X109969500Y-105884400D03*
X113440500Y-107892100D03*
%TO.N,Net-(D1-A)*%
X106396700Y-109296900D03*
%TO.N,Net-(D3-K)*%
X130858000Y-105679500D03*
%TO.N,Net-(D3-A)*%
X133246600Y-110444500D03*
%TO.N,Net-(U6-IN)*%
X127113900Y-114986500D03*
%TO.N,Net-(U2B--)*%
X119273700Y-105593200D03*
X119273700Y-106716700D03*
%TO.N,Net-(U4-CLK)*%
X127218000Y-116319000D03*
%TO.N,Net-(R16-Pad2)*%
X145010100Y-121675000D03*
%TO.N,Net-(C14-Pad2)*%
X112005800Y-122754600D03*
X111742800Y-119120200D03*
%TO.N,Net-(U4-IN)*%
X119914300Y-117043900D03*
%TO.N,Net-(U4-OUT)*%
X120795500Y-120658600D03*
%TO.N,Net-(Mic_Out1-Pad3)*%
X147862000Y-119272600D03*
%TD*%
D30*
%TO.N,Net-(U1A--)*%
X110895100Y-121804200D02*
X110165000Y-121074100D01*
X110895100Y-123416300D02*
X110895100Y-121804200D01*
X110165000Y-119804100D02*
X110165000Y-121074100D01*
%TO.N,Net-(U1A-+)*%
X105527200Y-120482600D02*
X107475700Y-118534100D01*
X107475700Y-118534100D02*
X110165000Y-118534100D01*
D31*
%TO.N,-5V*%
X126721000Y-118745000D02*
X127184000Y-118745000D01*
D30*
X137066400Y-106620000D02*
X137132500Y-106686100D01*
X141282300Y-117319000D02*
X141282700Y-117319400D01*
D31*
X112839000Y-116351000D02*
X112861000Y-116372000D01*
X129491100Y-106728900D02*
X126154000Y-110066000D01*
X135655000Y-119380000D02*
X136332700Y-118702300D01*
X112663000Y-106157000D02*
X112063200Y-106756800D01*
X137000000Y-106554000D02*
X129414000Y-106554000D01*
D30*
X137066000Y-106620000D02*
X137066400Y-106620000D01*
D31*
X129540000Y-106680000D02*
X129491100Y-106728900D01*
D30*
X129491100Y-106728900D02*
X129491100Y-106631100D01*
D31*
X137132000Y-106686000D02*
X137066000Y-106620000D01*
X137066000Y-106620000D02*
X137000000Y-106554000D01*
X127184000Y-118745000D02*
X127184100Y-118745100D01*
X126154000Y-118178000D02*
X126721000Y-118745000D01*
X110641000Y-107204000D02*
X110641000Y-113551000D01*
X110641000Y-113551000D02*
X112545100Y-115455100D01*
X136332700Y-118702300D02*
X136333000Y-118702000D01*
X127184100Y-118745100D02*
X127819000Y-119380000D01*
D30*
X110165000Y-117264100D02*
X111974000Y-115455100D01*
D31*
X112063000Y-106757000D02*
X111088000Y-106757000D01*
D30*
X136332700Y-118702300D02*
X136332700Y-118702200D01*
D31*
X112545100Y-115455100D02*
X112839000Y-115749000D01*
X111088000Y-106757000D02*
X110641000Y-107204000D01*
X129017000Y-106157000D02*
X112663000Y-106157000D01*
X138042000Y-117319000D02*
X141282300Y-117319000D01*
X127819000Y-119380000D02*
X135655000Y-119380000D01*
X112063200Y-106756800D02*
X112063000Y-106757000D01*
X141282300Y-117319000D02*
X141283000Y-117319000D01*
X126154000Y-110066000D02*
X126154000Y-118178000D01*
X136333000Y-118702000D02*
X136660000Y-118702000D01*
D30*
X127184100Y-118745100D02*
X127184100Y-118745000D01*
X111974000Y-115455100D02*
X112545100Y-115455100D01*
D31*
X112839000Y-115749000D02*
X112839000Y-116351000D01*
D30*
X129491100Y-106631100D02*
X129414000Y-106554000D01*
D31*
X136660000Y-118702000D02*
X138042000Y-117319000D01*
X129414000Y-106554000D02*
X129017000Y-106157000D01*
D30*
%TO.N,Net-(C8-Pad2)*%
X122794800Y-123544500D02*
X122520400Y-123544500D01*
X118784900Y-116327300D02*
X117578500Y-116327300D01*
X115115000Y-119804100D02*
X117827800Y-119804100D01*
X122520400Y-123544500D02*
X118303900Y-119328000D01*
X119246500Y-116788900D02*
X118784900Y-116327300D01*
X118303900Y-119328000D02*
X119246500Y-118385400D01*
X119246500Y-118385400D02*
X119246500Y-116788900D01*
X117827800Y-119804100D02*
X118303900Y-119328000D01*
%TO.N,Net-(U1B--)*%
X113905800Y-119426000D02*
X114797700Y-118534100D01*
X113905800Y-122194700D02*
X113905800Y-119426000D01*
X118303900Y-117328000D02*
X117097800Y-118534100D01*
X115191500Y-123480400D02*
X113905800Y-122194700D01*
X114797700Y-118534100D02*
X115115000Y-118534100D01*
X117097800Y-118534100D02*
X115115000Y-118534100D01*
D31*
%TO.N,+5V*%
X115115000Y-121074000D02*
X115115100Y-121074000D01*
X146233100Y-121129000D02*
X147606000Y-121129000D01*
X120463000Y-118745000D02*
X120445000Y-118727000D01*
X130884000Y-118702000D02*
X129607000Y-118702000D01*
D30*
X117013000Y-110567000D02*
X117013200Y-110566800D01*
X103396900Y-124848000D02*
X103397000Y-124848100D01*
X142082400Y-110496000D02*
X142082500Y-110496100D01*
D31*
X115749000Y-110567000D02*
X115690000Y-110507000D01*
X116675000Y-121074000D02*
X116704000Y-121103000D01*
X115115100Y-121074000D02*
X116675000Y-121074000D01*
X142082000Y-110496000D02*
X140704000Y-110496000D01*
X129607000Y-118702000D02*
X129597000Y-118693000D01*
X140704000Y-110496000D02*
X140651000Y-110443000D01*
D30*
X146233100Y-121129000D02*
X146232700Y-121129400D01*
D31*
X147606000Y-121129000D02*
X147713000Y-121022000D01*
X117013000Y-110567000D02*
X115749000Y-110567000D01*
D30*
X130884200Y-118702000D02*
X130884400Y-118702200D01*
D31*
X121736000Y-118745000D02*
X121735800Y-118745000D01*
D30*
X130884000Y-118702000D02*
X130884200Y-118702000D01*
D31*
X103396900Y-124848000D02*
X102242000Y-124848000D01*
X146233000Y-121129000D02*
X146233100Y-121129000D01*
X102242000Y-124848000D02*
X102218000Y-124824000D01*
X121735800Y-118745000D02*
X120463000Y-118745000D01*
X103397000Y-124848000D02*
X103396900Y-124848000D01*
D30*
X142082000Y-110496000D02*
X142082400Y-110496000D01*
X115115100Y-121074000D02*
X115115000Y-121074100D01*
%TO.N,Net-(U2A-+)*%
X117733100Y-112781500D02*
X119665000Y-112781500D01*
X121810300Y-112781500D02*
X121841900Y-112813100D01*
X119665000Y-112781500D02*
X121810300Y-112781500D01*
X114323800Y-108056200D02*
X114323800Y-109849600D01*
X113675200Y-107407600D02*
X114323800Y-108056200D01*
X112682400Y-107407600D02*
X113675200Y-107407600D01*
X112063200Y-108026800D02*
X112682400Y-107407600D01*
X117133200Y-112659000D02*
X117610600Y-112659000D01*
X114323800Y-109849600D02*
X117133200Y-112659000D01*
X117610600Y-112659000D02*
X117733100Y-112781500D01*
%TO.N,GND*%
X141283100Y-118589000D02*
X141282700Y-118589400D01*
D31*
X141283100Y-118589000D02*
X142661000Y-118589000D01*
X123230000Y-110738000D02*
X123251000Y-110718000D01*
X146233100Y-117319000D02*
X147711000Y-117319000D01*
X120515000Y-120015000D02*
X120509000Y-120009000D01*
D30*
X106697700Y-104561300D02*
X106697700Y-105166000D01*
D31*
X118273000Y-121333000D02*
X119357000Y-121333000D01*
X106698000Y-104561000D02*
X106698000Y-103956000D01*
X147711000Y-117319000D02*
X147714000Y-117323000D01*
D30*
X131943000Y-104768500D02*
X131943100Y-104768600D01*
X144810600Y-110617000D02*
X144810500Y-110616900D01*
D31*
X131943000Y-104768500D02*
X131943000Y-104212000D01*
X119665500Y-110782000D02*
X121798000Y-110782000D01*
D30*
X147015200Y-110576500D02*
X147055400Y-110536300D01*
X130884200Y-119972000D02*
X130884400Y-119972200D01*
D31*
X106698000Y-105166000D02*
X106698000Y-104561000D01*
X121736000Y-120015000D02*
X121735800Y-120015000D01*
X119357000Y-121333000D02*
X119414000Y-121276000D01*
D30*
X106698000Y-104561000D02*
X106697700Y-104561300D01*
D31*
X131943000Y-105325000D02*
X131943000Y-104768500D01*
D30*
X115115100Y-117264000D02*
X115115000Y-117264100D01*
D31*
X119665000Y-110782000D02*
X119665500Y-110782000D01*
X130884000Y-119972000D02*
X129664000Y-119972000D01*
X147015000Y-110576500D02*
X147055000Y-110536000D01*
X146233000Y-117319000D02*
X146233100Y-117319000D01*
X121841900Y-110738100D02*
X121842000Y-110738000D01*
D30*
X118273000Y-121333000D02*
X118272900Y-121333000D01*
D31*
X121798000Y-110782000D02*
X121841900Y-110738100D01*
X147055000Y-110536000D02*
X147055000Y-110109000D01*
X151623700Y-105540300D02*
X151624000Y-105540000D01*
X146975000Y-110617000D02*
X147015000Y-110576500D01*
X147055000Y-110109000D02*
X151623700Y-105540300D01*
X115115100Y-117264000D02*
X116599000Y-117264000D01*
D30*
X119665500Y-110782000D02*
X119665000Y-110781500D01*
D31*
X115115000Y-117264000D02*
X115115100Y-117264000D01*
X129664000Y-119972000D02*
X129625000Y-120011000D01*
D30*
X130884000Y-119972000D02*
X130884200Y-119972000D01*
X118272900Y-121333000D02*
X118272600Y-121333300D01*
D31*
X141283000Y-118589000D02*
X141283100Y-118589000D01*
X116599000Y-117264000D02*
X116616000Y-117248000D01*
D30*
X147015000Y-110576500D02*
X147015200Y-110576500D01*
D31*
X106698000Y-103956000D02*
X106701000Y-103953000D01*
D30*
X131943100Y-104768600D02*
X131943100Y-105325100D01*
D31*
X144810600Y-110617000D02*
X146975000Y-110617000D01*
X144810000Y-110617000D02*
X144810600Y-110617000D01*
X121842000Y-110738000D02*
X123230000Y-110738000D01*
X131943000Y-104212000D02*
X131941000Y-104210000D01*
D30*
X146233100Y-117319000D02*
X146232700Y-117319400D01*
D31*
X142661000Y-118589000D02*
X142710000Y-118541000D01*
X121735800Y-120015000D02*
X120515000Y-120015000D01*
D30*
%TO.N,Net-(C9-Pad2)*%
X114288700Y-105704700D02*
X111607800Y-105704700D01*
X115375000Y-104618400D02*
X114288700Y-105704700D01*
X111607800Y-105704700D02*
X111284400Y-106028100D01*
%TO.N,Net-(Mic_In1-Pin_2)*%
X103216300Y-120642600D02*
X100541000Y-120642600D01*
X99231900Y-120560200D02*
X100458600Y-120560200D01*
X103292200Y-120642600D02*
X103216300Y-120642600D01*
X103452200Y-120482600D02*
X103292200Y-120642600D01*
X103216300Y-120642600D02*
X103216300Y-122667400D01*
X100541000Y-120642600D02*
X100458600Y-120560200D01*
X103216300Y-122667400D02*
X103397000Y-122848100D01*
%TO.N,Net-(C10-Pad2)*%
X138637400Y-104306300D02*
X138065300Y-104878400D01*
X140367100Y-104306300D02*
X138637400Y-104306300D01*
X140515100Y-104454300D02*
X140367100Y-104306300D01*
X138065300Y-104878400D02*
X138065300Y-105019600D01*
%TO.N,Net-(U3A-+)*%
X138535700Y-107956100D02*
X137132500Y-107956100D01*
X143157900Y-103482500D02*
X142018600Y-103482500D01*
X143665400Y-103990000D02*
X143157900Y-103482500D01*
X141658800Y-103842300D02*
X141658800Y-104833000D01*
X144678400Y-112484800D02*
X144810500Y-112616900D01*
X141658800Y-104833000D02*
X138535700Y-107956100D01*
X142864500Y-112484800D02*
X143665400Y-112484800D01*
X143665400Y-112484800D02*
X143665400Y-103990000D01*
X143665400Y-112484800D02*
X144678400Y-112484800D01*
X142018600Y-103482500D02*
X141658800Y-103842300D01*
X147055400Y-112611300D02*
X147049800Y-112616900D01*
X147049800Y-112616900D02*
X144810500Y-112616900D01*
%TO.N,Net-(U3B--)*%
X143309000Y-105173200D02*
X143309000Y-106978900D01*
X142082500Y-107956100D02*
X142082500Y-109226100D01*
X143309000Y-106978900D02*
X142331800Y-107956100D01*
X142590100Y-104454300D02*
X143309000Y-105173200D01*
X142331800Y-107956100D02*
X142082500Y-107956100D01*
%TO.N,Net-(C13-Pad1)*%
X106999800Y-119951000D02*
X106999800Y-121196400D01*
D31*
%TO.N,Net-(U6-CLK)*%
X136333000Y-116930000D02*
X135492000Y-116089000D01*
X136333000Y-117432000D02*
X136333000Y-116930000D01*
D30*
X136332700Y-117432200D02*
X136332800Y-117432200D01*
X136332800Y-117432200D02*
X136333000Y-117432000D01*
%TO.N,Net-(R14-Pad2)*%
X141251300Y-115711600D02*
X141251300Y-116521500D01*
X140863000Y-115323300D02*
X141251300Y-115711600D01*
%TO.N,Net-(R15-Pad2)*%
X140971600Y-123146600D02*
X141314600Y-122803600D01*
X141314600Y-122803600D02*
X141314600Y-121856700D01*
%TO.N,Net-(C6-Pad2)*%
X120719800Y-123544500D02*
X118483800Y-123544500D01*
X112222100Y-124374800D02*
X113116500Y-123480400D01*
X109778600Y-124374800D02*
X112222100Y-124374800D01*
X108820100Y-123416300D02*
X109778600Y-124374800D01*
X117166400Y-124439500D02*
X118272600Y-123333300D01*
X114075600Y-124439500D02*
X117166400Y-124439500D01*
X118483800Y-123544500D02*
X118272600Y-123333300D01*
X113116500Y-123480400D02*
X114075600Y-124439500D01*
%TO.N,Net-(D1-K)*%
X106381900Y-107329500D02*
X109015600Y-107329500D01*
X112063200Y-109296800D02*
X112327700Y-109296800D01*
X108697700Y-105166000D02*
X109030600Y-105498900D01*
X112327700Y-109296800D02*
X113440500Y-108184000D01*
X109030600Y-105884400D02*
X109030600Y-107314500D01*
X113440500Y-108184000D02*
X113440500Y-107892100D01*
X109030600Y-105498900D02*
X109030600Y-105884400D01*
X109030600Y-105884400D02*
X109969500Y-105884400D01*
X109015600Y-107329500D02*
X109030600Y-107314500D01*
%TO.N,Net-(D1-A)*%
X118463100Y-110433000D02*
X118463100Y-111086400D01*
X122012100Y-114153900D02*
X113347800Y-114153900D01*
X108896400Y-117572300D02*
X108896400Y-110748700D01*
X118463100Y-111086400D02*
X119084500Y-111707800D01*
X119084500Y-111707800D02*
X122291300Y-111707800D01*
X111798800Y-112697000D02*
X111614000Y-112697000D01*
X115810900Y-107663800D02*
X115810900Y-109645600D01*
X111798800Y-112697000D02*
X111798800Y-110831200D01*
X111798800Y-110831200D02*
X112063200Y-110566800D01*
X117013200Y-106756800D02*
X116717900Y-106756800D01*
X122846900Y-112263400D02*
X122846900Y-113319100D01*
X106388600Y-110622800D02*
X106396700Y-110622800D01*
X106381900Y-110629500D02*
X106388600Y-110622800D01*
X108896400Y-110748700D02*
X109030600Y-110614500D01*
X113347800Y-114153900D02*
X113255700Y-114153900D01*
X108770500Y-110622800D02*
X108896400Y-110748700D01*
X112129800Y-117808000D02*
X109132100Y-117808000D01*
X116026500Y-109861200D02*
X117891300Y-109861200D01*
X113255700Y-114153900D02*
X111798800Y-112697000D01*
X122291300Y-111707800D02*
X122846900Y-112263400D01*
X115810900Y-109645600D02*
X116026500Y-109861200D01*
X122846900Y-113319100D02*
X122012100Y-114153900D01*
X106396700Y-110622800D02*
X106396700Y-109296900D01*
X106396700Y-110622800D02*
X108770500Y-110622800D01*
X109132100Y-117808000D02*
X108896400Y-117572300D01*
X113347800Y-114153900D02*
X113347800Y-116590000D01*
X116717900Y-106756800D02*
X115810900Y-107663800D01*
X113347800Y-116590000D02*
X112129800Y-117808000D01*
X117891300Y-109861200D02*
X118463100Y-110433000D01*
%TO.N,Net-(D3-K)*%
X138339600Y-107011500D02*
X138030000Y-107321100D01*
X138339600Y-106342800D02*
X138339600Y-107011500D01*
X135891800Y-107321100D02*
X135891800Y-108301000D01*
X131761200Y-103702600D02*
X132320600Y-103702600D01*
X135891800Y-108301000D02*
X136816900Y-109226100D01*
X135891800Y-107321100D02*
X134257900Y-107321100D01*
X130858000Y-104605800D02*
X131761200Y-103702600D01*
X138030000Y-107321100D02*
X135891800Y-107321100D01*
X137321900Y-105325100D02*
X138339600Y-106342800D01*
X131592400Y-107303700D02*
X134240500Y-107303700D01*
X136816900Y-109226100D02*
X137132500Y-109226100D01*
X134240500Y-107303700D02*
X134253500Y-107316700D01*
X132320600Y-103702600D02*
X133943100Y-105325100D01*
X130858000Y-105679500D02*
X130858000Y-104605800D01*
X133943100Y-105325100D02*
X137321900Y-105325100D01*
X134257900Y-107321100D02*
X134253500Y-107316700D01*
%TO.N,Net-(D3-A)*%
X137773400Y-110496100D02*
X137132500Y-110496100D01*
X134240500Y-110603700D02*
X134253500Y-110616700D01*
X136712000Y-112438000D02*
X136712000Y-110916600D01*
X131592400Y-110603700D02*
X133246600Y-110603700D01*
X142082500Y-106686100D02*
X141583400Y-106686100D01*
X141583400Y-106686100D02*
X137773400Y-110496100D01*
X133246600Y-110603700D02*
X134240500Y-110603700D01*
X136412100Y-110616700D02*
X136712000Y-110916600D01*
X133246600Y-110603700D02*
X133246600Y-110444500D01*
X136712000Y-110916600D02*
X137132500Y-110496100D01*
X134253500Y-110616700D02*
X136412100Y-110616700D01*
%TO.N,Net-(U6-IN)*%
X129559600Y-117432200D02*
X127113900Y-114986500D01*
X130884400Y-117432200D02*
X129559600Y-117432200D01*
%TO.N,Net-(C4-Pad2)*%
X115497600Y-112697000D02*
X115535600Y-112659000D01*
X113614000Y-112697000D02*
X115497600Y-112697000D01*
%TO.N,Net-(C5-Pad2)*%
X140789500Y-112484800D02*
X138758800Y-112484800D01*
X138758800Y-112484800D02*
X138712000Y-112438000D01*
%TO.N,Net-(U2B--)*%
X118298900Y-104618400D02*
X119273700Y-105593200D01*
X117450000Y-104618400D02*
X118298900Y-104618400D01*
X117013200Y-108026800D02*
X117013200Y-109296800D01*
X117963600Y-108026800D02*
X119273700Y-106716700D01*
X117013200Y-108026800D02*
X117963600Y-108026800D01*
%TO.N,Net-(U4-CLK)*%
X127184000Y-116914000D02*
X128000700Y-116914000D01*
D31*
X127184000Y-117475000D02*
X127184000Y-116914000D01*
D30*
X128000700Y-116914000D02*
X128141000Y-117054300D01*
X127184100Y-117475000D02*
X128141000Y-117475000D01*
X128141000Y-117054300D02*
X128141000Y-117475000D01*
D31*
X127184000Y-116914000D02*
X127184000Y-116353000D01*
X127184000Y-116353000D02*
X127218000Y-116319000D01*
D30*
%TO.N,Net-(R16-Pad2)*%
X147711800Y-116575500D02*
X148222100Y-117085800D01*
X148222100Y-117855100D02*
X148393800Y-118026800D01*
X144746600Y-115336400D02*
X145985700Y-116575500D01*
X148393800Y-121101300D02*
X147820100Y-121675000D01*
X148393800Y-118026800D02*
X148393800Y-121101300D01*
X148222100Y-117085800D02*
X148222100Y-117855100D01*
X145985700Y-116575500D02*
X147711800Y-116575500D01*
X147820100Y-121675000D02*
X145010100Y-121675000D01*
%TO.N,Net-(C14-Pad2)*%
X112005800Y-122754600D02*
X112005800Y-119383200D01*
X112005800Y-119383200D02*
X111742800Y-119120200D01*
%TO.N,Net-(U4-IN)*%
X120345400Y-117475000D02*
X119914300Y-117043900D01*
X121735800Y-117475000D02*
X120345400Y-117475000D01*
%TO.N,Net-(U4-OUT)*%
X120778800Y-121285000D02*
X120778800Y-120675300D01*
X120778800Y-120675300D02*
X120795500Y-120658600D01*
X121735800Y-121285000D02*
X120778800Y-121285000D01*
%TO.N,Net-(U6-OUT)*%
X129927400Y-121242200D02*
X129927400Y-122524800D01*
X130884400Y-121242200D02*
X129927400Y-121242200D01*
X129927400Y-122524800D02*
X128845900Y-123606300D01*
%TO.N,Net-(U4-OPIN-)*%
X127184100Y-120015000D02*
X128141000Y-120015000D01*
X128141000Y-120015000D02*
X128141000Y-121285000D01*
X127184100Y-121285000D02*
X128141000Y-121285000D01*
%TO.N,Net-(U6-OPIN-)*%
X136332700Y-119972200D02*
X137289600Y-119972200D01*
X136332700Y-121242200D02*
X137289600Y-121242200D01*
X137289600Y-119972200D02*
X137289600Y-121242200D01*
%TO.N,Net-(U7B--)*%
X140310200Y-119224900D02*
X145597200Y-119224900D01*
X134073200Y-124542000D02*
X135008900Y-123606300D01*
X145597200Y-119224900D02*
X146232700Y-118589400D01*
X135928800Y-123606300D02*
X140310200Y-119224900D01*
X131781600Y-124542000D02*
X134073200Y-124542000D01*
X130845900Y-123606300D02*
X131781600Y-124542000D01*
X135008900Y-123606300D02*
X135928800Y-123606300D01*
%TO.N,Net-(Mic_Out1-Pad3)*%
X134591400Y-122023800D02*
X133008900Y-123606300D01*
X140250700Y-118050900D02*
X139883600Y-118418000D01*
X147862000Y-119272600D02*
X147862000Y-118669400D01*
X136934700Y-122023800D02*
X134591400Y-122023800D01*
X146232700Y-119859400D02*
X147275200Y-119859400D01*
X147275200Y-119859400D02*
X147862000Y-119272600D01*
X147862000Y-118669400D02*
X147243500Y-118050900D01*
X147243500Y-118050900D02*
X140250700Y-118050900D01*
X139883600Y-119074900D02*
X136934700Y-122023800D01*
X139883600Y-118418000D02*
X139883600Y-119074900D01*
%TO.N,Net-(U7A--)*%
X142971600Y-122158800D02*
X142971600Y-121231500D01*
X149279000Y-120678300D02*
X149279000Y-117170900D01*
X142971600Y-122158800D02*
X147798500Y-122158800D01*
X146746600Y-115336400D02*
X145771900Y-114361700D01*
X141282700Y-119859400D02*
X141037800Y-119859400D01*
X133597000Y-127300200D02*
X119113000Y-127300200D01*
X147444500Y-115336400D02*
X146746600Y-115336400D01*
X141599500Y-119859400D02*
X141282700Y-119859400D01*
X145771900Y-114361700D02*
X143824600Y-114361700D01*
X149279000Y-117170900D02*
X147444500Y-115336400D01*
X142971600Y-123146600D02*
X142971600Y-122158800D01*
X119113000Y-127300200D02*
X117766800Y-128646400D01*
X147798500Y-122158800D02*
X149279000Y-120678300D01*
X141037800Y-119859400D02*
X133597000Y-127300200D01*
X142971600Y-121231500D02*
X141599500Y-119859400D01*
X143824600Y-114361700D02*
X142863000Y-115323300D01*
%TO.N,/Out_Audio*%
X141971600Y-125991500D02*
X141971600Y-121818300D01*
X141971600Y-121818300D02*
X141282700Y-121129400D01*
X143549800Y-128646400D02*
X143549800Y-127569700D01*
X143549800Y-127569700D02*
X141971600Y-125991500D01*
X144626500Y-128646400D02*
X143549800Y-128646400D01*
%TD*%
%TA.AperFunction,Conductor*%
%TO.N,GND*%
G36*
X116369343Y-121782278D02*
G01*
X116369736Y-121781156D01*
X116406543Y-121794035D01*
X116535941Y-121839313D01*
X116555502Y-121841517D01*
X116703997Y-121858249D01*
X116704000Y-121858249D01*
X116704003Y-121858249D01*
X116852498Y-121841517D01*
X116872059Y-121839313D01*
X116943148Y-121814437D01*
X117012926Y-121810875D01*
X117073554Y-121845604D01*
X117101809Y-121892475D01*
X117138241Y-122002419D01*
X117138243Y-122002424D01*
X117230284Y-122151645D01*
X117323904Y-122245265D01*
X117357389Y-122306588D01*
X117352405Y-122376280D01*
X117323905Y-122420627D01*
X117229887Y-122514645D01*
X117137787Y-122663963D01*
X117137785Y-122663968D01*
X117129940Y-122687644D01*
X117082601Y-122830503D01*
X117082601Y-122830504D01*
X117082600Y-122830504D01*
X117072100Y-122933283D01*
X117072100Y-123668556D01*
X117052415Y-123735595D01*
X117035782Y-123756237D01*
X116964339Y-123827681D01*
X116903016Y-123861166D01*
X116876657Y-123864000D01*
X116403500Y-123864000D01*
X116336461Y-123844315D01*
X116290706Y-123791511D01*
X116279500Y-123740000D01*
X116279499Y-122955398D01*
X116279498Y-122955380D01*
X116268999Y-122852603D01*
X116268998Y-122852600D01*
X116248103Y-122789543D01*
X116213814Y-122686066D01*
X116121712Y-122536744D01*
X115997656Y-122412688D01*
X115893733Y-122348588D01*
X115848336Y-122320587D01*
X115848331Y-122320585D01*
X115813617Y-122309082D01*
X115681797Y-122265401D01*
X115681795Y-122265400D01*
X115579016Y-122254900D01*
X114831242Y-122254900D01*
X114764203Y-122235215D01*
X114743561Y-122218581D01*
X114611261Y-122086281D01*
X114577776Y-122024958D01*
X114582760Y-121955266D01*
X114624632Y-121899333D01*
X114690096Y-121874916D01*
X114698942Y-121874600D01*
X116005686Y-121874600D01*
X116005694Y-121874600D01*
X116042569Y-121871698D01*
X116042571Y-121871697D01*
X116042573Y-121871697D01*
X116200392Y-121825846D01*
X116200392Y-121825845D01*
X116200398Y-121825844D01*
X116261732Y-121789570D01*
X116329452Y-121772389D01*
X116369343Y-121782278D01*
G37*
%TD.AperFunction*%
%TA.AperFunction,Conductor*%
G36*
X135045040Y-120050185D02*
G01*
X135090795Y-120102989D01*
X135102001Y-120154500D01*
X135102001Y-120286776D01*
X135108408Y-120346383D01*
X135158702Y-120481228D01*
X135158704Y-120481231D01*
X135197375Y-120532889D01*
X135221792Y-120598354D01*
X135206940Y-120666627D01*
X135197375Y-120681511D01*
X135158704Y-120733168D01*
X135158702Y-120733171D01*
X135108410Y-120868013D01*
X135108409Y-120868017D01*
X135102000Y-120927627D01*
X135102000Y-121166434D01*
X135102001Y-121324300D01*
X135082317Y-121391339D01*
X135029513Y-121437094D01*
X134978001Y-121448300D01*
X134515634Y-121448300D01*
X134369263Y-121487519D01*
X134238035Y-121563285D01*
X134238032Y-121563287D01*
X133431837Y-122369481D01*
X133370514Y-122402966D01*
X133344156Y-122405800D01*
X132608898Y-122405800D01*
X132608880Y-122405801D01*
X132506103Y-122416300D01*
X132506100Y-122416301D01*
X132339568Y-122471485D01*
X132339563Y-122471487D01*
X132190242Y-122563589D01*
X132066189Y-122687642D01*
X132066188Y-122687644D01*
X132034920Y-122738339D01*
X132032939Y-122741550D01*
X131980991Y-122788274D01*
X131912028Y-122799497D01*
X131847946Y-122771653D01*
X131821861Y-122741550D01*
X131788612Y-122687644D01*
X131664556Y-122563588D01*
X131526299Y-122478311D01*
X131515236Y-122471487D01*
X131515231Y-122471485D01*
X131513762Y-122470998D01*
X131348697Y-122416301D01*
X131348695Y-122416300D01*
X131245916Y-122405800D01*
X131245909Y-122405800D01*
X130626900Y-122405800D01*
X130559861Y-122386115D01*
X130514106Y-122333311D01*
X130502900Y-122281800D01*
X130502900Y-122133399D01*
X130522585Y-122066360D01*
X130575389Y-122020605D01*
X130626900Y-122009399D01*
X131662571Y-122009399D01*
X131662572Y-122009399D01*
X131722183Y-122002991D01*
X131857031Y-121952696D01*
X131972246Y-121866446D01*
X132058496Y-121751231D01*
X132108791Y-121616383D01*
X132115200Y-121556773D01*
X132115199Y-120927628D01*
X132109878Y-120878132D01*
X132108791Y-120868016D01*
X132058497Y-120733171D01*
X132058495Y-120733168D01*
X132051553Y-120723895D01*
X132019512Y-120681093D01*
X131995095Y-120615631D01*
X132009946Y-120547357D01*
X132019513Y-120532471D01*
X132058052Y-120480989D01*
X132058054Y-120480986D01*
X132108296Y-120346279D01*
X132108298Y-120346272D01*
X132114699Y-120286744D01*
X132114700Y-120286727D01*
X132114700Y-120154500D01*
X132134385Y-120087461D01*
X132187189Y-120041706D01*
X132238700Y-120030500D01*
X134978001Y-120030500D01*
X135045040Y-120050185D01*
G37*
%TD.AperFunction*%
%TA.AperFunction,Conductor*%
G36*
X119709602Y-118947336D02*
G01*
X119745439Y-119000093D01*
X119751273Y-119016764D01*
X119764544Y-119054692D01*
X119764547Y-119054697D01*
X119854518Y-119197884D01*
X119854523Y-119197890D01*
X119974109Y-119317476D01*
X119974115Y-119317481D01*
X120117302Y-119407452D01*
X120117305Y-119407454D01*
X120117309Y-119407455D01*
X120117310Y-119407456D01*
X120167460Y-119425004D01*
X120276943Y-119463314D01*
X120408307Y-119478115D01*
X120472720Y-119505181D01*
X120512276Y-119562776D01*
X120514413Y-119632613D01*
X120512638Y-119638231D01*
X120512001Y-119640927D01*
X120505600Y-119700455D01*
X120505600Y-119885867D01*
X120485915Y-119952906D01*
X120447573Y-119990859D01*
X120401525Y-120019794D01*
X120324609Y-120068123D01*
X120205025Y-120187707D01*
X120205020Y-120187713D01*
X120199946Y-120195789D01*
X120147610Y-120242078D01*
X120078556Y-120252724D01*
X120014708Y-120224346D01*
X120007274Y-120217494D01*
X119540718Y-119750938D01*
X119507233Y-119689615D01*
X119504399Y-119663257D01*
X119504399Y-119041049D01*
X119524084Y-118974010D01*
X119576888Y-118928255D01*
X119646046Y-118918311D01*
X119709602Y-118947336D01*
G37*
%TD.AperFunction*%
%TA.AperFunction,Conductor*%
G36*
X143841582Y-116308598D02*
G01*
X143885931Y-116337099D01*
X143927944Y-116379112D01*
X144077266Y-116471214D01*
X144243803Y-116526399D01*
X144346591Y-116536900D01*
X144821599Y-116536899D01*
X144888637Y-116556583D01*
X144934392Y-116609387D01*
X144944336Y-116678546D01*
X144915311Y-116742102D01*
X144909281Y-116748578D01*
X144890022Y-116767837D01*
X144890014Y-116767847D01*
X144806418Y-116909201D01*
X144760599Y-117066913D01*
X144760404Y-117069398D01*
X144760405Y-117069400D01*
X145656934Y-117069400D01*
X145718933Y-117086012D01*
X145763565Y-117111781D01*
X145909933Y-117151000D01*
X145909934Y-117151000D01*
X146358700Y-117151000D01*
X146425739Y-117170685D01*
X146471494Y-117223489D01*
X146482700Y-117275000D01*
X146482700Y-117351400D01*
X146463015Y-117418439D01*
X146410211Y-117464194D01*
X146358700Y-117475400D01*
X142882200Y-117475400D01*
X142815161Y-117455715D01*
X142769406Y-117402911D01*
X142758200Y-117351400D01*
X142758200Y-117103713D01*
X142758199Y-117103698D01*
X142757972Y-117100817D01*
X142755298Y-117066831D01*
X142752737Y-117058017D01*
X142714961Y-116927991D01*
X142709444Y-116909002D01*
X142625781Y-116767535D01*
X142625779Y-116767533D01*
X142625776Y-116767529D01*
X142593727Y-116735480D01*
X142560242Y-116674157D01*
X142565226Y-116604465D01*
X142607098Y-116548532D01*
X142672562Y-116524115D01*
X142681387Y-116523799D01*
X143263008Y-116523799D01*
X143263016Y-116523798D01*
X143263019Y-116523798D01*
X143319302Y-116518048D01*
X143365797Y-116513299D01*
X143532334Y-116458114D01*
X143681656Y-116366012D01*
X143710568Y-116337099D01*
X143771890Y-116303614D01*
X143841582Y-116308598D01*
G37*
%TD.AperFunction*%
%TA.AperFunction,Conductor*%
G36*
X139372201Y-104901485D02*
G01*
X139417956Y-104954289D01*
X139428520Y-104993199D01*
X139437600Y-105082096D01*
X139437601Y-105082099D01*
X139477978Y-105203947D01*
X139492786Y-105248634D01*
X139584888Y-105397956D01*
X139708944Y-105522012D01*
X139851916Y-105610197D01*
X139898641Y-105662145D01*
X139909864Y-105731107D01*
X139882021Y-105795189D01*
X139874501Y-105803417D01*
X139126781Y-106551138D01*
X139065458Y-106584623D01*
X138995767Y-106579639D01*
X138939833Y-106537767D01*
X138915416Y-106472303D01*
X138915100Y-106463457D01*
X138915100Y-106267033D01*
X138912193Y-106256185D01*
X138912192Y-106256182D01*
X138906061Y-106233302D01*
X138875881Y-106120665D01*
X138800115Y-105989435D01*
X138566154Y-105755474D01*
X138532669Y-105694151D01*
X138537653Y-105624459D01*
X138566150Y-105580116D01*
X138655777Y-105490490D01*
X138658086Y-105486815D01*
X138745752Y-105347297D01*
X138745754Y-105347294D01*
X138745754Y-105347292D01*
X138745756Y-105347290D01*
X138801613Y-105187659D01*
X138801613Y-105187658D01*
X138801614Y-105187656D01*
X138820549Y-105019602D01*
X138820549Y-105012635D01*
X138821792Y-105012635D01*
X138832614Y-104950860D01*
X138879964Y-104899481D01*
X138943779Y-104881800D01*
X139305162Y-104881800D01*
X139372201Y-104901485D01*
G37*
%TD.AperFunction*%
%TA.AperFunction,Conductor*%
G36*
X150377479Y-102599685D02*
G01*
X150423234Y-102652489D01*
X150433178Y-102721647D01*
X150404153Y-102785203D01*
X150366091Y-102814810D01*
X150121161Y-102937819D01*
X149829180Y-103129857D01*
X149686519Y-103249564D01*
X149686518Y-103249565D01*
X150933574Y-104496620D01*
X150809380Y-104586854D01*
X150670254Y-104725980D01*
X150580020Y-104850173D01*
X149329848Y-103600001D01*
X149329847Y-103600002D01*
X149321676Y-103608663D01*
X149321672Y-103608668D01*
X149112989Y-103888977D01*
X148938261Y-104191616D01*
X148938255Y-104191629D01*
X148799845Y-104512499D01*
X148699616Y-104847288D01*
X148699614Y-104847297D01*
X148638936Y-105191419D01*
X148638935Y-105191430D01*
X148618616Y-105540296D01*
X148618616Y-105540303D01*
X148638935Y-105889169D01*
X148638936Y-105889180D01*
X148699614Y-106233302D01*
X148699616Y-106233311D01*
X148799845Y-106568100D01*
X148938255Y-106888970D01*
X148938261Y-106888983D01*
X149112989Y-107191622D01*
X149321667Y-107471925D01*
X149329848Y-107480596D01*
X150580020Y-106230425D01*
X150670254Y-106354620D01*
X150809380Y-106493746D01*
X150933573Y-106583978D01*
X149686518Y-107831033D01*
X149686519Y-107831034D01*
X149829184Y-107950745D01*
X150121161Y-108142780D01*
X150433439Y-108299614D01*
X150433445Y-108299616D01*
X150761830Y-108419138D01*
X150761833Y-108419139D01*
X151101871Y-108499729D01*
X151448976Y-108540299D01*
X151448977Y-108540300D01*
X151798423Y-108540300D01*
X151798423Y-108540299D01*
X152145527Y-108499729D01*
X152145529Y-108499729D01*
X152485566Y-108419139D01*
X152485569Y-108419138D01*
X152813954Y-108299616D01*
X152813960Y-108299614D01*
X153126238Y-108142780D01*
X153418209Y-107950749D01*
X153418210Y-107950748D01*
X153560879Y-107831034D01*
X153560880Y-107831033D01*
X152313826Y-106583978D01*
X152438020Y-106493746D01*
X152577146Y-106354620D01*
X152667378Y-106230426D01*
X153917549Y-107480597D01*
X153917551Y-107480596D01*
X153925722Y-107471936D01*
X153925733Y-107471923D01*
X154134410Y-107191622D01*
X154309138Y-106888983D01*
X154309144Y-106888970D01*
X154447554Y-106568100D01*
X154547783Y-106233311D01*
X154547785Y-106233302D01*
X154608463Y-105889180D01*
X154608464Y-105889169D01*
X154628784Y-105540303D01*
X154628784Y-105540296D01*
X154608464Y-105191430D01*
X154608463Y-105191419D01*
X154547785Y-104847297D01*
X154547783Y-104847288D01*
X154447554Y-104512499D01*
X154309144Y-104191629D01*
X154309138Y-104191616D01*
X154134410Y-103888977D01*
X153925732Y-103608674D01*
X153917550Y-103600002D01*
X152667378Y-104850173D01*
X152577146Y-104725980D01*
X152438020Y-104586854D01*
X152313825Y-104496620D01*
X153560880Y-103249565D01*
X153560879Y-103249564D01*
X153418219Y-103129857D01*
X153126238Y-102937819D01*
X152881309Y-102814810D01*
X152830234Y-102767132D01*
X152813045Y-102699410D01*
X152835198Y-102633145D01*
X152889659Y-102589376D01*
X152936960Y-102580000D01*
X154816000Y-102580000D01*
X154883039Y-102599685D01*
X154928794Y-102652489D01*
X154940000Y-102704000D01*
X154940000Y-131956000D01*
X154920315Y-132023039D01*
X154867511Y-132068794D01*
X154816000Y-132080000D01*
X96064000Y-132080000D01*
X95996961Y-132060315D01*
X95951206Y-132007511D01*
X95940000Y-131956000D01*
X95940000Y-130198415D01*
X95959685Y-130131376D01*
X96012489Y-130085621D01*
X96081647Y-130075677D01*
X96145203Y-130104702D01*
X96177861Y-130149306D01*
X96179355Y-130152770D01*
X96179361Y-130152783D01*
X96354089Y-130455422D01*
X96562767Y-130735725D01*
X96570948Y-130744396D01*
X97821119Y-129494224D01*
X97911354Y-129618420D01*
X98050480Y-129757546D01*
X98174673Y-129847778D01*
X96927618Y-131094833D01*
X96927619Y-131094834D01*
X97070284Y-131214545D01*
X97362261Y-131406580D01*
X97674539Y-131563414D01*
X97674545Y-131563416D01*
X98002930Y-131682938D01*
X98002933Y-131682939D01*
X98342971Y-131763529D01*
X98690076Y-131804099D01*
X98690077Y-131804100D01*
X99039523Y-131804100D01*
X99039523Y-131804099D01*
X99386627Y-131763529D01*
X99386629Y-131763529D01*
X99726666Y-131682939D01*
X99726669Y-131682938D01*
X100055054Y-131563416D01*
X100055060Y-131563414D01*
X100367338Y-131406580D01*
X100659309Y-131214549D01*
X100659310Y-131214548D01*
X100801979Y-131094834D01*
X100801980Y-131094833D01*
X99554926Y-129847778D01*
X99679120Y-129757546D01*
X99818246Y-129618420D01*
X99908478Y-129494226D01*
X101158649Y-130744397D01*
X101158651Y-130744396D01*
X101166822Y-130735736D01*
X101166833Y-130735723D01*
X101375510Y-130455422D01*
X101550238Y-130152783D01*
X101550244Y-130152770D01*
X101688654Y-129831900D01*
X101788883Y-129497111D01*
X101788885Y-129497102D01*
X101849563Y-129152980D01*
X101849564Y-129152969D01*
X101869884Y-128804103D01*
X101869884Y-128804096D01*
X101849564Y-128455230D01*
X101849563Y-128455219D01*
X101839192Y-128396400D01*
X104286700Y-128396400D01*
X105232554Y-128396400D01*
X105194070Y-128463057D01*
X105161700Y-128583865D01*
X105161700Y-128708935D01*
X105194070Y-128829743D01*
X105232554Y-128896400D01*
X104286701Y-128896400D01*
X104286701Y-129421386D01*
X104297194Y-129524097D01*
X104352341Y-129690519D01*
X104352343Y-129690524D01*
X104444384Y-129839745D01*
X104568354Y-129963715D01*
X104717575Y-130055756D01*
X104717580Y-130055758D01*
X104884002Y-130110905D01*
X104884009Y-130110906D01*
X104986719Y-130121399D01*
X105386699Y-130121399D01*
X105386700Y-130121398D01*
X105386700Y-129050545D01*
X105453357Y-129089030D01*
X105574165Y-129121400D01*
X105699235Y-129121400D01*
X105820043Y-129089030D01*
X105886700Y-129050545D01*
X105886700Y-130121399D01*
X106286672Y-130121399D01*
X106286686Y-130121398D01*
X106389397Y-130110905D01*
X106555819Y-130055758D01*
X106555824Y-130055756D01*
X106705045Y-129963715D01*
X106829017Y-129839743D01*
X106924515Y-129684916D01*
X106976463Y-129638191D01*
X107045425Y-129626968D01*
X107109508Y-129654812D01*
X107117735Y-129662331D01*
X107256913Y-129801509D01*
X107428879Y-129926448D01*
X107428881Y-129926449D01*
X107428884Y-129926451D01*
X107618288Y-130022957D01*
X107820457Y-130088646D01*
X108030413Y-130121900D01*
X108030414Y-130121900D01*
X108242986Y-130121900D01*
X108242987Y-130121900D01*
X108452943Y-130088646D01*
X108655112Y-130022957D01*
X108844516Y-129926451D01*
X108929448Y-129864745D01*
X109016486Y-129801509D01*
X109016488Y-129801506D01*
X109016492Y-129801504D01*
X109166804Y-129651192D01*
X109286383Y-129486604D01*
X109341711Y-129443940D01*
X109411324Y-129437961D01*
X109473120Y-129470566D01*
X109487013Y-129486599D01*
X109582786Y-129618420D01*
X109606596Y-129651192D01*
X109756913Y-129801509D01*
X109928879Y-129926448D01*
X109928881Y-129926449D01*
X109928884Y-129926451D01*
X110118288Y-130022957D01*
X110320457Y-130088646D01*
X110530413Y-130121900D01*
X110530414Y-130121900D01*
X110742986Y-130121900D01*
X110742987Y-130121900D01*
X110952943Y-130088646D01*
X111155112Y-130022957D01*
X111344516Y-129926451D01*
X111429448Y-129864745D01*
X111516486Y-129801509D01*
X111516488Y-129801506D01*
X111516492Y-129801504D01*
X111666804Y-129651192D01*
X111666806Y-129651188D01*
X111666809Y-129651186D01*
X111791748Y-129479220D01*
X111791747Y-129479220D01*
X111791751Y-129479216D01*
X111888257Y-129289812D01*
X111953946Y-129087643D01*
X111987200Y-128877687D01*
X111987200Y-128415113D01*
X111953946Y-128205157D01*
X111888257Y-128002988D01*
X111791751Y-127813584D01*
X111791749Y-127813581D01*
X111791748Y-127813579D01*
X111666809Y-127641613D01*
X111516486Y-127491290D01*
X111344520Y-127366351D01*
X111155114Y-127269844D01*
X111155113Y-127269843D01*
X111155112Y-127269843D01*
X110952943Y-127204154D01*
X110952941Y-127204153D01*
X110952940Y-127204153D01*
X110791657Y-127178608D01*
X110742987Y-127170900D01*
X110530413Y-127170900D01*
X110481742Y-127178608D01*
X110320460Y-127204153D01*
X110118285Y-127269844D01*
X109928879Y-127366351D01*
X109756913Y-127491290D01*
X109606594Y-127641609D01*
X109606590Y-127641614D01*
X109487018Y-127806193D01*
X109431689Y-127848859D01*
X109362075Y-127854838D01*
X109300280Y-127822233D01*
X109286382Y-127806193D01*
X109166809Y-127641614D01*
X109166805Y-127641609D01*
X109016486Y-127491290D01*
X108844520Y-127366351D01*
X108655114Y-127269844D01*
X108655113Y-127269843D01*
X108655112Y-127269843D01*
X108452943Y-127204154D01*
X108452941Y-127204153D01*
X108452940Y-127204153D01*
X108291657Y-127178608D01*
X108242987Y-127170900D01*
X108030413Y-127170900D01*
X107981742Y-127178608D01*
X107820460Y-127204153D01*
X107618285Y-127269844D01*
X107428879Y-127366351D01*
X107256915Y-127491289D01*
X107117735Y-127630469D01*
X107056412Y-127663953D01*
X106986720Y-127658969D01*
X106930787Y-127617097D01*
X106924515Y-127607884D01*
X106829015Y-127453054D01*
X106705045Y-127329084D01*
X106555824Y-127237043D01*
X106555819Y-127237041D01*
X106389397Y-127181894D01*
X106389390Y-127181893D01*
X106286686Y-127171400D01*
X105886700Y-127171400D01*
X105886700Y-128242254D01*
X105820043Y-128203770D01*
X105699235Y-128171400D01*
X105574165Y-128171400D01*
X105453357Y-128203770D01*
X105386700Y-128242254D01*
X105386700Y-127171400D01*
X104986728Y-127171400D01*
X104986712Y-127171401D01*
X104884002Y-127181894D01*
X104717580Y-127237041D01*
X104717575Y-127237043D01*
X104568354Y-127329084D01*
X104444384Y-127453054D01*
X104352343Y-127602275D01*
X104352341Y-127602280D01*
X104297194Y-127768702D01*
X104297193Y-127768709D01*
X104286700Y-127871413D01*
X104286700Y-128396400D01*
X101839192Y-128396400D01*
X101788885Y-128111097D01*
X101788883Y-128111088D01*
X101688654Y-127776299D01*
X101550244Y-127455429D01*
X101550238Y-127455416D01*
X101375510Y-127152777D01*
X101166832Y-126872474D01*
X101158650Y-126863802D01*
X99908478Y-128113973D01*
X99818246Y-127989780D01*
X99679120Y-127850654D01*
X99554925Y-127760420D01*
X100801980Y-126513365D01*
X100801979Y-126513364D01*
X100659319Y-126393657D01*
X100367338Y-126201619D01*
X100055060Y-126044785D01*
X100055054Y-126044783D01*
X99726669Y-125925261D01*
X99726666Y-125925260D01*
X99386628Y-125844670D01*
X99039523Y-125804100D01*
X98690077Y-125804100D01*
X98342972Y-125844670D01*
X98342970Y-125844670D01*
X98002933Y-125925260D01*
X98002930Y-125925261D01*
X97674545Y-126044783D01*
X97674539Y-126044785D01*
X97362261Y-126201619D01*
X97070280Y-126393657D01*
X96927619Y-126513364D01*
X96927618Y-126513365D01*
X98174674Y-127760420D01*
X98050480Y-127850654D01*
X97911354Y-127989780D01*
X97821120Y-128113973D01*
X96570948Y-126863801D01*
X96570947Y-126863802D01*
X96562776Y-126872463D01*
X96562772Y-126872468D01*
X96354089Y-127152777D01*
X96179361Y-127455416D01*
X96179350Y-127455438D01*
X96177858Y-127458899D01*
X96133230Y-127512659D01*
X96066622Y-127533756D01*
X95999181Y-127515494D01*
X95952320Y-127463669D01*
X95940000Y-127409784D01*
X95940000Y-120666487D01*
X97731400Y-120666487D01*
X97740748Y-120725510D01*
X97763428Y-120868707D01*
X97764654Y-120876443D01*
X97811319Y-121020063D01*
X97830344Y-121078614D01*
X97926851Y-121268020D01*
X98051790Y-121439986D01*
X98202113Y-121590309D01*
X98374079Y-121715248D01*
X98374081Y-121715249D01*
X98374084Y-121715251D01*
X98563488Y-121811757D01*
X98765657Y-121877446D01*
X98975613Y-121910700D01*
X98975614Y-121910700D01*
X99488186Y-121910700D01*
X99488187Y-121910700D01*
X99698143Y-121877446D01*
X99900312Y-121811757D01*
X100089716Y-121715251D01*
X100155735Y-121667286D01*
X100261686Y-121590309D01*
X100261688Y-121590306D01*
X100261692Y-121590304D01*
X100412004Y-121439992D01*
X100536081Y-121269213D01*
X100591409Y-121226549D01*
X100636398Y-121218100D01*
X102324390Y-121218100D01*
X102391429Y-121237785D01*
X102429927Y-121277001D01*
X102501669Y-121393313D01*
X102521989Y-121426257D01*
X102604481Y-121508749D01*
X102637966Y-121570072D01*
X102640800Y-121596430D01*
X102640800Y-121735978D01*
X102621115Y-121803017D01*
X102581896Y-121841517D01*
X102478344Y-121905387D01*
X102354289Y-122029442D01*
X102262187Y-122178763D01*
X102262185Y-122178768D01*
X102243533Y-122235056D01*
X102207001Y-122345303D01*
X102207001Y-122345304D01*
X102207000Y-122345304D01*
X102196500Y-122448083D01*
X102196500Y-123248101D01*
X102196501Y-123248119D01*
X102207000Y-123350896D01*
X102207001Y-123350899D01*
X102258825Y-123507291D01*
X102262186Y-123517434D01*
X102341867Y-123646619D01*
X102354289Y-123666757D01*
X102447951Y-123760419D01*
X102481436Y-123821742D01*
X102476452Y-123891434D01*
X102447951Y-123935781D01*
X102349181Y-124034551D01*
X102347325Y-124032695D01*
X102300262Y-124066003D01*
X102246166Y-124071924D01*
X102218004Y-124068751D01*
X102217997Y-124068751D01*
X102049943Y-124087685D01*
X101890305Y-124143545D01*
X101890302Y-124143547D01*
X101747115Y-124233518D01*
X101747109Y-124233523D01*
X101627523Y-124353109D01*
X101627518Y-124353115D01*
X101537547Y-124496302D01*
X101537545Y-124496305D01*
X101481685Y-124655943D01*
X101462751Y-124823997D01*
X101462751Y-124824002D01*
X101481685Y-124992056D01*
X101537545Y-125151694D01*
X101537547Y-125151697D01*
X101627518Y-125294884D01*
X101627523Y-125294890D01*
X101747109Y-125414476D01*
X101747115Y-125414481D01*
X101890302Y-125504452D01*
X101890305Y-125504454D01*
X101890309Y-125504455D01*
X101890310Y-125504456D01*
X101927405Y-125517436D01*
X102049943Y-125560314D01*
X102217997Y-125579249D01*
X102224964Y-125579249D01*
X102224964Y-125580811D01*
X102285625Y-125591426D01*
X102336244Y-125637503D01*
X102354287Y-125666755D01*
X102354288Y-125666756D01*
X102478344Y-125790812D01*
X102627666Y-125882914D01*
X102794203Y-125938099D01*
X102896991Y-125948600D01*
X103897008Y-125948599D01*
X103897016Y-125948598D01*
X103897019Y-125948598D01*
X103953302Y-125942848D01*
X103999797Y-125938099D01*
X104166334Y-125882914D01*
X104315656Y-125790812D01*
X104439712Y-125666756D01*
X104531814Y-125517434D01*
X104586999Y-125350897D01*
X104597500Y-125248109D01*
X104597499Y-124448092D01*
X104596328Y-124436633D01*
X104586999Y-124345303D01*
X104586998Y-124345300D01*
X104565828Y-124281414D01*
X104531814Y-124178766D01*
X104439712Y-124029444D01*
X104346049Y-123935781D01*
X104312564Y-123874458D01*
X104317548Y-123804766D01*
X104346049Y-123760419D01*
X104386549Y-123719919D01*
X104439712Y-123666756D01*
X104531814Y-123517434D01*
X104586999Y-123350897D01*
X104597500Y-123248109D01*
X104597499Y-122448092D01*
X104594693Y-122420627D01*
X104586999Y-122345303D01*
X104586998Y-122345300D01*
X104578809Y-122320587D01*
X104531814Y-122178766D01*
X104439712Y-122029444D01*
X104315656Y-121905388D01*
X104170274Y-121815716D01*
X104123551Y-121763769D01*
X104112328Y-121694806D01*
X104140172Y-121630724D01*
X104170272Y-121604641D01*
X104258356Y-121550312D01*
X104382412Y-121426256D01*
X104384161Y-121423419D01*
X104385869Y-121421883D01*
X104386893Y-121420589D01*
X104387114Y-121420763D01*
X104436106Y-121376696D01*
X104505068Y-121365472D01*
X104569151Y-121393313D01*
X104595237Y-121423417D01*
X104596988Y-121426256D01*
X104721044Y-121550312D01*
X104870366Y-121642414D01*
X105036903Y-121697599D01*
X105139691Y-121708100D01*
X105914708Y-121708099D01*
X105914716Y-121708098D01*
X105914719Y-121708098D01*
X105971002Y-121702348D01*
X106017497Y-121697599D01*
X106184034Y-121642414D01*
X106230468Y-121613772D01*
X106297857Y-121595333D01*
X106364521Y-121616255D01*
X106400556Y-121653339D01*
X106409320Y-121667286D01*
X106409321Y-121667288D01*
X106528909Y-121786876D01*
X106528915Y-121786881D01*
X106672102Y-121876852D01*
X106672105Y-121876854D01*
X106672109Y-121876855D01*
X106672110Y-121876856D01*
X106736346Y-121899333D01*
X106831743Y-121932714D01*
X106999797Y-121951649D01*
X106999800Y-121951649D01*
X106999803Y-121951649D01*
X107167856Y-121932714D01*
X107175898Y-121929900D01*
X107327490Y-121876856D01*
X107327492Y-121876854D01*
X107327494Y-121876854D01*
X107327497Y-121876852D01*
X107470684Y-121786881D01*
X107470685Y-121786880D01*
X107470690Y-121786877D01*
X107590277Y-121667290D01*
X107616240Y-121625970D01*
X107680252Y-121524097D01*
X107680254Y-121524094D01*
X107680254Y-121524092D01*
X107680256Y-121524090D01*
X107736113Y-121364459D01*
X107736113Y-121364458D01*
X107736114Y-121364456D01*
X107755049Y-121196402D01*
X107755049Y-121196397D01*
X107736114Y-121028343D01*
X107703431Y-120934941D01*
X107680256Y-120868710D01*
X107595091Y-120733171D01*
X107594306Y-120731922D01*
X107575300Y-120665950D01*
X107575300Y-120481449D01*
X107594307Y-120415476D01*
X107595005Y-120414366D01*
X107680256Y-120278690D01*
X107736113Y-120119059D01*
X107736113Y-120119058D01*
X107736114Y-120119056D01*
X107755049Y-119951002D01*
X107755049Y-119950997D01*
X107736114Y-119782943D01*
X107686382Y-119640817D01*
X107680256Y-119623310D01*
X107680255Y-119623309D01*
X107680254Y-119623305D01*
X107680252Y-119623302D01*
X107590281Y-119480115D01*
X107590276Y-119480109D01*
X107554604Y-119444437D01*
X107521119Y-119383114D01*
X107526103Y-119313422D01*
X107554601Y-119269077D01*
X107677762Y-119145916D01*
X107739084Y-119112434D01*
X107765442Y-119109600D01*
X108688878Y-119109600D01*
X108755917Y-119129285D01*
X108801672Y-119182089D01*
X108811616Y-119251247D01*
X108795610Y-119296721D01*
X108738255Y-119393703D01*
X108738254Y-119393706D01*
X108692402Y-119551526D01*
X108692401Y-119551532D01*
X108689500Y-119588398D01*
X108689500Y-120019801D01*
X108692401Y-120056667D01*
X108692402Y-120056673D01*
X108738254Y-120214493D01*
X108738255Y-120214496D01*
X108821917Y-120355962D01*
X108826702Y-120362131D01*
X108824256Y-120364027D01*
X108850857Y-120412742D01*
X108845873Y-120482434D01*
X108825069Y-120514803D01*
X108826702Y-120516069D01*
X108821917Y-120522237D01*
X108738255Y-120663703D01*
X108738254Y-120663706D01*
X108692402Y-120821526D01*
X108692401Y-120821532D01*
X108689500Y-120858398D01*
X108689500Y-121289801D01*
X108692401Y-121326667D01*
X108692402Y-121326673D01*
X108738254Y-121484493D01*
X108738255Y-121484496D01*
X108738256Y-121484498D01*
X108757020Y-121516227D01*
X108821917Y-121625962D01*
X108821923Y-121625970D01*
X108938129Y-121742176D01*
X108938133Y-121742179D01*
X108938135Y-121742181D01*
X109079602Y-121825844D01*
X109114549Y-121835997D01*
X109237426Y-121871697D01*
X109237429Y-121871697D01*
X109237431Y-121871698D01*
X109274306Y-121874600D01*
X110100258Y-121874600D01*
X110167297Y-121894285D01*
X110187939Y-121910919D01*
X110283281Y-122006261D01*
X110316766Y-122067584D01*
X110319600Y-122093942D01*
X110319600Y-122139993D01*
X110299915Y-122207032D01*
X110247111Y-122252787D01*
X110241321Y-122255061D01*
X110238269Y-122256484D01*
X110088942Y-122348589D01*
X109964885Y-122472646D01*
X109963137Y-122475482D01*
X109961429Y-122477017D01*
X109960407Y-122478311D01*
X109960185Y-122478136D01*
X109911189Y-122522205D01*
X109842226Y-122533426D01*
X109778144Y-122505582D01*
X109752063Y-122475482D01*
X109750314Y-122472646D01*
X109626257Y-122348589D01*
X109626256Y-122348588D01*
X109488922Y-122263880D01*
X109476936Y-122256487D01*
X109476931Y-122256485D01*
X109437144Y-122243301D01*
X109310397Y-122201301D01*
X109310395Y-122201300D01*
X109207610Y-122190800D01*
X108432598Y-122190800D01*
X108432580Y-122190801D01*
X108329803Y-122201300D01*
X108329800Y-122201301D01*
X108163268Y-122256485D01*
X108163263Y-122256487D01*
X108013942Y-122348589D01*
X107889889Y-122472642D01*
X107797787Y-122621963D01*
X107797785Y-122621968D01*
X107783868Y-122663968D01*
X107742601Y-122788503D01*
X107742601Y-122788504D01*
X107742600Y-122788504D01*
X107732100Y-122891283D01*
X107732100Y-123941301D01*
X107732101Y-123941319D01*
X107742600Y-124044096D01*
X107742601Y-124044099D01*
X107791773Y-124192489D01*
X107797786Y-124210634D01*
X107889888Y-124359956D01*
X108013944Y-124484012D01*
X108163266Y-124576114D01*
X108329803Y-124631299D01*
X108432591Y-124641800D01*
X109180357Y-124641799D01*
X109247396Y-124661483D01*
X109268038Y-124678118D01*
X109425235Y-124835315D01*
X109556465Y-124911081D01*
X109702834Y-124950300D01*
X109702836Y-124950300D01*
X112297864Y-124950300D01*
X112297866Y-124950300D01*
X112444235Y-124911081D01*
X112575465Y-124835315D01*
X112668560Y-124742218D01*
X112729883Y-124708733D01*
X112756233Y-124705899D01*
X113476758Y-124705899D01*
X113543797Y-124725584D01*
X113564439Y-124742218D01*
X113610744Y-124788523D01*
X113610754Y-124788534D01*
X113615084Y-124792864D01*
X113615085Y-124792865D01*
X113722235Y-124900015D01*
X113806120Y-124948446D01*
X113809331Y-124950300D01*
X113809332Y-124950301D01*
X113853459Y-124975778D01*
X113853460Y-124975778D01*
X113853465Y-124975781D01*
X113999833Y-125015000D01*
X113999834Y-125015000D01*
X113999835Y-125015000D01*
X117242164Y-125015000D01*
X117242166Y-125015000D01*
X117388535Y-124975781D01*
X117519765Y-124900015D01*
X117949661Y-124470117D01*
X118010984Y-124436633D01*
X118037342Y-124433799D01*
X118772602Y-124433799D01*
X118772608Y-124433799D01*
X118875397Y-124423299D01*
X119041934Y-124368114D01*
X119191256Y-124276012D01*
X119310950Y-124156318D01*
X119372273Y-124122834D01*
X119398631Y-124120000D01*
X119535430Y-124120000D01*
X119602469Y-124139685D01*
X119648224Y-124192489D01*
X119653136Y-124204995D01*
X119696745Y-124336599D01*
X119697486Y-124338833D01*
X119697487Y-124338836D01*
X119732369Y-124395388D01*
X119789588Y-124488156D01*
X119913644Y-124612212D01*
X120062966Y-124704314D01*
X120229503Y-124759499D01*
X120332291Y-124770000D01*
X121107308Y-124769999D01*
X121107316Y-124769998D01*
X121107319Y-124769998D01*
X121163602Y-124764248D01*
X121210097Y-124759499D01*
X121376634Y-124704314D01*
X121525956Y-124612212D01*
X121650012Y-124488156D01*
X121651761Y-124485319D01*
X121653469Y-124483783D01*
X121654493Y-124482489D01*
X121654714Y-124482663D01*
X121703706Y-124438596D01*
X121772668Y-124427372D01*
X121836751Y-124455213D01*
X121862837Y-124485317D01*
X121864588Y-124488156D01*
X121988644Y-124612212D01*
X122137966Y-124704314D01*
X122304503Y-124759499D01*
X122407291Y-124770000D01*
X123182308Y-124769999D01*
X123182316Y-124769998D01*
X123182319Y-124769998D01*
X123238602Y-124764248D01*
X123285097Y-124759499D01*
X123451634Y-124704314D01*
X123600956Y-124612212D01*
X123725012Y-124488156D01*
X123817114Y-124338834D01*
X123872299Y-124172297D01*
X123882800Y-124069509D01*
X123882799Y-123019492D01*
X123873993Y-122933291D01*
X123872299Y-122916703D01*
X123872298Y-122916700D01*
X123863876Y-122891283D01*
X123817114Y-122750166D01*
X123725012Y-122600844D01*
X123600956Y-122476788D01*
X123485867Y-122405801D01*
X123451636Y-122384687D01*
X123451631Y-122384685D01*
X123405748Y-122369481D01*
X123285097Y-122329501D01*
X123285095Y-122329500D01*
X123182310Y-122319000D01*
X122407298Y-122319000D01*
X122407280Y-122319001D01*
X122304503Y-122329500D01*
X122304499Y-122329501D01*
X122237983Y-122351543D01*
X122168154Y-122353945D01*
X122111298Y-122321518D01*
X122053660Y-122263880D01*
X122020175Y-122202557D01*
X122025159Y-122132865D01*
X122067031Y-122076932D01*
X122132495Y-122052515D01*
X122141341Y-122052199D01*
X122513971Y-122052199D01*
X122513972Y-122052199D01*
X122573583Y-122045791D01*
X122708431Y-121995496D01*
X122823646Y-121909246D01*
X122909896Y-121794031D01*
X122960191Y-121659183D01*
X122966600Y-121599573D01*
X122966599Y-120970428D01*
X122960191Y-120910817D01*
X122952172Y-120889318D01*
X122909897Y-120775971D01*
X122909895Y-120775968D01*
X122870912Y-120723893D01*
X122846495Y-120658431D01*
X122861346Y-120590157D01*
X122870913Y-120575271D01*
X122909452Y-120523789D01*
X122909454Y-120523786D01*
X122959696Y-120389079D01*
X122959698Y-120389072D01*
X122966099Y-120329544D01*
X122966100Y-120329527D01*
X122966100Y-120265000D01*
X121609850Y-120265000D01*
X121542811Y-120245315D01*
X121497056Y-120192511D01*
X121485850Y-120141000D01*
X121485850Y-119889000D01*
X121505535Y-119821961D01*
X121558339Y-119776206D01*
X121609850Y-119765000D01*
X122966100Y-119765000D01*
X122966100Y-119700472D01*
X122966099Y-119700455D01*
X122959698Y-119640927D01*
X122959696Y-119640920D01*
X122909454Y-119506213D01*
X122909452Y-119506211D01*
X122870912Y-119454727D01*
X122846495Y-119389263D01*
X122861346Y-119320990D01*
X122870906Y-119306114D01*
X122909896Y-119254031D01*
X122960191Y-119119183D01*
X122966600Y-119059573D01*
X122966599Y-118430428D01*
X122961399Y-118382057D01*
X122960191Y-118370816D01*
X122909897Y-118235971D01*
X122909895Y-118235968D01*
X122879874Y-118195865D01*
X122871224Y-118184310D01*
X122846807Y-118118848D01*
X122861658Y-118050575D01*
X122871221Y-118035693D01*
X122909896Y-117984031D01*
X122960191Y-117849183D01*
X122966600Y-117789573D01*
X122966599Y-117160428D01*
X122960191Y-117100817D01*
X122958071Y-117095134D01*
X122909897Y-116965971D01*
X122909893Y-116965964D01*
X122823647Y-116850755D01*
X122823644Y-116850752D01*
X122708435Y-116764506D01*
X122708428Y-116764502D01*
X122573582Y-116714208D01*
X122573583Y-116714208D01*
X122513983Y-116707801D01*
X122513981Y-116707800D01*
X122513973Y-116707800D01*
X122513964Y-116707800D01*
X120957729Y-116707800D01*
X120957723Y-116707801D01*
X120898116Y-116714208D01*
X120763258Y-116764507D01*
X120762752Y-116764784D01*
X120762188Y-116764906D01*
X120754959Y-116767603D01*
X120754571Y-116766562D01*
X120694478Y-116779629D01*
X120629016Y-116755205D01*
X120598344Y-116721919D01*
X120504778Y-116573011D01*
X120385190Y-116453423D01*
X120385184Y-116453418D01*
X120241997Y-116363447D01*
X120241994Y-116363445D01*
X120082356Y-116307585D01*
X119914303Y-116288651D01*
X119914297Y-116288651D01*
X119746241Y-116307586D01*
X119695940Y-116325187D01*
X119626161Y-116328748D01*
X119567306Y-116295826D01*
X119138267Y-115866787D01*
X119138265Y-115866785D01*
X119062949Y-115823301D01*
X119007036Y-115791019D01*
X118896147Y-115761307D01*
X118860666Y-115751800D01*
X118860665Y-115751800D01*
X118108950Y-115751800D01*
X118042978Y-115732794D01*
X117906192Y-115646845D01*
X117906191Y-115646844D01*
X117906190Y-115646844D01*
X117867870Y-115633435D01*
X117746556Y-115590985D01*
X117578503Y-115572051D01*
X117578497Y-115572051D01*
X117410443Y-115590985D01*
X117250805Y-115646845D01*
X117250802Y-115646847D01*
X117107615Y-115736818D01*
X117107609Y-115736823D01*
X116988023Y-115856409D01*
X116988018Y-115856415D01*
X116898047Y-115999602D01*
X116898045Y-115999605D01*
X116842185Y-116159243D01*
X116823251Y-116327297D01*
X116823251Y-116327302D01*
X116842185Y-116495356D01*
X116898045Y-116654994D01*
X116898047Y-116654997D01*
X116988018Y-116798184D01*
X116988023Y-116798190D01*
X117067081Y-116877248D01*
X117100566Y-116938571D01*
X117103400Y-116964929D01*
X117103400Y-117663257D01*
X117083715Y-117730296D01*
X117067081Y-117750938D01*
X116895739Y-117922281D01*
X116834416Y-117955766D01*
X116808058Y-117958600D01*
X116590541Y-117958600D01*
X116523502Y-117938915D01*
X116477747Y-117886111D01*
X116467803Y-117816953D01*
X116483809Y-117771479D01*
X116541281Y-117674298D01*
X116587100Y-117516586D01*
X116587295Y-117514101D01*
X116587295Y-117514100D01*
X114989000Y-117514100D01*
X114921961Y-117494415D01*
X114876206Y-117441611D01*
X114865000Y-117390100D01*
X114865000Y-116464100D01*
X115365000Y-116464100D01*
X115365000Y-117014100D01*
X116587295Y-117014100D01*
X116587295Y-117014098D01*
X116587100Y-117011613D01*
X116541281Y-116853901D01*
X116457685Y-116712547D01*
X116457678Y-116712538D01*
X116341561Y-116596421D01*
X116341552Y-116596414D01*
X116200196Y-116512817D01*
X116200193Y-116512816D01*
X116042495Y-116467000D01*
X116042489Y-116466999D01*
X116005649Y-116464100D01*
X115365000Y-116464100D01*
X114865000Y-116464100D01*
X114224350Y-116464100D01*
X114187510Y-116466999D01*
X114187504Y-116467000D01*
X114081895Y-116497683D01*
X114012025Y-116497484D01*
X113953355Y-116459542D01*
X113924512Y-116395903D01*
X113923300Y-116378607D01*
X113923300Y-114853400D01*
X113942985Y-114786361D01*
X113995789Y-114740606D01*
X114047300Y-114729400D01*
X122087864Y-114729400D01*
X122087866Y-114729400D01*
X122234235Y-114690181D01*
X122365465Y-114614415D01*
X123307414Y-113672466D01*
X123319396Y-113651714D01*
X123383181Y-113541235D01*
X123402286Y-113469934D01*
X123422400Y-113394867D01*
X123422400Y-113243334D01*
X123422400Y-112187634D01*
X123417223Y-112168314D01*
X123383181Y-112041265D01*
X123307415Y-111910035D01*
X122990794Y-111593414D01*
X122957309Y-111532091D01*
X122962293Y-111462399D01*
X122972938Y-111440633D01*
X123001256Y-111394723D01*
X123056405Y-111228297D01*
X123056406Y-111228290D01*
X123066899Y-111125586D01*
X123066900Y-111125573D01*
X123066900Y-110988100D01*
X120908000Y-110988100D01*
X120900919Y-110995181D01*
X120839596Y-111028666D01*
X120813238Y-111031500D01*
X119539000Y-111031500D01*
X119471961Y-111011815D01*
X119426206Y-110959011D01*
X119415000Y-110907500D01*
X119415000Y-110531500D01*
X119915000Y-110531500D01*
X120573900Y-110531500D01*
X120580981Y-110524419D01*
X120642304Y-110490934D01*
X120668662Y-110488100D01*
X121591900Y-110488100D01*
X121591900Y-109650600D01*
X122091900Y-109650600D01*
X122091900Y-110488100D01*
X123066899Y-110488100D01*
X123066899Y-110350628D01*
X123066898Y-110350613D01*
X123056405Y-110247902D01*
X123001258Y-110081480D01*
X123001256Y-110081475D01*
X122909215Y-109932254D01*
X122785245Y-109808284D01*
X122636024Y-109716243D01*
X122636019Y-109716241D01*
X122469597Y-109661094D01*
X122469590Y-109661093D01*
X122366886Y-109650600D01*
X122091900Y-109650600D01*
X121591900Y-109650600D01*
X121316929Y-109650600D01*
X121316912Y-109650601D01*
X121214202Y-109661094D01*
X121047780Y-109716241D01*
X121047775Y-109716243D01*
X120898554Y-109808284D01*
X120813179Y-109893658D01*
X120751856Y-109927143D01*
X120682164Y-109922157D01*
X120637818Y-109893657D01*
X120583345Y-109839184D01*
X120434124Y-109747143D01*
X120434119Y-109747141D01*
X120267697Y-109691994D01*
X120267690Y-109691993D01*
X120164986Y-109681500D01*
X119915000Y-109681500D01*
X119915000Y-110531500D01*
X119415000Y-110531500D01*
X119415000Y-109681500D01*
X119165029Y-109681500D01*
X119165012Y-109681501D01*
X119062302Y-109691994D01*
X118895880Y-109747141D01*
X118895875Y-109747143D01*
X118790834Y-109811934D01*
X118723441Y-109830374D01*
X118656778Y-109809451D01*
X118638056Y-109794076D01*
X118516840Y-109672860D01*
X118483355Y-109611537D01*
X118485271Y-109555713D01*
X118484660Y-109555602D01*
X118485417Y-109551452D01*
X118485448Y-109550573D01*
X118485798Y-109549368D01*
X118488353Y-109516900D01*
X118488700Y-109512494D01*
X118488700Y-109081106D01*
X118485798Y-109044231D01*
X118463448Y-108967304D01*
X118447624Y-108912835D01*
X118439944Y-108886402D01*
X118356281Y-108744935D01*
X118356278Y-108744932D01*
X118351498Y-108738769D01*
X118353950Y-108736866D01*
X118327355Y-108688221D01*
X118332304Y-108618526D01*
X118353140Y-108586104D01*
X118351498Y-108584831D01*
X118356275Y-108578670D01*
X118356281Y-108578665D01*
X118439944Y-108437198D01*
X118460899Y-108365069D01*
X118492291Y-108311987D01*
X119309095Y-107495182D01*
X119370416Y-107461699D01*
X119382871Y-107459647D01*
X119441759Y-107453013D01*
X119601390Y-107397156D01*
X119601393Y-107397153D01*
X119601397Y-107397152D01*
X119744584Y-107307181D01*
X119744585Y-107307180D01*
X119744590Y-107307177D01*
X119864177Y-107187590D01*
X119864181Y-107187584D01*
X119954152Y-107044397D01*
X119954155Y-107044391D01*
X119954156Y-107044390D01*
X120007988Y-106890545D01*
X120048710Y-106833770D01*
X120113663Y-106808022D01*
X120125030Y-106807500D01*
X128193192Y-106807500D01*
X128260231Y-106827185D01*
X128305986Y-106879989D01*
X128315930Y-106949147D01*
X128286905Y-107012703D01*
X128280873Y-107019181D01*
X125648727Y-109651325D01*
X125648726Y-109651326D01*
X125640258Y-109664000D01*
X125587809Y-109742497D01*
X125584706Y-109747141D01*
X125577533Y-109757876D01*
X125528499Y-109876255D01*
X125528497Y-109876261D01*
X125503500Y-110001928D01*
X125503500Y-110001931D01*
X125503500Y-118242069D01*
X125518683Y-118318398D01*
X125518685Y-118318405D01*
X125518685Y-118318407D01*
X125528497Y-118367736D01*
X125528499Y-118367744D01*
X125554461Y-118430423D01*
X125577535Y-118486127D01*
X125648723Y-118592669D01*
X125648726Y-118592673D01*
X125648727Y-118592674D01*
X125917081Y-118861027D01*
X125950566Y-118922350D01*
X125953400Y-118948707D01*
X125953400Y-119059569D01*
X125953401Y-119059576D01*
X125959808Y-119119183D01*
X126010102Y-119254028D01*
X126010104Y-119254031D01*
X126048775Y-119305689D01*
X126073192Y-119371154D01*
X126058340Y-119439427D01*
X126048775Y-119454311D01*
X126010104Y-119505968D01*
X126010102Y-119505971D01*
X125959810Y-119640813D01*
X125959809Y-119640817D01*
X125953400Y-119700427D01*
X125953400Y-119700434D01*
X125953400Y-119700435D01*
X125953400Y-120329570D01*
X125953401Y-120329576D01*
X125959808Y-120389183D01*
X126010102Y-120524028D01*
X126010104Y-120524031D01*
X126048775Y-120575689D01*
X126073192Y-120641154D01*
X126058340Y-120709427D01*
X126048775Y-120724311D01*
X126010104Y-120775968D01*
X126010102Y-120775971D01*
X125963681Y-120900435D01*
X125959809Y-120910817D01*
X125953400Y-120970427D01*
X125953400Y-120970434D01*
X125953400Y-120970435D01*
X125953400Y-121599570D01*
X125953401Y-121599576D01*
X125959808Y-121659183D01*
X126010102Y-121794028D01*
X126010106Y-121794035D01*
X126096352Y-121909244D01*
X126096355Y-121909247D01*
X126211564Y-121995493D01*
X126211571Y-121995497D01*
X126346417Y-122045791D01*
X126346416Y-122045791D01*
X126353344Y-122046535D01*
X126406027Y-122052200D01*
X127962272Y-122052199D01*
X128021883Y-122045791D01*
X128156731Y-121995496D01*
X128271946Y-121909246D01*
X128271947Y-121909245D01*
X128306021Y-121863727D01*
X128357843Y-121823472D01*
X128363125Y-121821283D01*
X128363135Y-121821281D01*
X128494365Y-121745515D01*
X128601515Y-121638365D01*
X128677281Y-121507135D01*
X128716500Y-121360766D01*
X128716500Y-120154500D01*
X128736185Y-120087461D01*
X128788989Y-120041706D01*
X128840500Y-120030500D01*
X129530200Y-120030500D01*
X129597239Y-120050185D01*
X129642994Y-120102989D01*
X129654200Y-120154500D01*
X129654200Y-120286744D01*
X129660601Y-120346272D01*
X129660603Y-120346279D01*
X129710845Y-120480986D01*
X129710849Y-120480992D01*
X129743005Y-120523948D01*
X129767422Y-120589412D01*
X129752570Y-120657685D01*
X129705739Y-120705645D01*
X129574035Y-120781685D01*
X129574032Y-120781687D01*
X129466887Y-120888832D01*
X129466885Y-120888835D01*
X129391119Y-121020063D01*
X129351900Y-121166434D01*
X129351900Y-122235056D01*
X129332215Y-122302095D01*
X129315581Y-122322737D01*
X129268837Y-122369481D01*
X129207514Y-122402966D01*
X129181156Y-122405800D01*
X128445898Y-122405800D01*
X128445880Y-122405801D01*
X128343103Y-122416300D01*
X128343100Y-122416301D01*
X128176568Y-122471485D01*
X128176563Y-122471487D01*
X128027242Y-122563589D01*
X127903189Y-122687642D01*
X127811087Y-122836963D01*
X127811085Y-122836968D01*
X127802958Y-122861494D01*
X127755901Y-123003503D01*
X127755901Y-123003504D01*
X127755900Y-123003504D01*
X127745400Y-123106283D01*
X127745400Y-124106301D01*
X127745401Y-124106319D01*
X127755900Y-124209096D01*
X127755901Y-124209099D01*
X127783705Y-124293005D01*
X127811086Y-124375634D01*
X127903188Y-124524956D01*
X128027244Y-124649012D01*
X128176566Y-124741114D01*
X128343103Y-124796299D01*
X128445891Y-124806800D01*
X129245908Y-124806799D01*
X129245916Y-124806798D01*
X129245919Y-124806798D01*
X129302202Y-124801048D01*
X129348697Y-124796299D01*
X129515234Y-124741114D01*
X129664556Y-124649012D01*
X129758219Y-124555349D01*
X129819542Y-124521864D01*
X129889234Y-124526848D01*
X129933581Y-124555349D01*
X130027244Y-124649012D01*
X130176566Y-124741114D01*
X130343103Y-124796299D01*
X130445891Y-124806800D01*
X131181157Y-124806799D01*
X131248196Y-124826483D01*
X131268838Y-124843118D01*
X131428235Y-125002515D01*
X131559465Y-125078281D01*
X131705834Y-125117500D01*
X131705836Y-125117500D01*
X134148964Y-125117500D01*
X134148966Y-125117500D01*
X134295335Y-125078281D01*
X134426565Y-125002515D01*
X134585962Y-124843116D01*
X134647283Y-124809633D01*
X134673642Y-124806799D01*
X134977159Y-124806799D01*
X135044198Y-124826484D01*
X135089953Y-124879288D01*
X135099897Y-124948446D01*
X135070872Y-125012002D01*
X135064840Y-125018480D01*
X133394939Y-126688381D01*
X133333616Y-126721866D01*
X133307258Y-126724700D01*
X119037233Y-126724700D01*
X118890863Y-126763919D01*
X118759635Y-126839685D01*
X118759632Y-126839687D01*
X118464738Y-127134581D01*
X118403415Y-127168066D01*
X118377057Y-127170900D01*
X117116798Y-127170900D01*
X117116781Y-127170901D01*
X117014003Y-127181400D01*
X117014000Y-127181401D01*
X116847468Y-127236585D01*
X116847463Y-127236587D01*
X116698142Y-127328689D01*
X116574089Y-127452742D01*
X116481987Y-127602063D01*
X116481985Y-127602068D01*
X116477005Y-127617097D01*
X116426801Y-127768603D01*
X116426801Y-127768604D01*
X116426800Y-127768604D01*
X116416300Y-127871383D01*
X116416300Y-129421401D01*
X116416301Y-129421418D01*
X116426800Y-129524196D01*
X116426801Y-129524199D01*
X116481985Y-129690731D01*
X116481987Y-129690736D01*
X116516869Y-129747288D01*
X116574088Y-129840056D01*
X116698144Y-129964112D01*
X116847466Y-130056214D01*
X117014003Y-130111399D01*
X117116791Y-130121900D01*
X118416808Y-130121899D01*
X118519597Y-130111399D01*
X118686134Y-130056214D01*
X118835456Y-129964112D01*
X118959512Y-129840056D01*
X119051614Y-129690734D01*
X119051614Y-129690731D01*
X119054978Y-129685279D01*
X119106926Y-129638554D01*
X119175888Y-129627331D01*
X119239970Y-129655174D01*
X119248198Y-129662694D01*
X119387013Y-129801509D01*
X119558979Y-129926448D01*
X119558981Y-129926449D01*
X119558984Y-129926451D01*
X119748388Y-130022957D01*
X119950557Y-130088646D01*
X120160513Y-130121900D01*
X120160514Y-130121900D01*
X120373086Y-130121900D01*
X120373087Y-130121900D01*
X120583043Y-130088646D01*
X120785212Y-130022957D01*
X120974616Y-129926451D01*
X121059548Y-129864745D01*
X121146586Y-129801509D01*
X121146588Y-129801506D01*
X121146592Y-129801504D01*
X121296904Y-129651192D01*
X121416483Y-129486604D01*
X121471811Y-129443940D01*
X121541424Y-129437961D01*
X121603220Y-129470566D01*
X121617113Y-129486599D01*
X121712886Y-129618420D01*
X121736696Y-129651192D01*
X121887013Y-129801509D01*
X122058979Y-129926448D01*
X122058981Y-129926449D01*
X122058984Y-129926451D01*
X122248388Y-130022957D01*
X122450557Y-130088646D01*
X122660513Y-130121900D01*
X122660514Y-130121900D01*
X122873086Y-130121900D01*
X122873087Y-130121900D01*
X123083043Y-130088646D01*
X123285212Y-130022957D01*
X123474616Y-129926451D01*
X123559548Y-129864745D01*
X123646586Y-129801509D01*
X123646588Y-129801506D01*
X123646592Y-129801504D01*
X123796904Y-129651192D01*
X123796906Y-129651188D01*
X123796909Y-129651186D01*
X123921848Y-129479220D01*
X123921847Y-129479220D01*
X123921851Y-129479216D01*
X124018357Y-129289812D01*
X124084046Y-129087643D01*
X124117300Y-128877687D01*
X124117300Y-128415113D01*
X124084046Y-128205157D01*
X124029739Y-128038018D01*
X124027744Y-127968177D01*
X124063824Y-127908344D01*
X124126525Y-127877516D01*
X124147670Y-127875700D01*
X133672764Y-127875700D01*
X133672766Y-127875700D01*
X133819135Y-127836481D01*
X133950365Y-127760715D01*
X139898445Y-121812632D01*
X139959766Y-121779149D01*
X140029458Y-121784133D01*
X140049245Y-121793583D01*
X140055833Y-121797479D01*
X140055835Y-121797481D01*
X140182316Y-121872281D01*
X140230000Y-121923350D01*
X140242503Y-121992092D01*
X140215858Y-122056681D01*
X140184294Y-122084551D01*
X140152942Y-122103889D01*
X140028889Y-122227942D01*
X139936787Y-122377263D01*
X139936785Y-122377268D01*
X139913315Y-122448098D01*
X139881601Y-122543803D01*
X139881601Y-122543804D01*
X139881600Y-122543804D01*
X139871100Y-122646583D01*
X139871100Y-123646601D01*
X139871101Y-123646619D01*
X139881600Y-123749396D01*
X139881601Y-123749399D01*
X139936785Y-123915931D01*
X139936787Y-123915936D01*
X139971669Y-123972488D01*
X140028888Y-124065256D01*
X140152944Y-124189312D01*
X140302266Y-124281414D01*
X140468803Y-124336599D01*
X140571591Y-124347100D01*
X141272100Y-124347099D01*
X141339139Y-124366783D01*
X141384894Y-124419587D01*
X141396100Y-124471099D01*
X141396100Y-126067265D01*
X141435319Y-126213636D01*
X141473202Y-126279250D01*
X141511085Y-126344865D01*
X141511087Y-126344867D01*
X142100939Y-126934719D01*
X142134424Y-126996042D01*
X142129440Y-127065734D01*
X142087568Y-127121667D01*
X142022104Y-127146084D01*
X142013258Y-127146400D01*
X141476528Y-127146400D01*
X141476512Y-127146401D01*
X141373802Y-127156894D01*
X141207380Y-127212041D01*
X141207375Y-127212043D01*
X141058154Y-127304084D01*
X140934184Y-127428054D01*
X140842143Y-127577275D01*
X140842141Y-127577280D01*
X140786994Y-127743702D01*
X140786993Y-127743709D01*
X140776500Y-127846413D01*
X140776500Y-128396400D01*
X141693488Y-128396400D01*
X141660575Y-128453407D01*
X141626500Y-128580574D01*
X141626500Y-128712226D01*
X141660575Y-128839393D01*
X141693488Y-128896400D01*
X140776501Y-128896400D01*
X140776501Y-129446386D01*
X140786994Y-129549097D01*
X140842141Y-129715519D01*
X140842143Y-129715524D01*
X140934184Y-129864745D01*
X141058154Y-129988715D01*
X141207375Y-130080756D01*
X141207380Y-130080758D01*
X141373802Y-130135905D01*
X141373809Y-130135906D01*
X141476519Y-130146399D01*
X141876499Y-130146399D01*
X141876500Y-130146398D01*
X141876500Y-129079412D01*
X141933507Y-129112325D01*
X142060674Y-129146400D01*
X142192326Y-129146400D01*
X142319493Y-129112325D01*
X142376500Y-129079412D01*
X142376500Y-130146399D01*
X142776472Y-130146399D01*
X142776486Y-130146398D01*
X142879197Y-130135905D01*
X143045619Y-130080758D01*
X143045624Y-130080756D01*
X143194845Y-129988715D01*
X143318817Y-129864743D01*
X143414315Y-129709916D01*
X143466263Y-129663191D01*
X143535225Y-129651968D01*
X143599308Y-129679812D01*
X143607535Y-129687331D01*
X143746713Y-129826509D01*
X143918679Y-129951448D01*
X143918681Y-129951449D01*
X143918684Y-129951451D01*
X144108088Y-130047957D01*
X144310257Y-130113646D01*
X144520213Y-130146900D01*
X144520214Y-130146900D01*
X144732786Y-130146900D01*
X144732787Y-130146900D01*
X144942743Y-130113646D01*
X145144912Y-130047957D01*
X145334316Y-129951451D01*
X145442026Y-129873196D01*
X145506286Y-129826509D01*
X145506288Y-129826506D01*
X145506292Y-129826504D01*
X145656604Y-129676192D01*
X145656606Y-129676188D01*
X145656609Y-129676186D01*
X145781548Y-129504220D01*
X145781547Y-129504220D01*
X145781551Y-129504216D01*
X145878057Y-129314812D01*
X145943746Y-129112643D01*
X145977000Y-128902687D01*
X145977000Y-128804103D01*
X148618616Y-128804103D01*
X148638935Y-129152969D01*
X148638936Y-129152980D01*
X148699614Y-129497102D01*
X148699616Y-129497111D01*
X148799845Y-129831900D01*
X148938255Y-130152770D01*
X148938261Y-130152783D01*
X149112989Y-130455422D01*
X149321667Y-130735725D01*
X149329848Y-130744396D01*
X150580020Y-129494225D01*
X150670254Y-129618420D01*
X150809380Y-129757546D01*
X150933573Y-129847778D01*
X149686518Y-131094833D01*
X149686519Y-131094834D01*
X149829184Y-131214545D01*
X150121161Y-131406580D01*
X150433439Y-131563414D01*
X150433445Y-131563416D01*
X150761830Y-131682938D01*
X150761833Y-131682939D01*
X151101871Y-131763529D01*
X151448976Y-131804099D01*
X151448977Y-131804100D01*
X151798423Y-131804100D01*
X151798423Y-131804099D01*
X152145527Y-131763529D01*
X152145529Y-131763529D01*
X152485566Y-131682939D01*
X152485569Y-131682938D01*
X152813954Y-131563416D01*
X152813960Y-131563414D01*
X153126238Y-131406580D01*
X153418209Y-131214549D01*
X153418210Y-131214548D01*
X153560879Y-131094834D01*
X153560880Y-131094833D01*
X152313826Y-129847778D01*
X152438020Y-129757546D01*
X152577146Y-129618420D01*
X152667378Y-129494226D01*
X153917549Y-130744397D01*
X153917551Y-130744396D01*
X153925722Y-130735736D01*
X153925733Y-130735723D01*
X154134410Y-130455422D01*
X154309138Y-130152783D01*
X154309144Y-130152770D01*
X154447554Y-129831900D01*
X154547783Y-129497111D01*
X154547785Y-129497102D01*
X154608463Y-129152980D01*
X154608464Y-129152969D01*
X154628784Y-128804103D01*
X154628784Y-128804096D01*
X154608464Y-128455230D01*
X154608463Y-128455219D01*
X154547785Y-128111097D01*
X154547783Y-128111088D01*
X154447554Y-127776299D01*
X154309144Y-127455429D01*
X154309138Y-127455416D01*
X154134410Y-127152777D01*
X153925732Y-126872474D01*
X153917550Y-126863802D01*
X152667378Y-128113973D01*
X152577146Y-127989780D01*
X152438020Y-127850654D01*
X152313825Y-127760420D01*
X153560880Y-126513365D01*
X153560879Y-126513364D01*
X153418219Y-126393657D01*
X153126238Y-126201619D01*
X152813960Y-126044785D01*
X152813954Y-126044783D01*
X152485569Y-125925261D01*
X152485566Y-125925260D01*
X152145528Y-125844670D01*
X151798423Y-125804100D01*
X151448977Y-125804100D01*
X151101872Y-125844670D01*
X151101870Y-125844670D01*
X150761833Y-125925260D01*
X150761830Y-125925261D01*
X150433445Y-126044783D01*
X150433439Y-126044785D01*
X150121161Y-126201619D01*
X149829180Y-126393657D01*
X149686519Y-126513364D01*
X149686518Y-126513365D01*
X150933574Y-127760420D01*
X150809380Y-127850654D01*
X150670254Y-127989780D01*
X150580020Y-128113973D01*
X149329848Y-126863801D01*
X149329847Y-126863802D01*
X149321676Y-126872463D01*
X149321672Y-126872468D01*
X149112989Y-127152777D01*
X148938261Y-127455416D01*
X148938255Y-127455429D01*
X148799845Y-127776299D01*
X148699616Y-128111088D01*
X148699614Y-128111097D01*
X148638936Y-128455219D01*
X148638935Y-128455230D01*
X148618616Y-128804096D01*
X148618616Y-128804103D01*
X145977000Y-128804103D01*
X145977000Y-128390113D01*
X145943746Y-128180157D01*
X145878057Y-127977988D01*
X145781551Y-127788584D01*
X145781549Y-127788581D01*
X145781548Y-127788579D01*
X145656609Y-127616613D01*
X145506286Y-127466290D01*
X145334320Y-127341351D01*
X145144914Y-127244844D01*
X145144913Y-127244843D01*
X145144912Y-127244843D01*
X144942743Y-127179154D01*
X144942741Y-127179153D01*
X144942740Y-127179153D01*
X144776206Y-127152777D01*
X144732787Y-127145900D01*
X144520213Y-127145900D01*
X144480702Y-127152157D01*
X144310259Y-127179153D01*
X144310255Y-127179154D01*
X144128075Y-127238347D01*
X144058234Y-127240342D01*
X144002077Y-127208097D01*
X142583419Y-125789439D01*
X142549934Y-125728116D01*
X142547100Y-125701758D01*
X142547100Y-124471099D01*
X142566785Y-124404060D01*
X142619589Y-124358305D01*
X142671095Y-124347099D01*
X143371608Y-124347099D01*
X143371616Y-124347098D01*
X143371619Y-124347098D01*
X143452498Y-124338836D01*
X143474397Y-124336599D01*
X143640934Y-124281414D01*
X143790256Y-124189312D01*
X143914312Y-124065256D01*
X144006414Y-123915934D01*
X144061599Y-123749397D01*
X144072100Y-123646609D01*
X144072099Y-122858299D01*
X144091783Y-122791261D01*
X144144587Y-122745506D01*
X144196099Y-122734300D01*
X147874264Y-122734300D01*
X147874266Y-122734300D01*
X148020635Y-122695081D01*
X148151865Y-122619315D01*
X149622155Y-121149022D01*
X149622160Y-121149019D01*
X149632363Y-121138815D01*
X149632365Y-121138815D01*
X149739515Y-121031665D01*
X149815281Y-120900435D01*
X149821256Y-120878135D01*
X149821606Y-120876831D01*
X149827055Y-120856491D01*
X149854500Y-120754067D01*
X149854500Y-120602534D01*
X149854500Y-117095134D01*
X149815281Y-116948765D01*
X149809395Y-116938571D01*
X149798249Y-116919265D01*
X149739515Y-116817535D01*
X149632365Y-116710385D01*
X147883418Y-114961438D01*
X147849933Y-114900115D01*
X147847099Y-114873757D01*
X147847099Y-114836398D01*
X147847098Y-114836381D01*
X147836599Y-114733603D01*
X147836598Y-114733600D01*
X147811812Y-114658802D01*
X147781414Y-114567066D01*
X147689312Y-114417744D01*
X147565256Y-114293688D01*
X147415934Y-114201586D01*
X147249397Y-114146401D01*
X147249395Y-114146400D01*
X147146616Y-114135900D01*
X147146609Y-114135900D01*
X146411342Y-114135900D01*
X146344303Y-114116215D01*
X146323661Y-114099581D01*
X146125267Y-113901187D01*
X146125265Y-113901185D01*
X146052415Y-113859125D01*
X145994036Y-113825419D01*
X145920850Y-113805809D01*
X145847666Y-113786200D01*
X145799037Y-113786200D01*
X145731998Y-113766515D01*
X145686243Y-113713711D01*
X145676299Y-113644553D01*
X145705324Y-113580997D01*
X145724176Y-113564962D01*
X145723489Y-113564093D01*
X145729150Y-113559615D01*
X145729156Y-113559612D01*
X145841819Y-113446949D01*
X145903142Y-113413464D01*
X145972834Y-113418448D01*
X146017181Y-113446949D01*
X146111744Y-113541512D01*
X146261066Y-113633614D01*
X146427603Y-113688799D01*
X146530391Y-113699300D01*
X147580408Y-113699299D01*
X147580416Y-113699298D01*
X147580419Y-113699298D01*
X147636702Y-113693548D01*
X147683197Y-113688799D01*
X147849734Y-113633614D01*
X147999056Y-113541512D01*
X148123112Y-113417456D01*
X148215214Y-113268134D01*
X148270399Y-113101597D01*
X148280900Y-112998809D01*
X148280899Y-112223792D01*
X148277205Y-112187634D01*
X148270399Y-112121003D01*
X148270398Y-112121000D01*
X148243975Y-112041262D01*
X148215214Y-111954466D01*
X148123112Y-111805144D01*
X147999056Y-111681088D01*
X147995742Y-111679043D01*
X147993946Y-111677048D01*
X147993389Y-111676607D01*
X147993464Y-111676511D01*
X147949018Y-111627097D01*
X147937797Y-111558134D01*
X147965640Y-111494052D01*
X147995748Y-111467965D01*
X147998742Y-111466118D01*
X148122715Y-111342145D01*
X148214756Y-111192924D01*
X148214758Y-111192919D01*
X148269905Y-111026497D01*
X148269906Y-111026490D01*
X148280399Y-110923786D01*
X148280400Y-110923773D01*
X148280400Y-110786300D01*
X146053500Y-110786300D01*
X146035458Y-110804341D01*
X146033815Y-110809939D01*
X145981011Y-110855694D01*
X145929500Y-110866900D01*
X144684500Y-110866900D01*
X144617461Y-110847215D01*
X144571706Y-110794411D01*
X144560500Y-110742900D01*
X144560500Y-110366900D01*
X145060500Y-110366900D01*
X145787400Y-110366900D01*
X145805441Y-110348858D01*
X145807085Y-110343261D01*
X145859889Y-110297506D01*
X145911400Y-110286300D01*
X146805400Y-110286300D01*
X146805400Y-109448800D01*
X147305400Y-109448800D01*
X147305400Y-110286300D01*
X148280399Y-110286300D01*
X148280399Y-110148828D01*
X148280398Y-110148813D01*
X148269905Y-110046102D01*
X148214758Y-109879680D01*
X148214756Y-109879675D01*
X148122715Y-109730454D01*
X147998745Y-109606484D01*
X147849524Y-109514443D01*
X147849519Y-109514441D01*
X147683097Y-109459294D01*
X147683090Y-109459293D01*
X147580386Y-109448800D01*
X147305400Y-109448800D01*
X146805400Y-109448800D01*
X146530429Y-109448800D01*
X146530412Y-109448801D01*
X146427702Y-109459294D01*
X146261280Y-109514441D01*
X146261275Y-109514443D01*
X146112054Y-109606484D01*
X145988080Y-109730458D01*
X145984701Y-109734732D01*
X145927677Y-109775106D01*
X145857877Y-109778241D01*
X145799758Y-109745497D01*
X145728845Y-109674584D01*
X145579624Y-109582543D01*
X145579619Y-109582541D01*
X145413197Y-109527394D01*
X145413190Y-109527393D01*
X145310486Y-109516900D01*
X145060500Y-109516900D01*
X145060500Y-110366900D01*
X144560500Y-110366900D01*
X144560500Y-109516900D01*
X144364900Y-109516900D01*
X144297861Y-109497215D01*
X144252106Y-109444411D01*
X144240900Y-109392900D01*
X144240900Y-103914236D01*
X144240900Y-103914234D01*
X144222559Y-103845785D01*
X144201681Y-103767865D01*
X144125914Y-103636634D01*
X143511265Y-103021985D01*
X143445650Y-102984102D01*
X143380036Y-102946219D01*
X143306850Y-102926609D01*
X143233666Y-102907000D01*
X142094366Y-102907000D01*
X141942833Y-102907000D01*
X141796463Y-102946219D01*
X141665235Y-103021985D01*
X141377828Y-103309391D01*
X141316505Y-103342875D01*
X141246813Y-103337891D01*
X141225051Y-103327248D01*
X141171940Y-103294490D01*
X141171934Y-103294486D01*
X141005397Y-103239301D01*
X141005395Y-103239300D01*
X140902610Y-103228800D01*
X140127598Y-103228800D01*
X140127580Y-103228801D01*
X140024803Y-103239300D01*
X140024800Y-103239301D01*
X139858268Y-103294485D01*
X139858263Y-103294487D01*
X139708942Y-103386589D01*
X139584889Y-103510642D01*
X139584888Y-103510644D01*
X139507178Y-103636634D01*
X139488995Y-103666113D01*
X139487739Y-103665338D01*
X139446971Y-103711643D01*
X139380759Y-103730800D01*
X138561634Y-103730800D01*
X138415263Y-103770019D01*
X138339233Y-103813916D01*
X138301217Y-103835865D01*
X138296111Y-103838812D01*
X138284035Y-103845784D01*
X138284035Y-103845785D01*
X137839251Y-104290567D01*
X137792527Y-104319927D01*
X137737610Y-104339144D01*
X137594409Y-104429123D01*
X137474821Y-104548711D01*
X137385055Y-104691573D01*
X137332721Y-104737863D01*
X137280062Y-104749600D01*
X135131685Y-104749600D01*
X135064646Y-104729915D01*
X135018891Y-104677111D01*
X135013979Y-104664604D01*
X134977914Y-104555766D01*
X134885812Y-104406444D01*
X134761756Y-104282388D01*
X134656237Y-104217304D01*
X134612436Y-104190287D01*
X134612431Y-104190285D01*
X134610962Y-104189798D01*
X134445897Y-104135101D01*
X134445895Y-104135100D01*
X134343116Y-104124600D01*
X134343109Y-104124600D01*
X133607842Y-104124600D01*
X133540803Y-104104915D01*
X133520161Y-104088281D01*
X132673967Y-103242087D01*
X132673965Y-103242085D01*
X132606474Y-103203119D01*
X132542736Y-103166319D01*
X132406655Y-103129857D01*
X132396366Y-103127100D01*
X131836967Y-103127100D01*
X131685434Y-103127100D01*
X131539063Y-103166319D01*
X131407835Y-103242085D01*
X131407832Y-103242087D01*
X130397487Y-104252432D01*
X130397485Y-104252435D01*
X130321719Y-104383663D01*
X130282500Y-104530034D01*
X130282500Y-105149050D01*
X130263494Y-105215022D01*
X130177545Y-105351807D01*
X130121685Y-105511443D01*
X130102751Y-105679497D01*
X130102751Y-105679502D01*
X130112454Y-105765616D01*
X130100400Y-105834438D01*
X130053051Y-105885817D01*
X129989234Y-105903500D01*
X129734808Y-105903500D01*
X129667769Y-105883815D01*
X129647127Y-105867181D01*
X129431674Y-105651727D01*
X129431673Y-105651726D01*
X129325125Y-105580533D01*
X129206746Y-105531499D01*
X129205598Y-105531271D01*
X129204419Y-105531036D01*
X129204419Y-105531035D01*
X129204406Y-105531034D01*
X129081071Y-105506500D01*
X129081069Y-105506500D01*
X120126465Y-105506500D01*
X120059426Y-105486815D01*
X120013671Y-105434011D01*
X120009423Y-105423455D01*
X119986883Y-105359039D01*
X119954156Y-105265510D01*
X119954155Y-105265509D01*
X119954154Y-105265505D01*
X119954152Y-105265502D01*
X119864181Y-105122315D01*
X119864176Y-105122309D01*
X119744590Y-105002723D01*
X119744584Y-105002718D01*
X119601397Y-104912747D01*
X119601394Y-104912745D01*
X119441755Y-104856885D01*
X119382891Y-104850253D01*
X119318477Y-104823186D01*
X119309094Y-104814714D01*
X118652267Y-104157887D01*
X118652265Y-104157885D01*
X118592751Y-104123524D01*
X118544536Y-104072958D01*
X118531394Y-104028737D01*
X118527499Y-103990604D01*
X118527498Y-103990600D01*
X118502193Y-103914236D01*
X118472314Y-103824066D01*
X118380212Y-103674744D01*
X118256156Y-103550688D01*
X118106834Y-103458586D01*
X117940297Y-103403401D01*
X117940295Y-103403400D01*
X117837510Y-103392900D01*
X117062498Y-103392900D01*
X117062480Y-103392901D01*
X116959703Y-103403400D01*
X116959700Y-103403401D01*
X116793168Y-103458585D01*
X116793163Y-103458587D01*
X116643842Y-103550689D01*
X116519785Y-103674746D01*
X116518037Y-103677582D01*
X116516329Y-103679117D01*
X116515307Y-103680411D01*
X116515085Y-103680236D01*
X116466089Y-103724305D01*
X116397126Y-103735526D01*
X116333044Y-103707682D01*
X116306963Y-103677582D01*
X116305214Y-103674746D01*
X116181157Y-103550689D01*
X116181156Y-103550688D01*
X116031834Y-103458586D01*
X115865297Y-103403401D01*
X115865295Y-103403400D01*
X115762510Y-103392900D01*
X114987498Y-103392900D01*
X114987480Y-103392901D01*
X114884703Y-103403400D01*
X114884700Y-103403401D01*
X114718168Y-103458585D01*
X114718163Y-103458587D01*
X114568842Y-103550689D01*
X114444789Y-103674742D01*
X114352687Y-103824063D01*
X114352686Y-103824066D01*
X114297501Y-103990603D01*
X114297501Y-103990604D01*
X114297500Y-103990604D01*
X114287000Y-104093383D01*
X114287000Y-104841157D01*
X114267315Y-104908196D01*
X114250685Y-104928833D01*
X114086637Y-105092882D01*
X114025316Y-105126366D01*
X113998958Y-105129200D01*
X111683567Y-105129200D01*
X111532034Y-105129200D01*
X111385665Y-105168419D01*
X111385664Y-105168419D01*
X111385662Y-105168420D01*
X111385661Y-105168420D01*
X111254439Y-105244182D01*
X111254428Y-105244190D01*
X111248996Y-105249622D01*
X111187670Y-105283102D01*
X111175208Y-105285153D01*
X111116346Y-105291785D01*
X110956707Y-105347644D01*
X110956702Y-105347647D01*
X110813515Y-105437618D01*
X110813508Y-105437624D01*
X110777062Y-105474070D01*
X110715739Y-105507555D01*
X110646047Y-105502569D01*
X110590114Y-105460697D01*
X110584388Y-105452360D01*
X110575125Y-105437618D01*
X110559977Y-105413510D01*
X110440390Y-105293923D01*
X110440384Y-105293918D01*
X110297197Y-105203947D01*
X110297194Y-105203945D01*
X110137556Y-105148085D01*
X109969503Y-105129151D01*
X109969502Y-105129151D01*
X109969500Y-105129151D01*
X109960253Y-105130192D01*
X109936080Y-105132916D01*
X109867258Y-105120859D01*
X109815880Y-105073509D01*
X109798199Y-105009695D01*
X109798199Y-104665998D01*
X109798198Y-104665981D01*
X109787699Y-104563203D01*
X109787698Y-104563200D01*
X109752483Y-104456929D01*
X109732514Y-104396666D01*
X109640412Y-104247344D01*
X109516356Y-104123288D01*
X109367034Y-104031186D01*
X109200497Y-103976001D01*
X109200495Y-103976000D01*
X109097710Y-103965500D01*
X108297698Y-103965500D01*
X108297680Y-103965501D01*
X108194903Y-103976000D01*
X108194900Y-103976001D01*
X108028368Y-104031185D01*
X108028363Y-104031187D01*
X107879045Y-104123287D01*
X107785027Y-104217305D01*
X107723703Y-104250789D01*
X107654012Y-104245805D01*
X107609665Y-104217304D01*
X107516045Y-104123684D01*
X107366824Y-104031643D01*
X107366819Y-104031641D01*
X107200397Y-103976494D01*
X107200390Y-103976493D01*
X107097686Y-103966000D01*
X106947700Y-103966000D01*
X106947700Y-105292000D01*
X106928015Y-105359039D01*
X106875211Y-105404794D01*
X106823700Y-105416000D01*
X105597701Y-105416000D01*
X105597701Y-105665986D01*
X105608194Y-105768697D01*
X105663341Y-105935119D01*
X105663343Y-105935124D01*
X105755384Y-106084345D01*
X105868010Y-106196971D01*
X105901495Y-106258294D01*
X105896511Y-106327986D01*
X105854639Y-106383919D01*
X105819334Y-106402358D01*
X105698203Y-106442497D01*
X105698194Y-106442501D01*
X105553859Y-106531529D01*
X105553855Y-106531532D01*
X105433932Y-106651455D01*
X105433929Y-106651459D01*
X105344901Y-106795794D01*
X105344896Y-106795805D01*
X105291551Y-106956790D01*
X105281400Y-107056147D01*
X105281400Y-107602837D01*
X105281401Y-107602855D01*
X105291550Y-107702207D01*
X105291551Y-107702210D01*
X105344896Y-107863194D01*
X105344901Y-107863205D01*
X105433929Y-108007540D01*
X105433932Y-108007544D01*
X105553855Y-108127467D01*
X105553859Y-108127470D01*
X105698194Y-108216498D01*
X105698197Y-108216499D01*
X105698203Y-108216503D01*
X105859192Y-108269849D01*
X105958555Y-108280000D01*
X106805244Y-108279999D01*
X106805252Y-108279998D01*
X106805255Y-108279998D01*
X106859660Y-108274440D01*
X106904608Y-108269849D01*
X107065597Y-108216503D01*
X107209944Y-108127468D01*
X107329868Y-108007544D01*
X107356787Y-107963902D01*
X107408735Y-107917178D01*
X107462325Y-107905000D01*
X107959428Y-107905000D01*
X108026467Y-107924685D01*
X108064967Y-107963904D01*
X108082631Y-107992543D01*
X108202555Y-108112467D01*
X108202559Y-108112470D01*
X108346894Y-108201498D01*
X108346897Y-108201499D01*
X108346903Y-108201503D01*
X108507892Y-108254849D01*
X108607255Y-108265000D01*
X109453944Y-108264999D01*
X109453952Y-108264998D01*
X109453955Y-108264998D01*
X109508360Y-108259440D01*
X109553308Y-108254849D01*
X109714297Y-108201503D01*
X109801403Y-108147774D01*
X109868795Y-108129334D01*
X109935458Y-108150256D01*
X109980228Y-108203898D01*
X109990500Y-108253313D01*
X109990500Y-109675686D01*
X109970815Y-109742725D01*
X109918011Y-109788480D01*
X109848853Y-109798424D01*
X109801403Y-109781225D01*
X109714299Y-109727498D01*
X109714294Y-109727496D01*
X109553309Y-109674151D01*
X109453946Y-109664000D01*
X108607262Y-109664000D01*
X108607244Y-109664001D01*
X108507892Y-109674150D01*
X108507889Y-109674151D01*
X108346905Y-109727496D01*
X108346894Y-109727501D01*
X108202559Y-109816529D01*
X108202555Y-109816532D01*
X108082633Y-109936454D01*
X108082632Y-109936456D01*
X108050593Y-109988398D01*
X107998647Y-110035121D01*
X107945056Y-110047300D01*
X107458192Y-110047300D01*
X107391153Y-110027615D01*
X107352655Y-109988399D01*
X107329868Y-109951456D01*
X107209944Y-109831532D01*
X107209940Y-109831529D01*
X107125838Y-109779654D01*
X107079113Y-109727706D01*
X107067892Y-109658744D01*
X107075911Y-109631531D01*
X107074856Y-109631162D01*
X107079365Y-109618278D01*
X107133013Y-109464959D01*
X107133013Y-109464958D01*
X107133014Y-109464956D01*
X107151949Y-109296902D01*
X107151949Y-109296897D01*
X107133014Y-109128843D01*
X107091568Y-109010398D01*
X107077156Y-108969210D01*
X107077155Y-108969209D01*
X107077154Y-108969205D01*
X107077152Y-108969202D01*
X106987181Y-108826015D01*
X106987176Y-108826009D01*
X106867590Y-108706423D01*
X106867584Y-108706418D01*
X106724397Y-108616447D01*
X106724394Y-108616445D01*
X106564756Y-108560585D01*
X106396703Y-108541651D01*
X106396697Y-108541651D01*
X106228643Y-108560585D01*
X106069005Y-108616445D01*
X106069002Y-108616447D01*
X105925815Y-108706418D01*
X105925809Y-108706423D01*
X105806223Y-108826009D01*
X105806218Y-108826015D01*
X105716247Y-108969202D01*
X105716245Y-108969205D01*
X105660385Y-109128843D01*
X105641451Y-109296897D01*
X105641451Y-109296902D01*
X105660386Y-109464957D01*
X105714035Y-109618278D01*
X105717596Y-109688056D01*
X105682867Y-109748684D01*
X105662091Y-109764770D01*
X105553856Y-109831531D01*
X105433932Y-109951455D01*
X105433929Y-109951459D01*
X105344901Y-110095794D01*
X105344896Y-110095805D01*
X105291551Y-110256790D01*
X105281400Y-110356147D01*
X105281400Y-110902837D01*
X105281401Y-110902855D01*
X105291550Y-111002207D01*
X105291551Y-111002210D01*
X105344896Y-111163194D01*
X105344901Y-111163205D01*
X105433929Y-111307540D01*
X105433932Y-111307544D01*
X105553855Y-111427467D01*
X105553859Y-111427470D01*
X105698194Y-111516498D01*
X105698197Y-111516499D01*
X105698203Y-111516503D01*
X105859192Y-111569849D01*
X105958555Y-111580000D01*
X106805244Y-111579999D01*
X106805252Y-111579998D01*
X106805255Y-111579998D01*
X106859660Y-111574440D01*
X106904608Y-111569849D01*
X107065597Y-111516503D01*
X107209944Y-111427468D01*
X107329868Y-111307544D01*
X107360920Y-111257201D01*
X107412866Y-111210479D01*
X107466457Y-111198300D01*
X107955295Y-111198300D01*
X108022334Y-111217985D01*
X108060831Y-111257200D01*
X108082632Y-111292544D01*
X108202556Y-111412468D01*
X108261998Y-111449133D01*
X108308721Y-111501079D01*
X108320900Y-111554670D01*
X108320900Y-117496534D01*
X108320900Y-117648066D01*
X108358816Y-117789573D01*
X108362223Y-117802286D01*
X108358794Y-117803204D01*
X108364609Y-117856400D01*
X108333444Y-117918935D01*
X108273419Y-117954694D01*
X108242540Y-117958600D01*
X107399933Y-117958600D01*
X107253563Y-117997819D01*
X107122335Y-118073585D01*
X107122332Y-118073587D01*
X105975137Y-119220781D01*
X105913814Y-119254266D01*
X105887456Y-119257100D01*
X105139698Y-119257100D01*
X105139680Y-119257101D01*
X105036903Y-119267600D01*
X105036900Y-119267601D01*
X104870368Y-119322785D01*
X104870363Y-119322787D01*
X104721042Y-119414889D01*
X104596985Y-119538946D01*
X104595237Y-119541782D01*
X104593529Y-119543317D01*
X104592507Y-119544611D01*
X104592285Y-119544436D01*
X104543289Y-119588505D01*
X104474326Y-119599726D01*
X104410244Y-119571882D01*
X104384163Y-119541782D01*
X104382414Y-119538946D01*
X104258357Y-119414889D01*
X104258356Y-119414888D01*
X104109034Y-119322786D01*
X103942497Y-119267601D01*
X103942495Y-119267600D01*
X103839710Y-119257100D01*
X103064698Y-119257100D01*
X103064680Y-119257101D01*
X102961903Y-119267600D01*
X102961900Y-119267601D01*
X102795368Y-119322785D01*
X102795363Y-119322787D01*
X102646042Y-119414889D01*
X102521989Y-119538942D01*
X102429887Y-119688263D01*
X102429885Y-119688268D01*
X102404459Y-119765000D01*
X102375505Y-119852379D01*
X102374701Y-119854804D01*
X102374700Y-119854805D01*
X102364393Y-119955702D01*
X102337997Y-120020394D01*
X102280816Y-120060546D01*
X102241035Y-120067100D01*
X100788752Y-120067100D01*
X100726752Y-120050487D01*
X100680735Y-120023919D01*
X100668760Y-120020710D01*
X100609101Y-119984343D01*
X100590373Y-119957231D01*
X100562920Y-119903351D01*
X100536951Y-119852384D01*
X100536949Y-119852381D01*
X100536948Y-119852379D01*
X100412009Y-119680413D01*
X100272831Y-119541235D01*
X100239346Y-119479912D01*
X100244330Y-119410220D01*
X100286202Y-119354287D01*
X100295416Y-119348015D01*
X100450243Y-119252517D01*
X100574215Y-119128545D01*
X100666256Y-118979324D01*
X100666258Y-118979319D01*
X100721405Y-118812897D01*
X100721406Y-118812890D01*
X100731899Y-118710186D01*
X100731900Y-118710173D01*
X100731900Y-118310200D01*
X99664912Y-118310200D01*
X99697825Y-118253193D01*
X99731900Y-118126026D01*
X99731900Y-117994374D01*
X99697825Y-117867207D01*
X99664912Y-117810200D01*
X100731899Y-117810200D01*
X100731899Y-117410228D01*
X100731898Y-117410213D01*
X100721405Y-117307502D01*
X100666258Y-117141080D01*
X100666256Y-117141075D01*
X100574215Y-116991854D01*
X100450245Y-116867884D01*
X100301024Y-116775843D01*
X100301019Y-116775841D01*
X100134597Y-116720694D01*
X100134590Y-116720693D01*
X100031886Y-116710200D01*
X99481900Y-116710200D01*
X99481900Y-117627188D01*
X99424893Y-117594275D01*
X99297726Y-117560200D01*
X99166074Y-117560200D01*
X99038907Y-117594275D01*
X98981900Y-117627188D01*
X98981900Y-116710200D01*
X98431928Y-116710200D01*
X98431912Y-116710201D01*
X98329202Y-116720694D01*
X98162780Y-116775841D01*
X98162775Y-116775843D01*
X98013554Y-116867884D01*
X97889584Y-116991854D01*
X97797543Y-117141075D01*
X97797541Y-117141080D01*
X97742394Y-117307502D01*
X97742393Y-117307509D01*
X97731900Y-117410213D01*
X97731900Y-117810200D01*
X98798888Y-117810200D01*
X98765975Y-117867207D01*
X98731900Y-117994374D01*
X98731900Y-118126026D01*
X98765975Y-118253193D01*
X98798888Y-118310200D01*
X97731901Y-118310200D01*
X97731901Y-118710186D01*
X97742394Y-118812897D01*
X97797541Y-118979319D01*
X97797543Y-118979324D01*
X97889584Y-119128545D01*
X98013554Y-119252515D01*
X98168384Y-119348015D01*
X98215108Y-119399963D01*
X98226331Y-119468926D01*
X98198487Y-119533008D01*
X98190969Y-119541235D01*
X98051789Y-119680415D01*
X97926851Y-119852379D01*
X97830344Y-120041785D01*
X97830343Y-120041787D01*
X97830343Y-120041788D01*
X97807540Y-120111967D01*
X97764653Y-120243960D01*
X97743170Y-120379600D01*
X97731400Y-120453913D01*
X97731400Y-120666487D01*
X95940000Y-120666487D01*
X95940000Y-116673002D01*
X105062751Y-116673002D01*
X105081685Y-116841056D01*
X105137545Y-117000694D01*
X105137547Y-117000697D01*
X105227518Y-117143884D01*
X105227523Y-117143890D01*
X105347109Y-117263476D01*
X105347115Y-117263481D01*
X105490302Y-117353452D01*
X105490305Y-117353454D01*
X105490309Y-117353455D01*
X105490310Y-117353456D01*
X105562913Y-117378860D01*
X105649943Y-117409314D01*
X105817997Y-117428249D01*
X105818000Y-117428249D01*
X105818003Y-117428249D01*
X105986056Y-117409314D01*
X105986059Y-117409313D01*
X106145690Y-117353456D01*
X106145692Y-117353454D01*
X106145694Y-117353454D01*
X106145697Y-117353452D01*
X106288884Y-117263481D01*
X106288885Y-117263480D01*
X106288890Y-117263477D01*
X106408477Y-117143890D01*
X106433722Y-117103713D01*
X106498452Y-117000697D01*
X106498454Y-117000694D01*
X106498454Y-117000692D01*
X106498456Y-117000690D01*
X106554313Y-116841059D01*
X106554313Y-116841058D01*
X106554314Y-116841056D01*
X106573249Y-116673002D01*
X106573249Y-116672997D01*
X106554314Y-116504946D01*
X106554313Y-116504942D01*
X106554313Y-116504941D01*
X106529450Y-116433889D01*
X106525890Y-116364113D01*
X106529452Y-116351982D01*
X106576313Y-116218061D01*
X106576313Y-116218059D01*
X106595249Y-116050002D01*
X106595249Y-116049997D01*
X106576314Y-115881943D01*
X106534103Y-115761310D01*
X106520456Y-115722310D01*
X106520455Y-115722309D01*
X106520454Y-115722305D01*
X106520452Y-115722302D01*
X106430481Y-115579115D01*
X106430476Y-115579109D01*
X106310890Y-115459523D01*
X106310884Y-115459518D01*
X106167697Y-115369547D01*
X106167694Y-115369545D01*
X106008056Y-115313685D01*
X105840003Y-115294751D01*
X105839997Y-115294751D01*
X105671943Y-115313685D01*
X105512305Y-115369545D01*
X105512302Y-115369547D01*
X105369115Y-115459518D01*
X105369109Y-115459523D01*
X105249523Y-115579109D01*
X105249518Y-115579115D01*
X105159547Y-115722302D01*
X105159545Y-115722305D01*
X105103685Y-115881943D01*
X105084751Y-116049997D01*
X105084751Y-116050002D01*
X105103685Y-116218054D01*
X105103686Y-116218058D01*
X105128548Y-116289109D01*
X105132109Y-116358888D01*
X105128548Y-116371017D01*
X105081686Y-116504942D01*
X105062751Y-116672997D01*
X105062751Y-116673002D01*
X95940000Y-116673002D01*
X95940000Y-106376660D01*
X95959685Y-106309621D01*
X96012489Y-106263866D01*
X96081647Y-106253922D01*
X96145203Y-106282947D01*
X96182977Y-106341725D01*
X96186116Y-106355128D01*
X96211414Y-106498602D01*
X96211416Y-106498611D01*
X96311645Y-106833400D01*
X96450055Y-107154270D01*
X96450061Y-107154283D01*
X96624789Y-107456922D01*
X96833467Y-107737225D01*
X96841648Y-107745896D01*
X98091820Y-106495725D01*
X98182054Y-106619920D01*
X98321180Y-106759046D01*
X98445373Y-106849278D01*
X97198318Y-108096333D01*
X97198319Y-108096334D01*
X97340984Y-108216045D01*
X97632961Y-108408080D01*
X97945239Y-108564914D01*
X97945245Y-108564916D01*
X98273630Y-108684438D01*
X98273633Y-108684439D01*
X98613671Y-108765029D01*
X98960776Y-108805599D01*
X98960777Y-108805600D01*
X99310223Y-108805600D01*
X99310223Y-108805599D01*
X99657327Y-108765029D01*
X99657329Y-108765029D01*
X99997366Y-108684439D01*
X99997369Y-108684438D01*
X100325754Y-108564916D01*
X100325760Y-108564914D01*
X100638038Y-108408080D01*
X100930009Y-108216049D01*
X100930010Y-108216048D01*
X101072679Y-108096334D01*
X101072680Y-108096333D01*
X99825626Y-106849278D01*
X99949820Y-106759046D01*
X100088946Y-106619920D01*
X100179178Y-106495726D01*
X101429349Y-107745897D01*
X101429351Y-107745896D01*
X101437522Y-107737236D01*
X101437533Y-107737223D01*
X101646210Y-107456922D01*
X101820938Y-107154283D01*
X101820944Y-107154270D01*
X101959354Y-106833400D01*
X102059583Y-106498611D01*
X102059585Y-106498602D01*
X102120263Y-106154480D01*
X102120264Y-106154469D01*
X102140584Y-105805603D01*
X102140584Y-105805596D01*
X102120264Y-105456730D01*
X102120263Y-105456719D01*
X102059585Y-105112597D01*
X102059583Y-105112588D01*
X102000729Y-104916000D01*
X105597700Y-104916000D01*
X106447700Y-104916000D01*
X106447700Y-103966000D01*
X106297727Y-103966000D01*
X106297712Y-103966001D01*
X106195002Y-103976494D01*
X106028580Y-104031641D01*
X106028575Y-104031643D01*
X105879354Y-104123684D01*
X105755384Y-104247654D01*
X105663343Y-104396875D01*
X105663341Y-104396880D01*
X105608194Y-104563302D01*
X105608193Y-104563309D01*
X105597700Y-104666013D01*
X105597700Y-104916000D01*
X102000729Y-104916000D01*
X101959354Y-104777799D01*
X101820944Y-104456929D01*
X101820938Y-104456916D01*
X101646210Y-104154277D01*
X101437532Y-103873974D01*
X101429350Y-103865302D01*
X100179178Y-105115473D01*
X100088946Y-104991280D01*
X99949820Y-104852154D01*
X99825625Y-104761920D01*
X101072680Y-103514865D01*
X101072679Y-103514864D01*
X100930019Y-103395157D01*
X100638038Y-103203119D01*
X100325760Y-103046285D01*
X100325754Y-103046283D01*
X99997369Y-102926761D01*
X99997366Y-102926760D01*
X99657328Y-102846170D01*
X99494700Y-102827162D01*
X99430399Y-102799827D01*
X99391083Y-102742069D01*
X99389236Y-102672223D01*
X99425443Y-102612467D01*
X99488209Y-102581772D01*
X99509095Y-102580000D01*
X150310440Y-102580000D01*
X150377479Y-102599685D01*
G37*
%TD.AperFunction*%
%TA.AperFunction,Conductor*%
G36*
X98828944Y-102599685D02*
G01*
X98874699Y-102652489D01*
X98884643Y-102721647D01*
X98855618Y-102785203D01*
X98796840Y-102822977D01*
X98776300Y-102827162D01*
X98613672Y-102846170D01*
X98613670Y-102846170D01*
X98273633Y-102926760D01*
X98273630Y-102926761D01*
X97945245Y-103046283D01*
X97945239Y-103046285D01*
X97632961Y-103203119D01*
X97340980Y-103395157D01*
X97198319Y-103514864D01*
X97198318Y-103514865D01*
X98445374Y-104761920D01*
X98321180Y-104852154D01*
X98182054Y-104991280D01*
X98091820Y-105115473D01*
X96841648Y-103865301D01*
X96841647Y-103865302D01*
X96833476Y-103873963D01*
X96833472Y-103873968D01*
X96624789Y-104154277D01*
X96450061Y-104456916D01*
X96450055Y-104456929D01*
X96311645Y-104777799D01*
X96211416Y-105112588D01*
X96211414Y-105112597D01*
X96186116Y-105256071D01*
X96155089Y-105318674D01*
X96095142Y-105354565D01*
X96025308Y-105352348D01*
X95967758Y-105312728D01*
X95940764Y-105248283D01*
X95940000Y-105234539D01*
X95940000Y-102704000D01*
X95959685Y-102636961D01*
X96012489Y-102591206D01*
X96064000Y-102580000D01*
X98761905Y-102580000D01*
X98828944Y-102599685D01*
G37*
%TD.AperFunction*%
%TD*%
D32*
X112839000Y-115749000D03*
X112861000Y-116372000D03*
X117578500Y-116327300D03*
X147713000Y-121022000D03*
X115690000Y-110507000D03*
X102218000Y-124824000D03*
X116704000Y-121103000D03*
X105840000Y-116050000D03*
X129597000Y-118693000D03*
X140651000Y-110443000D03*
X105818000Y-116673000D03*
X120445000Y-118727000D03*
X129625000Y-120011000D03*
X106701000Y-103953000D03*
X123251000Y-110718000D03*
X119414000Y-121276000D03*
X115351000Y-122126000D03*
X113571000Y-104704000D03*
X108974000Y-130693000D03*
X109962000Y-130693000D03*
X134239000Y-120667000D03*
X116616000Y-117248000D03*
X108116000Y-130672000D03*
X138970000Y-104783000D03*
X131941000Y-104210000D03*
X125093000Y-120667000D03*
X148787000Y-117380000D03*
X142710000Y-118541000D03*
X103693000Y-121761000D03*
X120509000Y-120009000D03*
X108116000Y-119399000D03*
X147714000Y-117323000D03*
X111284400Y-106028100D03*
X138065300Y-105019600D03*
X106999800Y-121196400D03*
X106999800Y-119951000D03*
X135492000Y-116089000D03*
X141251300Y-116521500D03*
X141314600Y-121856700D03*
X109969500Y-105884400D03*
X113440500Y-107892100D03*
X106396700Y-109296900D03*
X130858000Y-105679500D03*
X133246600Y-110444500D03*
X127113900Y-114986500D03*
X119273700Y-105593200D03*
X119273700Y-106716700D03*
X127218000Y-116319000D03*
X145010100Y-121675000D03*
X112005800Y-122754600D03*
X111742800Y-119120200D03*
X119914300Y-117043900D03*
X120795500Y-120658600D03*
X147862000Y-119272600D03*
D33*
X99231900Y-118060200D03*
X99231900Y-120560200D03*
X142126500Y-128646400D03*
X144626500Y-128646400D03*
X99135500Y-105805600D03*
X98864800Y-128804100D03*
X105636700Y-128646400D03*
X108136700Y-128646400D03*
X110636700Y-128646400D03*
X117766800Y-128646400D03*
X120266800Y-128646400D03*
X122766800Y-128646400D03*
X151623700Y-128804100D03*
X151623700Y-105540300D03*
M02*
